<svg width="70" height="86" viewBox="0 0 70 86" fill="none" xmlns="http://www.w3.org/2000/svg">
<path opacity="0.1" d="M70 67.1601V86.0001H4.60003V71.1201L36.04 41.7201C39.08 38.8401 41.12 36.4001 42.16 34.4001C43.2 32.3201 43.72 30.2401 43.72 28.1601C43.72 25.4401 42.8 23.3201 40.96 21.8001C39.12 20.2801 36.44 19.5201 32.92 19.5201C29.8 19.5201 26.92 20.2401 24.28 21.6801C21.72 23.0401 19.6 25.0401 17.92 27.6801L0.280029 17.8401C3.56003 12.4001 8.16003 8.12007 14.08 5.00007C20 1.88007 27 0.320068 35.08 0.320068C41.48 0.320068 47.12 1.36007 52 3.44007C56.96 5.52007 60.8 8.52007 63.52 12.4401C66.32 16.2801 67.72 20.7601 67.72 25.8801C67.72 30.4401 66.72 34.7601 64.72 38.8401C62.8 42.8401 59.04 47.4001 53.44 52.5201L37.6 67.1601H70Z" fill="white"/>
</svg>
