<svg width="70" height="86" viewBox="0 0 70 86" fill="none" xmlns="http://www.w3.org/2000/svg">
<path opacity="0.1" d="M48.16 33.6C55.12 35.04 60.44 37.92 64.12 42.24C67.88 46.48 69.76 51.64 69.76 57.72C69.76 62.68 68.4 67.28 65.68 71.52C63.04 75.76 58.96 79.2 53.44 81.84C48 84.4 41.24 85.68 33.16 85.68C27.24 85.68 21.36 84.96 15.52 83.52C9.76002 82.08 4.76002 80.04 0.52002 77.4L9.16002 59.52C12.44 61.76 16.12 63.48 20.2 64.68C24.36 65.88 28.44 66.48 32.44 66.48C36.52 66.48 39.76 65.72 42.16 64.2C44.56 62.68 45.76 60.52 45.76 57.72C45.76 52.28 41.48 49.56 32.92 49.56H22.96V34.56L37.96 18.36H4.84002V0H65.56V14.88L48.16 33.6Z" fill="white"/>
</svg>
