<svg width="1440" height="1729" viewBox="0 0 1440 1729" fill="none" xmlns="http://www.w3.org/2000/svg">
<g filter="url(#filter0_f)">
<path d="M474.171 -462.459C-291.105 -192.476 -333.24 564.439 -192.595 899.814C-15.794 1321.4 271.553 263.319 824.143 338.224C1543.97 435.797 999.653 -647.845 474.171 -462.459Z" fill="#0A1C66"/>
</g>
<g filter="url(#filter1_f)">
<path d="M1433.4 734.965C894.558 128.18 442.348 -105.218 100.899 19.9647C-328.325 177.327 1148.23 544.193 664.399 821.465C-156.601 1291.96 1833.9 1185.96 1433.4 734.965Z" fill="#0F0C8B"/>
</g>
<g filter="url(#filter2_f)">
<path d="M550.567 -107.68C18.2744 -188.342 -192.276 -11.1107 -188.483 97.9698C-183.715 235.091 241.915 139.322 560.362 263.634C975.182 425.566 916.069 -52.293 550.567 -107.68Z" fill="#6409AC"/>
</g>
<defs>
<filter id="filter0_f" x="-683.245" y="-911.167" width="2281.02" height="2337.89" filterUnits="userSpaceOnUse" color-interpolation-filters="sRGB">
<feFlood flood-opacity="0" result="BackgroundImageFix"/>
<feBlend mode="normal" in="SourceGraphic" in2="BackgroundImageFix" result="shape"/>
<feGaussianBlur stdDeviation="213.662" result="effect1_foregroundBlur"/>
</filter>
<filter id="filter1_f" x="-420.323" y="-701.324" width="2374.59" height="2429.48" filterUnits="userSpaceOnUse" color-interpolation-filters="sRGB">
<feFlood flood-opacity="0" result="BackgroundImageFix"/>
<feBlend mode="normal" in="SourceGraphic" in2="BackgroundImageFix" result="shape"/>
<feGaussianBlur stdDeviation="213.662" result="effect1_foregroundBlur"/>
</filter>
<filter id="filter2_f" x="-399.138" y="-421.857" width="1487.22" height="943.829" filterUnits="userSpaceOnUse" color-interpolation-filters="sRGB">
<feFlood flood-opacity="0" result="BackgroundImageFix"/>
<feBlend mode="normal" in="SourceGraphic" in2="BackgroundImageFix" result="shape"/>
<feGaussianBlur stdDeviation="99.985" result="effect1_foregroundBlur"/>
</filter>
</defs>
</svg>
