<svg width="401" height="300" viewBox="0 0 401 300" fill="none" xmlns="http://www.w3.org/2000/svg">
<path d="M127.957 -30.6459L161.17 -36.2397L150.781 -65.2073L149.483 -108.709L183.345 -115.851L219.604 -114.702L257.063 -104.214L251.169 -160.451L248.272 -188.37L279.238 -197.21L324.537 -140.124L327.784 -135.978L350.408 -157.704L378.277 -151.711L404.947 -217.987L433.465 -167.942L440.857 -171.638L450.996 -176.683L464.681 -183.625L466.479 -180.129L478.765 -155.456L485.358 -142.521L498.393 -149.663L520.268 -161.35L522.366 -153.159L527.51 -134.03L530.957 -120.695L542.244 -126.139L562.771 -136.478L576.905 -143.27L578.953 -134.48L585.096 -109.758L587.044 -101.267L604.025 -95.6233L610.418 -93.5257L625.9 -96.0229L658.614 -101.816L659.813 -61.2617L657.215 -23.2542L710.706 -28.8479L714.252 -29.2475L728.586 -5.77374L730.084 -3.32646L768.291 10.1085L772.037 11.457L764.196 43.9207L762.897 49.4146L726.088 84.1258L720.794 89.2201L718.747 119.636L721.544 121.384L756.455 142.81L740.822 171.778L705.661 196.6L712.604 222.871L681.388 230.962L661.111 236.456L669.702 245.895L688.93 266.971L691.677 269.968L695.972 293.542L697.021 299.535L694.724 328.053L657.465 336.144L639.485 352.326L639.785 376.199L639.885 387.037L616.96 389.784L607.771 390.933L613.265 438.03L595.385 461.604L572.61 479.584L533.654 458.757L531.156 457.459L510.28 468.147L508.032 469.345L479.164 469.545L477.516 472.792L462.283 504.206L439.709 520.139L437.511 521.687L417.333 504.806L403.849 493.369L382.173 506.654L359.149 513.446L348.111 516.942L320.791 507.653L312.351 497.014L299.715 480.783L281.935 493.518L256.064 512.497L256.563 508.002L263.356 452.764L243.278 444.723L228.694 439.179L210.115 432.237L206.319 427.692L187.79 436.932L138.295 461.604L146.286 416.804L147.635 408.763L111.176 413.008L92.5464 415.006L101.736 388.336L109.677 364.562L91.5975 341.338L93.8949 313.02L94.4443 304.879L57.4856 291.045L50.1438 283.803L32.3137 266.072L34.0618 264.075L61.581 233.509L66.3257 228.115L58.6343 201.894L57.1859 196.9L78.6619 173.326L79.9105 171.978L69.4722 143.709L71.2702 131.523L73.4677 115.84L66.6753 103.155L59.6332 89.8194L55.6377 82.178L57.136 66.046L58.5844 51.2625L69.3224 38.5767L79.5609 26.9897L81.6586 25.6911L102.236 12.8055L116.17 4.6646L119.217 -4.37529L127.957 -30.6459Z" stroke="#00EDFF" stroke-opacity="0.12" stroke-width="3.34626" stroke-miterlimit="10"/>
<path d="M153.328 -14.5639L183.345 -19.6582L174.055 -45.829L173.006 -85.0851L203.622 -91.5779L236.385 -90.6289L270.248 -81.1895L265.103 -131.833L262.556 -157.055L290.525 -165.096L331.479 -113.903L334.376 -110.157L354.903 -129.735L380.075 -124.341L404.348 -183.975L430.768 -138.276L437.561 -141.522L446.8 -145.917L459.386 -152.11L461.034 -148.964L472.472 -126.489L478.665 -114.902L490.651 -121.395L510.529 -131.533L512.477 -124.092L517.421 -107.011L520.618 -94.7743L530.906 -99.469L549.685 -108.958L562.471 -114.802L564.369 -106.711L570.312 -84.6356L572.06 -76.8443L587.343 -71.4504L593.187 -69.5025L607.321 -71.5502L637.237 -76.9942L638.336 -40.0854L635.989 -5.52402L684.684 -10.6183L687.881 -10.918L700.916 10.4082L702.265 12.6057L737.076 24.842L740.422 26.0906L733.28 55.7075L732.081 60.652L698.569 92.2667L693.774 96.9115L691.876 124.631L694.374 126.279L726.188 145.807L711.954 172.127L679.99 194.752L686.283 218.675L657.864 226.067L639.635 231.261L647.426 239.902L664.757 259.18L667.254 261.927L671.05 283.403L671.949 288.797L669.551 314.568L635.739 322.11L619.507 336.943L619.857 358.669L619.807 368.508L598.93 371.005L590.639 372.154L595.584 415.056L579.252 436.532L558.475 452.964L522.815 434.035L520.568 432.886L501.489 442.675L499.441 443.724L473.071 443.824L471.523 446.721L457.538 475.388L437.011 490.022L435.013 491.371L416.484 476.288L404.148 465.799L384.32 477.586L363.393 483.33L353.355 486.676L328.483 478.685L320.791 469.295L309.154 454.562L292.922 465.749L269.149 483.08L269.498 479.084L275.642 428.441L257.562 420.849L244.177 415.805L227.196 409.712L223.7 405.616L206.719 414.107L161.269 436.582L168.561 395.678L169.66 388.436L136.397 392.231L119.666 393.83L128.007 369.457L134.999 347.831L118.817 326.505L121.014 300.734L121.414 293.392L87.6517 280.806L80.9092 274.263L64.6774 258.081L66.2256 256.233L91.2477 228.265L95.5429 223.37L88.7005 199.397L87.352 194.852L106.73 173.226L107.829 172.028L98.2399 146.206L99.938 134.919L101.736 120.385L95.6927 108.648L89.5995 96.3122L86.1534 89.2201L87.7516 74.3867L89.3498 60.8518L98.989 49.015L108.428 38.277L110.376 37.0784L128.956 24.842L141.891 17.5502L144.888 9.45924L153.328 -14.5639Z" stroke="#00EDFF" stroke-opacity="0.24" stroke-width="3.99553" stroke-miterlimit="10"/>
<path d="M178.751 1.51758L205.521 -3.12723L197.38 -26.4512L196.581 -61.462L223.85 -67.3555L253.117 -66.5064L283.384 -58.1657L279.039 -103.265L276.841 -125.69L301.813 -132.982L338.422 -87.6827L341.019 -84.3365L359.399 -101.767L381.874 -96.9724L403.749 -149.963L428.072 -108.659L434.265 -111.406L442.556 -115.102L454.043 -120.646L455.591 -117.849L466.179 -97.5217L471.973 -87.2832L482.861 -93.1766L500.791 -101.767L502.589 -94.9746L507.333 -79.9913L510.28 -68.8538L519.52 -72.8493L536.601 -81.4897L548.088 -86.3342L549.786 -78.9925L555.48 -59.5642L557.078 -52.4221L570.663 -47.2779L575.957 -45.4799L588.742 -47.0781L615.862 -52.2224L616.861 -18.9595L614.713 12.2056L658.614 7.61075L661.461 7.36104L673.248 26.6395L674.447 28.5873L705.812 39.625L708.808 40.7737L702.415 67.4439L701.267 71.8889L671.001 100.407L666.705 104.652L665.007 129.624L667.205 131.123L695.923 148.753L683.087 172.476L654.269 192.854L659.963 214.43L634.341 221.172L618.21 226.067L625.152 233.908L640.634 251.388L642.782 253.886L646.178 273.214L646.927 278.058L644.43 301.083L614.014 308.075L599.58 321.56L599.93 341.138L599.73 349.928L580.951 352.276L573.559 353.374L577.954 392.081L563.121 411.459L544.342 426.343L511.978 409.362L509.931 408.363L492.7 417.203L490.802 418.102L466.929 418.052L465.53 420.649L452.794 446.52L434.265 459.905L432.467 461.104L415.636 447.719L404.448 438.23L386.518 448.468L367.64 453.263L358.6 456.409L336.175 449.717L329.232 441.576L318.544 428.341L303.861 437.98L282.235 453.662L282.485 450.116L287.929 404.168L271.897 397.026L259.71 392.481L244.327 387.137L241.131 383.591L225.648 391.232L184.294 411.509L190.837 374.501L191.686 368.058L161.62 371.454L146.786 372.603L154.328 350.577L160.321 331.099L146.087 311.771L148.185 288.397L148.434 281.854L117.869 270.567L111.676 264.723L96.9919 250.04L98.3404 248.392L120.965 223.07L124.761 218.575L118.718 196.899L117.569 192.804L134.8 173.076L135.799 172.027L127.008 148.703L128.557 138.315L130.005 124.93L124.711 114.092L119.567 102.804L116.67 96.3116L118.368 82.7268L120.166 70.3906L128.607 59.4029L137.297 49.5639L139.095 48.4152L155.676 36.878L167.613 30.4352L170.56 23.2433L178.751 1.51758Z" stroke="#00EDFF" stroke-opacity="0.36" stroke-width="4.69475" stroke-miterlimit="10"/>
<path d="M204.122 17.6001L227.646 13.4547L220.654 -7.07236L220.104 -37.8879L244.127 -43.0821L269.899 -42.4328L296.519 -35.141L292.973 -74.6468L291.125 -94.3748L313.1 -100.818L345.364 -61.4116L347.662 -58.5648L363.844 -73.7478L383.721 -69.5525L403.15 -115.951L425.425 -78.992L430.969 -81.2894L438.36 -84.336L448.749 -89.1307L450.147 -86.6834L459.886 -68.5537L465.23 -59.6636L475.119 -64.9077L491.051 -71.9499L492.749 -65.8567L497.244 -52.9211L499.941 -42.9323L508.132 -46.1786L523.565 -53.9699L533.654 -57.8656L535.202 -51.223L540.696 -34.4418L542.094 -27.999L553.981 -23.1544L558.726 -21.4563L570.113 -22.6549L594.486 -27.3996L595.385 2.21726L593.487 29.9363L632.593 25.8908L635.09 25.6411L645.579 42.8219L646.627 44.52L674.596 54.359L677.193 55.4078L671.5 79.2312L670.451 83.1268L643.481 108.548L639.685 112.344L638.137 134.669L640.085 135.968L665.656 151.7L654.219 172.877L628.548 191.006L633.592 210.235L610.768 216.328L596.783 220.873L602.876 227.865L616.461 243.548L618.359 245.795L621.306 263.076L621.855 267.321L619.308 287.598L592.238 294.041L579.702 306.178L579.952 323.658L579.652 331.349L562.921 333.497L556.428 334.596L560.274 369.157L546.989 386.438L530.158 399.673L501.14 384.64L499.342 383.791L483.859 391.682L482.211 392.481L460.835 392.331L459.587 394.579L448.049 417.703L431.568 429.739L429.97 430.838L414.737 419.201L404.698 410.711L388.666 419.351L371.885 423.197L363.844 426.094L343.916 420.75L337.623 413.807L327.934 402.17L314.798 410.211L295.27 424.246L295.42 421.199L300.265 379.845L286.23 373.203L275.243 369.157L261.408 364.612L258.511 361.516L244.577 368.408L207.269 386.438L213.112 353.325L213.711 347.681L186.841 350.678L173.956 351.427L180.598 331.699L185.643 314.368L173.356 296.988L175.304 276.111L175.404 270.368L148.035 260.329L142.491 255.135L129.306 241.999L130.454 240.551L150.682 217.826L154.028 213.831L148.784 194.402L147.785 190.757L162.868 172.976L163.767 172.027L155.776 151.201L157.224 141.711L158.273 129.525L153.678 119.536L149.533 109.248L147.136 103.354L148.984 91.068L150.931 79.9803L158.273 69.7918L166.214 60.8517L167.813 59.8029L182.396 48.9151L193.334 43.3213L196.231 37.0783L204.122 17.6001Z" stroke="#00EDFF" stroke-opacity="0.48" stroke-width="5.34403" stroke-miterlimit="10"/>
<path d="M229.543 33.6823L249.821 29.9865L243.977 12.3062L243.678 -14.2641L264.355 -18.859L286.68 -18.3096L309.654 -12.1165L306.907 -46.0286L305.459 -63.0596L324.387 -68.7033L352.306 -35.1907L354.254 -32.7434L368.338 -45.7789L385.519 -42.1829L402.55 -81.9385L422.778 -49.3249L427.622 -51.2228L434.165 -53.5702L443.404 -57.6656L444.753 -55.5679L453.643 -39.5858L458.538 -32.0942L467.328 -36.6391L481.312 -42.133L482.86 -36.739L487.156 -25.9011L489.653 -17.011L496.795 -19.5082L510.48 -26.4505L519.22 -29.3972L520.618 -23.5038L525.912 -9.31963L527.111 -3.57604L537.3 1.01881L541.445 2.56709L551.534 1.81792L573.11 -2.62711L573.909 23.3439L572.211 47.6667L606.572 44.1206L608.72 43.9209L617.909 59.004L618.808 60.5023L643.381 69.1427L645.579 70.0916L640.584 90.9683L639.635 94.3645L615.912 116.69L612.665 120.036L611.267 139.664L612.915 140.863L635.39 154.647L625.351 173.226L602.876 189.159L607.271 205.99L587.244 211.434L575.307 215.679L580.601 221.872L592.338 235.756L593.936 237.754L596.434 252.937L596.833 256.583L594.136 274.064L570.512 280.007L559.774 290.795L560.024 306.128L559.575 312.82L544.891 314.768L539.347 315.817L542.644 346.183L530.907 361.366L516.023 373.053L490.302 359.968L488.754 359.218L475.069 366.211L473.621 366.86L454.742 366.61L453.593 368.508L443.305 388.885L428.871 399.623L427.422 400.572L413.887 390.633L404.997 383.142L390.863 390.284L376.13 393.131L369.088 395.828L351.607 391.732L346.063 386.088L337.323 375.95L325.786 382.443L308.355 394.779L308.405 392.232L312.551 355.573L300.514 349.33L290.775 345.833L278.539 342.088L275.892 339.491L263.506 345.534L230.293 361.366L235.387 332.149L235.786 327.354L212.013 329.901L201.075 330.201L206.919 312.82L210.964 297.587L200.576 282.205L202.424 263.825L202.374 258.831L178.201 250.09L173.256 245.595L161.669 234.008L162.618 232.71L180.348 212.632L183.245 209.086L178.85 191.905L178.001 188.709L190.987 172.877L191.686 172.078L184.544 153.698L185.892 145.108L186.591 134.07L182.696 124.98L179.449 115.741L177.651 110.397L179.649 99.4089L181.747 89.5199L187.89 80.2303L195.082 72.1393L196.53 71.1404L209.116 60.9518L219.055 56.2071L221.902 50.9131L229.543 33.6823Z" stroke="#00EDFF" stroke-opacity="0.6" stroke-width="5.9933" stroke-miterlimit="10"/>
<path d="M254.915 49.7646L271.996 46.5681L267.251 31.6847L267.201 9.35971L284.632 5.36418L303.461 5.81368L322.789 10.908L320.841 -17.4104L319.742 -31.6944L335.675 -36.5889L359.248 -8.96981L360.896 -6.87215L372.833 -17.76L387.317 -14.7633L401.951 -47.9263L420.08 -19.7078L424.326 -21.1062L429.919 -22.8044L438.11 -26.1506L439.309 -24.4026L447.35 -10.618L451.845 -4.47483L459.586 -8.37047L471.573 -12.366L472.971 -7.62132L477.067 1.16887L479.314 8.91021L485.407 7.16216L497.394 1.06898L504.836 -0.928796L506.034 4.21545L511.129 15.8025L512.078 20.8469L520.618 25.192L524.214 26.6404L532.954 26.2908L551.733 22.1954L552.432 44.5204L550.984 65.3971L580.551 62.3505L582.349 62.2506L590.24 75.2361L590.989 76.4347L612.166 83.9264L613.964 84.7255L609.669 102.755L608.819 105.652L588.342 124.831L585.645 127.727L584.447 144.659L585.795 145.707L605.124 157.644L596.483 173.576L577.155 187.311L580.951 201.795L563.72 206.539L553.881 210.485L558.326 215.879L568.165 227.965L569.513 229.713L571.561 242.799L571.761 245.845L569.014 260.579L548.787 265.973L539.847 275.412L540.046 288.598L539.497 294.241L526.861 295.989L522.266 297.038L524.963 323.209L514.775 336.344L501.889 346.383L479.514 335.245L478.116 334.646L466.279 340.739L465.03 341.289L448.648 340.889L447.6 342.487L438.56 360.018L426.124 369.507L424.925 370.256L413.038 362.115L405.297 355.623L393.061 361.167L380.375 363.064L374.282 365.562L359.298 362.765L354.454 358.37L346.762 349.729L336.724 354.674L321.441 365.362L321.341 363.314L324.837 331.3L314.848 325.506L306.308 322.46L295.619 319.563L293.272 317.465L282.434 322.71L253.267 336.294L257.662 311.023L257.812 306.977L237.235 309.125L228.195 309.025L233.239 293.942L236.286 280.856L227.845 267.421L229.543 251.489L229.393 247.344L208.367 239.852L204.072 236.056L193.983 226.018L194.732 224.869L210.065 207.438L212.512 204.292L208.916 189.408L208.167 186.612L219.055 172.777L219.654 172.078L213.311 156.196L214.51 148.504L214.86 138.615L211.713 130.424L209.416 122.234L208.167 117.489L210.265 107.8L212.562 99.1094L217.557 90.6189L223.999 83.377L225.248 82.5279L235.886 72.9886L244.776 69.1429L247.573 64.7478L254.915 49.7646Z" stroke="#00EDFF" stroke-opacity="0.72" stroke-width="6.64258" stroke-miterlimit="10"/>
<path d="M280.336 65.8453L294.171 63.0984L290.525 51.0619L290.775 32.9821L304.859 29.6358L320.192 29.8855L335.924 33.9809L334.776 11.2064L334.026 -0.380657L346.962 -4.42614L366.19 17.2496L367.489 18.9477L377.278 10.2075L389.115 12.6048L401.301 -13.9155L417.383 9.95779L421.029 9.00885L425.724 7.96001L432.766 5.36293L433.865 6.76136L441.057 18.3484L445.152 23.143L451.795 19.8967L461.834 17.4494L463.082 21.4949L466.978 28.1874L468.976 34.83L474.07 33.8311L484.308 28.537L490.402 27.5381L491.45 31.9832L496.345 40.9232L497.094 45.2683L503.936 49.3138L506.983 50.6623L514.325 50.7622L530.357 47.0164L530.906 65.6456L529.708 83.126L554.48 80.6288L555.928 80.5289L562.571 91.4167L563.22 92.4156L580.95 98.6587L582.349 99.4078L578.753 114.491L578.004 116.888L560.823 132.92L558.625 135.418L557.577 149.652L558.625 150.551L574.857 160.589L567.615 173.925L551.433 185.462L554.63 197.548L540.146 201.644L532.405 205.29L536.051 209.884L543.992 220.173L545.09 221.621L546.639 232.609L546.689 235.106L543.842 247.093L527.011 251.937L519.919 259.978L520.118 271.116L519.419 275.711L508.831 277.259L505.135 278.258L507.283 300.233L498.642 311.271L487.705 319.762L468.676 310.522L467.527 310.122L457.488 315.217L456.44 315.666L442.555 315.167L441.606 316.415L433.815 331.199L423.426 339.34L422.378 339.989L412.139 333.546L405.546 328.052L395.208 332.098L384.62 332.947L379.526 335.294L367.039 333.796L362.894 330.599L356.152 323.507L347.661 326.904L334.476 335.943L334.276 334.345L337.123 306.976L329.182 301.632L321.84 299.135L312.75 297.037L310.652 295.389L301.313 299.834L276.291 311.221L279.887 289.845L279.837 286.649L262.456 288.347L255.314 287.847L259.56 275.062L261.607 264.124L255.065 252.637L256.663 239.202L256.363 235.855L238.583 229.612L234.837 226.516L226.347 217.975L226.846 217.026L239.732 202.193L241.729 199.546L238.933 186.91L238.383 184.563L247.123 172.626L247.573 172.077L242.079 158.692L243.178 151.899L243.128 143.159L240.731 135.917L239.382 128.725L238.683 124.53L240.88 116.139L243.328 108.648L247.173 101.056L252.867 94.6631L253.966 93.864L262.606 85.0239L270.497 82.0272L273.244 78.5811L280.336 65.8453Z" stroke="#00EDFF" stroke-opacity="0.84" stroke-width="7.34179" stroke-miterlimit="10"/>
<path d="M305.709 81.9276L316.347 79.6301L313.849 70.3905L314.299 56.6059L325.137 53.859L336.974 54.0088L349.06 57.0054L348.711 39.8246L348.361 30.9346L358.25 27.6882L373.133 43.5205L374.132 44.7192L381.774 38.2264L390.913 40.0244L400.752 20.0967L414.737 39.5749L417.733 39.1254L421.529 38.7259L427.472 36.828L428.471 37.9267L434.764 47.3163L438.41 50.7624L444.054 48.1653L452.095 47.2663L453.194 50.6126L456.89 55.2074L458.638 60.7513L462.683 60.5015L471.274 56.0565L475.968 56.0066L476.867 59.7024L481.512 66.0453L482.111 69.6912L487.206 73.487L489.753 74.6857L495.746 75.2351L509.031 71.7889L509.431 86.8221L508.482 100.906L528.46 98.8587L529.558 98.8087L534.902 107.599L535.402 108.348L549.686 113.442L550.785 114.042L547.838 126.278L547.189 128.126L533.254 141.061L531.606 143.159L530.707 154.646L531.506 155.445L544.592 163.536L538.748 174.324L525.763 183.564L528.26 193.353L516.623 196.749L510.929 200.095L513.776 203.891L519.869 212.382L520.668 213.58L521.767 222.471L521.667 224.368L518.721 233.608L505.286 237.903L499.991 244.596L500.141 253.586L499.342 257.132L490.802 258.48L488.055 259.529L489.653 277.259L482.511 286.199L473.571 293.092L457.839 285.85L456.94 285.55L448.649 289.745L447.85 290.045L436.462 289.446L435.613 290.345L429.071 302.331L420.73 309.224L419.881 309.723L411.291 305.028L405.847 300.483L397.406 302.98L388.866 302.881L384.77 304.978L374.731 304.778L371.335 302.881L365.542 297.287L358.649 299.185L347.562 306.527L347.262 305.428L349.41 282.703L343.466 277.809L337.373 275.811L329.832 274.462L328.084 273.364L320.292 277.01L299.266 286.149L302.212 268.669L301.863 266.272L287.679 267.52L282.435 266.621L285.831 256.183L286.93 247.393L282.335 237.853L283.833 226.916L283.334 224.318L268.75 219.374L265.603 216.977L258.661 209.935L259.011 209.185L269.449 196.999L270.947 194.751L269 184.413L268.55 182.515L275.193 172.526L275.542 172.127L270.848 161.189L271.796 155.296L271.447 147.754L269.749 141.361L269.349 135.168L269.199 131.622L271.497 124.48L274.144 118.237L276.791 111.445L281.735 105.951L282.684 105.202L289.327 97.0607L296.219 94.9131L298.866 92.3659L305.709 81.9276Z" stroke="#00EDFF" stroke-opacity="0.96" stroke-width="7.99107" stroke-miterlimit="10"/>
<path d="M331.13 98.0098L338.521 96.2118L337.123 89.7691L337.872 80.2297L345.414 78.132H353.705L362.195 80.0299L362.645 68.4429V62.2997L369.537 59.8025L380.075 69.7414L380.774 70.5405L386.268 66.1954L392.711 67.394L400.103 54.1089L412.039 69.242L414.437 69.192L417.283 69.4917L422.128 68.293L423.027 69.0422L428.471 76.2841L431.717 78.3817L436.312 76.4339L442.305 77.0333L443.304 79.6803L446.8 82.2774L448.299 86.6725L451.345 87.122L458.188 83.5759L461.584 84.5249L462.283 87.4716L466.728 91.1675L467.128 94.1142L470.524 97.6602L472.522 98.709L477.167 99.658L487.655 96.6114L487.954 107.949L487.255 118.637L502.438 117.088H503.187L507.233 123.781L507.583 124.28L518.47 128.176L519.17 128.725L516.922 138.015L516.373 139.364L505.735 149.203L504.586 150.851L503.837 159.641L504.386 160.29L514.275 166.533L509.88 174.674L500.041 181.716L501.939 189.108L493.099 191.855L489.503 194.902L491.501 197.898L495.696 204.591L496.245 205.49L496.894 212.332L496.645 213.681L493.548 220.123L483.559 223.869L480.063 229.213L480.213 236.056L479.264 238.553L472.821 239.751L470.973 240.75L471.972 254.335L466.429 261.128L459.436 266.472L447 261.128L446.301 260.978L439.858 264.274L439.259 264.424L430.369 263.725L429.62 264.274L424.326 273.514L417.983 279.107L417.383 279.407L410.441 276.46L406.146 272.914L399.603 273.913L393.11 272.814L390.014 274.712L382.422 275.811L379.725 275.112L374.931 271.066L369.587 271.416L360.647 277.11L360.197 276.46L361.746 258.381L357.8 253.936L352.905 252.487L346.962 251.938L345.464 251.338L339.171 254.135L322.29 261.078L324.437 247.493L323.888 245.895L312.85 246.744L309.604 245.445L312.151 237.304L312.251 230.662L309.554 223.07L310.952 214.58L310.303 212.832L298.916 209.136L296.419 207.438L290.975 201.944L291.124 201.344L299.165 191.805L300.214 190.007L299.016 181.916L298.766 180.468L303.261 172.427L303.461 172.127L299.615 163.686L300.464 158.692L299.715 152.299L298.766 146.805L299.265 141.661L299.665 138.664L302.112 132.821L304.909 127.777L306.457 121.833L310.653 117.238L311.452 116.589L316.047 109.097L321.94 107.799L324.537 106.201L331.13 98.0098Z" stroke="#00EDFF" stroke-width="8.64034" stroke-miterlimit="10"/>
<path d="M356.502 114.093L360.647 112.744L360.397 109.148L361.396 103.804L365.642 102.356L370.486 102.206L375.381 103.055L376.579 97.0618L376.929 93.6157L380.825 91.9176L387.018 95.9631L387.367 96.4125L390.713 94.215L394.509 94.7644L399.504 88.1218L409.393 98.8598L411.141 99.3093L413.088 100.308L416.834 99.8087L417.583 100.208L422.178 105.253L425.025 106.002L428.521 104.653L432.567 106.851L433.416 108.799L436.712 109.298L437.961 112.594L439.958 113.793L445.103 111.046L447.15 112.994L447.65 115.192L451.945 116.29L452.145 118.538L453.843 121.834L455.291 122.783L458.538 124.132L466.279 121.435L466.479 129.126L465.979 136.368L476.368 135.319L476.817 135.419L479.564 140.014L479.764 140.264L487.256 142.961L487.555 143.36L486.007 149.803L485.557 150.602L478.166 157.344L477.566 158.543L476.967 164.636L477.217 165.136L484.009 169.481L481.063 175.025L474.32 179.869L475.619 184.914L469.575 186.961L468.077 189.708L469.226 191.906L471.573 196.8L471.823 197.45L472.023 202.194L471.573 202.943L468.427 206.639L461.834 209.836L460.136 213.831L460.236 218.576L459.187 220.024L454.792 221.023L453.843 221.972L454.342 231.362L450.297 236.106L445.302 239.802L436.213 236.456H435.713L431.068 238.753L430.669 238.853L424.276 238.004L423.627 238.204L419.631 244.647L415.286 248.942L414.837 249.142L409.592 247.943L406.396 245.396L401.751 244.797L397.356 242.749L395.258 244.447L390.164 246.844L388.166 247.394L384.371 244.847L380.525 243.648L373.732 247.693L373.133 247.544L374.032 234.109L372.134 230.113L368.438 229.114L364.043 229.414L362.845 229.264L358.1 231.312L345.264 236.007L346.713 226.367L345.963 225.568L338.072 225.968L336.724 224.27L338.472 218.426L337.573 213.931L336.824 208.288L338.072 202.294L337.323 201.295L329.132 198.898L327.184 197.899L323.339 193.954L323.289 193.504L328.883 186.612L329.432 185.213L329.082 179.47L328.982 178.421L331.33 172.328L331.43 172.178L328.383 166.185L329.082 162.089L327.984 156.845L327.784 152.25L329.232 148.155L330.181 145.707L332.728 141.163L335.725 137.317L336.075 132.272L339.521 128.527L340.17 127.927L342.767 121.135L347.712 120.685L350.209 120.036L356.502 114.093Z" stroke="#00EDFF" stroke-width="9.33956" stroke-miterlimit="10"/>
<path d="M420.78 132.921L423.527 137.915L426.624 136.367L428.621 140.462L432.068 138.564L433.066 142.959L437.162 141.411V145.956L439.959 148.603L444.903 146.206L445.003 150.251L444.753 154.097L450.347 153.597L451.895 156.195L456.041 157.693L455.092 161.539L450.597 165.484L450.047 170.029L453.743 172.426L452.195 175.373L448.599 178.02L449.298 180.667L446.002 182.066L446.951 185.911L447.4 189.008L447.151 192.004L443.305 193.153L440.059 195.8L440.308 201.044L436.762 202.243L436.662 208.386L434.165 211.033L431.119 213.181L425.375 211.732L422.278 213.281L417.684 212.132L412.589 218.825L408.694 219.374L403.949 215.728L401.602 212.631L396.557 219.674L393.76 218.625L391.513 215.878L386.119 218.575L386.419 206.289L383.971 205.789L377.029 208.436L368.289 210.983L368.988 205.19H363.294L364.743 199.546L362.895 197.199L365.192 190.007L357.95 188.309L355.403 185.662L358.55 181.366L359.149 176.921L359.399 172.227L357.151 168.681L357.751 165.484L356.252 161.389L356.802 157.743L359.199 154.646L363.344 149.552L366.541 146.905L365.742 142.66L368.888 139.313L369.487 133.17L375.88 133.869L381.874 130.174L385.919 126.578L390.514 125.679L393.96 122.183L398.905 122.133L407.845 129.424L408.893 131.073L412.19 131.372L415.886 134.219L420.78 132.921Z" stroke="#00EDFF" stroke-width="9.98884" stroke-miterlimit="10"/>
</svg>
