<svg width="159" height="157" viewBox="0 0 159 157" fill="none" xmlns="http://www.w3.org/2000/svg">
<g opacity="0.6">
<path d="M65.6471 1.13039C67.5958 0.75171 69.5473 0.378681 71.496 0C71.4055 3.83203 71.2216 7.66122 71.2839 11.4989C69.3974 11.8691 67.5081 12.2195 65.6217 12.5869C65.5566 12.1234 65.4916 11.6628 65.4265 11.1993C64.7025 12.1376 63.837 13.0362 62.6633 13.3782C61.3057 13.8332 59.5776 14.1045 58.3982 13.0984C57.5724 12.115 57.3631 10.75 57.4508 9.50093C57.5611 7.21472 57.5554 4.92285 57.7082 2.63664C59.6201 2.3173 61.5094 1.85101 63.4354 1.61081C63.3619 3.96767 63.3562 6.33019 63.359 8.68988C63.3421 9.09682 63.4411 9.50659 63.6871 9.8344C64.4734 10.2837 65.3699 9.54898 65.418 8.73227C65.7998 6.21997 65.551 3.66247 65.6471 1.13039Z" fill="#00F0FF"/>
<path d="M75.5037 1.87359C76.8612 0.220391 79.2059 0.0112681 81.1998 0.0423538C82.959 0.189305 84.8964 0.372995 86.285 1.58534C86.9327 2.10249 87.1392 2.92768 87.3485 3.68787C85.8212 3.67091 84.2939 3.62569 82.7667 3.56635C82.382 2.92768 81.7004 2.37661 80.9113 2.66769C80.323 2.73834 80.3598 3.45896 80.2297 3.88568C82.02 4.90021 84.3392 4.79 85.8947 6.24255C87.0289 7.21469 86.8479 9.02048 86.0022 10.117C85.1028 11.1908 83.6661 11.5978 82.3283 11.7645C80.2608 11.9765 78.0972 11.9199 76.14 11.1626C74.8475 10.6709 73.934 9.50655 73.555 8.20378C75.1529 8.1953 76.7538 8.21226 78.3489 8.27443C78.677 8.65311 78.94 9.16743 79.4774 9.27765C80.1929 9.60264 81.3638 8.68702 80.7275 7.97205C80.3372 7.42663 79.5849 7.37859 78.9966 7.17512C77.5853 6.77949 75.9081 6.49406 75.054 5.1602C74.3328 4.1485 74.7146 2.73269 75.5037 1.87359Z" fill="#00F0FF"/>
<path d="M108.187 3.11701C108.682 2.26639 109.197 1.42708 109.723 0.596243C111.476 1.28861 113.312 1.7775 115.034 2.53486C115.066 3.46178 114.127 4.26436 113.711 5.10085C111.87 4.43957 110.011 3.82351 108.187 3.11701Z" fill="#00F0FF"/>
<path d="M92.7392 1.60229C95.1093 1.13318 97.6236 1.4949 99.8297 2.45573C101.258 3.06049 102.491 4.41414 102.435 6.04473C100.936 5.80452 99.4365 5.56996 97.9489 5.28171C97.601 4.61478 96.9986 3.93937 96.1557 4.11741C95.4402 4.1598 95.2762 5.23932 95.8616 5.58692C97.5303 6.62405 99.8127 6.92926 100.899 8.73788C101.631 9.84001 101.097 11.3039 100.211 12.146C99.2471 13.1521 97.765 13.3103 96.4471 13.3216C94.3626 13.2849 92.2103 12.9599 90.3663 11.9341C89.1331 11.2615 88.1828 9.9474 88.2394 8.50333C89.7808 8.83114 91.3449 9.02613 92.8863 9.34264C93.2059 9.95305 93.6556 10.6906 94.4758 10.5352C95.2281 10.6482 95.3638 9.82023 95.4204 9.27199C93.7291 8.05117 91.2883 7.859 90.1202 5.97408C89.2406 4.06937 90.8725 2.00923 92.7392 1.60229Z" fill="#00F0FF"/>
<path d="M46.7033 3.10855C48.0977 2.31162 49.7833 1.98663 51.353 2.3964C53.1461 3.09724 54.3227 5.4315 53.4177 7.22317C53.067 8.05118 52.4306 8.70681 51.8536 9.38222C52.7106 9.59699 53.7401 9.59416 54.3595 10.3233C55.5728 11.5582 55.6548 13.3923 56.4383 14.8674C54.8063 15.8113 53.1433 16.7015 51.5001 17.6256C50.8581 16.7015 50.4791 15.6418 50.1821 14.5651C49.9615 13.9433 49.6985 13.0701 48.915 13.0023C47.9534 13.0758 47.1559 13.706 46.3187 14.1214C46.7656 15.9809 47.4981 17.7584 47.9251 19.6236C46.2112 20.5166 44.5567 21.5198 42.8314 22.3902C41.3607 17.5069 39.7967 12.6519 38.3458 7.76576C41.1005 6.1606 43.909 4.64588 46.7033 3.10855ZM44.4747 8.04553C44.7122 9.13353 45.0403 10.2017 45.391 11.2587C46.4092 10.7698 47.5377 10.312 48.1967 9.34548C48.7991 8.43269 48.0835 6.8897 46.9522 6.92079C46.0415 7.07057 45.2807 7.64141 44.4747 8.04553Z" fill="#00F0FF"/>
<path d="M107.361 4.44526C109.236 5.01893 111.069 5.7226 112.919 6.36975C110.95 9.66201 108.962 12.9458 106.906 16.1844C105.079 15.5287 103.246 14.8872 101.416 14.2429C103.342 10.945 105.407 7.72622 107.361 4.44526Z" fill="#00F0FF"/>
<path d="M114.817 10.4646C116.675 8.96117 119.302 9.46985 121.214 10.5861C123.098 11.6713 125.078 12.9628 126.028 14.9946C126.608 16.2013 126.045 17.5578 125.137 18.4225C123.415 20.1407 121.658 21.8222 119.973 23.5743C118.476 22.5796 116.966 21.6074 115.484 20.5957C115.778 20.217 116.072 19.8355 116.361 19.4512C114.005 19.8666 111.304 18.9567 110.147 16.7637C109.443 14.6188 111.519 12.2563 113.711 12.4315C116.304 12.4767 118.448 14.1751 120.592 15.4298C121.002 14.9551 121.715 14.3051 121.149 13.6608C120.666 12.8299 119.63 13.1154 118.847 13.1097C117.441 12.3326 116.137 11.3746 114.817 10.4646ZM115.58 16.5913C115.572 17.4504 116.296 18.0693 117.11 18.1343C117.88 17.9647 118.525 17.4589 119.031 16.8711C118.329 16.467 117.639 15.9357 116.808 15.8622C116.313 15.9216 115.976 16.337 115.58 16.5913Z" fill="#00F0FF"/>
<path d="M25.2792 17.0661C26.6565 15.6842 28.1753 14.4492 29.5414 13.056C32.4008 17.555 34.9802 22.2263 37.8848 26.6998C36.448 28.0054 35.0678 29.3704 33.6169 30.6618C33.3765 30.3058 33.1361 29.9497 32.8957 29.5964C32.8476 31.6142 31.5693 33.5811 29.6856 34.3356C27.7765 34.9799 25.8618 33.7535 24.7277 32.2896C23.2541 30.5629 22.4566 28.1948 23.0222 25.9481C23.7321 23.7523 25.5592 21.8363 27.9038 21.4746C27.0327 20.0023 26.1559 18.5327 25.2792 17.0661ZM28.4186 23.7919C27.5446 24.0717 27.6436 25.1794 27.7765 25.8944C28.181 27.2198 28.9361 28.5028 30.0448 29.3562C30.9414 29.9158 31.9398 28.7995 31.64 27.9206C31.3119 26.7027 30.6868 25.5751 29.943 24.5634C29.5951 24.1141 29.0464 23.5319 28.4186 23.7919Z" fill="#00F0FF"/>
<path d="M121.325 24.651C124.648 22.7463 128.025 20.9264 131.311 18.9538C132.57 20.3979 133.885 21.7911 135.081 23.2861C134.776 23.5206 134.47 23.758 134.171 23.9982C135.242 24.4476 136.476 24.6115 137.347 25.448C138.532 26.4173 139.59 27.9207 139.078 29.523C138.54 30.6364 137.417 31.2864 136.391 31.8827C134.451 32.9735 132.508 34.0587 130.581 35.1721C129.275 33.7139 127.954 32.267 126.712 30.7551C128.825 29.5569 130.98 28.4209 133.048 27.1464C133.636 26.8722 133.786 26.0018 133.28 25.5779C132.643 24.9901 131.735 25.4084 131.076 25.7249C129.094 26.8157 127.148 27.9715 125.154 29.0454C123.881 27.5759 122.566 26.146 121.325 24.651Z" fill="#00F0FF"/>
<path d="M17.8973 32.3688C17.6428 31.3034 18.166 30.2832 18.562 29.328C19.7301 30.5319 20.901 31.7357 22.0747 32.9396C21.4553 34.0446 20.6351 35.3756 21.2121 36.6642C22.0323 38.3853 23.9159 39.2952 24.8888 40.8834C23.9216 42.514 22.8808 44.1135 21.7862 45.6622C18.9891 43.0509 16.4012 40.2221 13.5899 37.6251C14.6307 36.1103 15.4735 34.4374 16.667 33.0442C17.4137 33.6178 18.0501 34.3215 18.8052 34.8867C18.5252 34.0389 18.1236 33.2335 17.8973 32.3688Z" fill="#00F0FF"/>
<path d="M143.589 38.812C145.099 37.139 147.859 37.0344 149.633 38.3542C152.263 40.3776 153.787 43.6331 154.101 46.8943C154.24 48.5023 153.431 50.1498 152.008 50.9467C151.245 49.3811 150.484 47.8127 149.726 46.2443C150.69 45.2722 150.275 43.1696 148.784 43.0623C147.8 43.1046 147.642 44.2379 147.817 44.9981C148.213 47.1684 148.903 49.5111 147.936 51.6334C146.725 53.7897 143.634 54.157 141.685 52.8006C139.408 51.1954 137.969 48.652 137.078 46.0634C136.549 44.3311 136.263 42.2851 137.268 40.6658C137.618 40.0328 138.201 39.5863 138.741 39.1228C139.564 40.7534 140.339 42.4066 141.159 44.0372C140.956 44.3198 140.752 44.6052 140.551 44.8907C140.472 45.9617 140.769 47.273 141.844 47.759C142.619 48.0671 143.365 47.321 143.368 46.5665C143.379 45.21 142.817 43.9298 142.791 42.5762C142.763 41.2989 142.655 39.8265 143.589 38.812Z" fill="#00F0FF"/>
<path d="M9.66704 45.6989C10.3996 44.5402 11.3188 43.2375 12.7753 43.0086C13.9095 42.7966 14.905 43.4805 15.7959 44.074C17.589 45.3033 19.4189 46.4789 21.246 47.6545C20.5616 49.3105 19.945 50.992 19.2323 52.6367C18.7995 52.3965 18.3668 52.1591 17.9313 51.9273C18.4375 53.4336 18.6977 55.1377 18.0246 56.6383C17.5862 57.7884 16.6189 58.9329 15.2953 58.9725C14.1442 58.9556 12.9535 58.4808 12.221 57.5737C11.5676 56.788 11.4404 55.7226 11.4206 54.7364C11.4969 52.7469 12.3567 50.9156 12.9478 49.0449C13.2052 48.5334 12.5406 48.3242 12.187 48.1858C11.5082 47.9597 11.0501 48.6492 10.9058 49.2116C10.6965 49.887 11.4771 50.5002 11.166 51.1643C10.6371 52.5688 10.046 53.9508 9.50583 55.3524C8.83553 54.7138 8.04361 54.0384 7.94745 53.0521C7.4723 50.4776 8.39714 47.906 9.66704 45.6989ZM14.8541 49.9039C14.5939 50.7941 14.1131 51.7719 14.5119 52.696C14.823 53.216 15.4735 53.1623 15.9911 53.2471C16.2371 52.7356 16.6331 52.2128 16.4775 51.6108C16.3135 50.7743 15.5159 50.3222 14.8541 49.9039Z" fill="#00F0FF"/>
<path d="M141.776 55.9374C147.116 55.943 152.455 55.9543 157.798 55.9374C158.242 57.8138 158.638 59.7072 159 61.6035C157.201 61.6317 155.4 61.578 153.604 61.6374C154.526 62.7932 155.533 63.9858 155.725 65.5118C156.126 66.905 155.589 68.6769 154.121 69.1856C152.501 69.7621 150.739 69.5162 149.05 69.5756C147.599 69.5388 146.14 69.6632 144.695 69.519C144.197 67.6595 143.905 65.752 143.453 63.8812C146.168 63.8106 148.9 64.0649 151.601 63.7088C151.692 63.3075 151.966 62.878 151.72 62.4795C151.42 61.7222 150.521 61.6882 149.831 61.6232C147.537 61.5328 145.24 61.6769 142.947 61.5554C142.599 59.6733 142.175 57.8082 141.776 55.9374Z" fill="#00F0FF"/>
<path d="M148.077 72.4665C150.368 71.9918 152.939 72.6531 154.526 74.4249C155.948 76.0612 156.398 78.3022 156.395 80.416C156.327 82.414 155.716 84.5109 154.302 85.9775C151.652 88.2581 147.017 87.0768 145.461 84.0389C144.327 82.0042 144.392 79.5823 144.584 77.3357C144.822 75.284 145.897 73.0006 148.077 72.4665ZM147.478 78.3163C147.031 78.8363 147.251 79.6558 147.806 80.0034C149.138 80.9614 150.818 81.3797 152.441 81.4305C153.267 81.5521 153.985 80.4951 153.383 79.8339C152.455 78.7459 150.976 78.37 149.621 78.1411C148.917 78.045 148.103 77.8783 147.478 78.3163Z" fill="#00F0FF"/>
<path d="M12.8008 80.8512C13.2788 80.6703 13.7765 80.5488 14.2715 80.4273C14.642 82.2896 15.0719 84.1434 15.5357 85.986C14.7919 86.2403 14.0424 86.489 13.2957 86.7433C13.6945 88.4757 13.9632 90.2532 14.543 91.9403C15.3151 92.2229 16.1325 92.3473 16.9385 92.497C17.5099 94.4498 17.8521 96.4562 18.364 98.4231C12.8432 96.8434 7.29412 95.3654 1.78181 93.7518C1.21899 91.1038 0.565655 88.4728 0 85.8249C4.2707 84.1802 8.53573 82.5185 12.8008 80.8512ZM4.49413 89.4817C4.55635 89.64 4.67797 89.9593 4.74019 90.1176C6.69453 90.3239 8.62907 90.7025 10.5608 91.0586C10.3713 89.9819 10.1167 88.9193 9.83674 87.8652C8.06624 88.4305 6.26746 88.9109 4.49413 89.4817Z" fill="#00F0FF"/>
<path d="M144.064 88.6085C147.743 89.4224 151.383 90.3945 155.046 91.2762C154.526 93.1442 153.898 94.9839 153.23 96.801C150.88 95.8628 148.55 94.8737 146.168 94.0259C146.259 94.3876 146.267 94.82 146.64 95.0263C148.552 96.5015 150.49 97.9484 152.41 99.4179C151.887 101.02 151.33 102.614 150.852 104.231C148.49 103.589 146.273 102.524 143.962 101.741C143.903 101.854 143.79 102.083 143.733 102.199C145.693 103.841 147.967 105.092 149.91 106.768C149.48 108.608 148.759 110.369 148.182 112.166C145.475 109.495 142.845 106.748 140.144 104.072C139.85 103.764 139.53 103.473 139.318 103.106C139.864 101.08 140.622 99.1098 141.258 97.109C143.153 97.7703 144.983 98.5983 146.836 99.3642C147.034 98.5305 146.23 98.1547 145.696 97.711C144.449 96.7501 143.261 95.7158 142.047 94.7154C142.709 92.6751 143.388 90.6432 144.064 88.6085Z" fill="#00F0FF"/>
<path d="M14.1159 105.352C16.4238 104.711 18.7486 104.12 21.0509 103.448C21.9559 105.177 22.8383 106.924 23.7349 108.662C21.4242 109.306 19.0909 109.868 16.8 110.572C16.2371 110.719 15.5046 111.355 16.0024 111.951C16.3955 112.838 17.507 112.612 18.2707 112.48C20.4456 111.917 22.6036 111.284 24.7814 110.727C25.6779 112.454 26.5603 114.186 27.4371 115.924C23.7066 116.899 20.0016 117.982 16.2626 118.928C15.448 117.207 14.4723 115.566 13.7398 113.808C13.9547 113.757 14.3874 113.655 14.6052 113.604C14.6024 113.488 14.5996 113.254 14.5967 113.138C12.9111 112.482 11.5931 111.024 11.0925 109.289C10.985 108.481 10.8945 107.528 11.4517 106.856C12.0965 106.014 13.1317 105.632 14.1159 105.352Z" fill="#00F0FF"/>
<path d="M130.765 116.264C132.117 114.856 133.342 113.327 134.77 111.996C137.717 116.176 140.69 120.336 143.628 124.521C141.725 126.561 139.844 128.619 137.944 130.659C136.773 131.891 135.259 132.999 133.503 133.089C130.483 133.287 127.881 129.913 128.887 127.045C129.611 124.258 132.041 122.523 133.698 120.327C132.711 118.979 131.738 117.62 130.765 116.264ZM133.885 125.185C133.203 126.313 134.086 128.065 135.443 128.031C136.433 127.808 137.013 126.869 137.697 126.202C137.095 125.126 136.351 124.14 135.61 123.159C135.022 123.82 134.352 124.425 133.885 125.185Z" fill="#00F0FF"/>
<path d="M25.3442 118.838C27.406 118.154 29.6912 118.79 31.3882 120.062C33.5518 121.593 35.5344 123.789 35.9134 126.502C35.9417 128.395 34.5276 130.003 32.9805 130.933C31.1817 132.081 28.8229 132.126 26.9082 131.241C24.8407 130.258 23.1126 128.602 21.9926 126.612C21.2234 125.196 20.8472 123.354 21.69 121.887C22.4452 120.438 23.8141 119.372 25.3442 118.838ZM28.6108 123.642C27.4512 124.219 26.2549 124.911 25.5167 126.008C25.1716 126.779 25.9494 127.279 26.5518 127.525C28.4637 127.062 30.1918 126.013 31.4928 124.544C31.3825 124.165 31.4815 123.648 31.0997 123.408C30.3219 122.933 29.3716 123.323 28.6108 123.642Z" fill="#00F0FF"/>
<path d="M118.196 127.867C119.695 126.595 121.35 125.527 122.877 124.292C124.569 127.743 126.051 131.286 127.759 134.728C126.291 135.856 124.795 136.941 123.313 138.043C122.821 137.201 122.385 136.331 121.921 135.475C122 137.289 122.029 139.722 120.12 140.626C119.495 139.14 118.672 137.707 118.256 136.15C119.226 135.237 120.535 134.257 120.236 132.73C119.902 130.998 118.855 129.489 118.196 127.867Z" fill="#00F0FF"/>
<path d="M32.0048 135.958C34.7567 133.287 37.4634 130.574 40.1983 127.887C41.8331 128.927 43.4367 130.018 45.063 131.074C42.4072 133.844 39.5987 136.461 36.909 139.194C35.263 138.128 33.6254 137.054 32.0048 135.958Z" fill="#00F0FF"/>
<path d="M46.8278 131.863C48.2872 132.157 49.6504 132.81 50.9146 133.581C51.6471 134.053 52.3995 134.678 52.5409 135.59C52.5861 136.472 52.1251 137.289 51.5906 137.956C50.5724 139.23 49.5033 140.465 48.536 141.782C49.031 142.048 49.5259 142.311 50.0265 142.576C49.3958 143.376 48.7651 144.176 48.1146 144.958C47.6169 144.71 47.1219 144.461 46.627 144.212C45.9425 145.015 45.2637 145.823 44.5991 146.643C42.8144 145.837 41.0807 144.925 39.3215 144.063C39.9635 143.266 40.614 142.472 41.273 141.689C40.7498 141.355 40.2209 141.042 39.6892 140.728C40.3114 139.971 40.9138 139.196 41.4965 138.408C42.0678 138.654 42.6306 138.939 43.2443 139.075C44.0645 138.224 44.7518 137.261 45.5239 136.368C45.8152 135.975 46.2536 135.571 46.115 135.028C45.8294 134.661 45.4702 134.361 45.1336 134.047C45.7106 133.327 46.2734 132.6 46.8278 131.863Z" fill="#00F0FF"/>
<path d="M109.632 133.245C111.015 133.002 112.619 132.892 113.818 133.768C115.272 134.777 115.92 136.563 116.191 138.241C116.426 140.711 114.978 143.054 112.978 144.407C110.792 145.925 107.961 147.044 105.311 146.145C102.14 144.826 101.162 140.341 103.037 137.594C104.581 135.376 107.084 133.997 109.632 133.245ZM108.139 136.791C107.681 137.179 107.709 137.823 107.684 138.368C107.689 139.852 108.043 141.37 108.829 142.638C109.2 143.404 110.489 143.167 110.597 142.325C110.95 140.626 110.484 138.835 109.709 137.314C109.463 136.735 108.665 136.215 108.139 136.791Z" fill="#00F0FF"/>
<path d="M28.8314 139.097C29.5046 138.388 30.1975 137.699 30.8932 137.009C32.5761 138.021 34.174 139.165 35.8371 140.208C35.1385 140.909 34.5106 141.7 33.6989 142.279C32.0359 141.285 30.4549 140.152 28.8314 139.097Z" fill="#00F0FF"/>
<path d="M53.6694 139.759C54.6056 138.594 55.8755 137.594 57.4027 137.413C59.8407 137.159 62.3126 137.868 64.4423 139.024C65.8112 139.815 66.9142 141.265 66.7926 142.915C66.7247 145.549 64.8807 148.081 62.3946 148.963C59.8124 149.757 57.0266 149.087 54.6763 147.903C53.4743 147.265 52.2637 146.281 52.0035 144.871C51.8197 144.164 51.9809 143.438 52.0686 142.734C53.7401 143.246 55.4031 143.786 57.0775 144.303C56.9813 144.769 56.8371 145.235 56.8597 145.722C57.0746 146.021 57.3716 146.256 57.6912 146.439C59.3627 146.047 60.1462 144.32 60.8363 142.921C61.1078 142.141 61.7017 141.155 61.0795 140.395C60.1518 139.694 59.275 140.779 58.6443 141.361C56.9926 140.804 55.3183 140.321 53.6694 139.759Z" fill="#00F0FF"/>
<path d="M91.9359 141.225C92.8947 139.829 94.405 138.789 96.1444 138.767C97.485 138.589 98.7804 139.363 99.4337 140.513C100.684 142.616 100.721 145.334 99.7194 147.547C98.4975 150.407 94.784 151.905 91.9303 150.647C91.9331 152.368 91.9473 154.089 91.8794 155.81C89.9194 156.203 87.9594 156.59 86.0051 157C86.0051 151.701 86.3105 146.397 86.1351 141.101C88.0357 140.575 89.9901 140.284 91.919 139.877C91.9246 140.324 91.9303 140.773 91.9359 141.225ZM92.8382 142.407C92.1283 142.757 91.984 143.619 91.885 144.326C91.7436 145.507 91.6503 146.747 92.0264 147.898C92.2697 148.711 93.4971 148.61 93.8846 147.971C94.7133 146.739 94.5634 145.162 94.4729 143.755C94.4757 142.946 93.7178 141.904 92.8382 142.407Z" fill="#00F0FF"/>
<path d="M70.311 140.417C72.2314 140.417 74.1518 140.505 76.0722 140.615C76.0637 141.076 76.0552 141.539 76.0467 142.005C77.6645 140.553 80.0685 140.231 82.0879 140.946C83.4992 141.454 83.898 143.252 83.5416 144.566C82.8289 147.12 82.1558 149.686 81.4176 152.235C79.452 152.103 77.4835 151.987 75.5178 151.885C76.1316 149.607 76.7877 147.341 77.3788 145.057C77.5938 144.472 77.458 143.514 76.6746 143.503C75.778 143.413 75.3594 144.354 75.1247 145.057C74.4657 147.267 73.917 149.511 73.2722 151.727C71.3009 151.653 69.3324 151.515 67.3667 151.393C68.368 147.742 69.4738 144.114 70.311 140.417Z" fill="#00F0FF"/>
<path d="M3.73617 64.9466C4.91556 65.0935 6.08929 65.2885 7.27151 65.4072C8.32363 65.6333 10.0234 65.8933 11.101 65.9696C10.9907 65.6361 10.9228 65.2348 10.5127 65.1557C8.31515 64.2485 6.11758 63.3329 3.9596 62.3325C4.15475 60.4476 4.28768 58.5542 4.60162 56.6834C8.13414 59.0374 11.743 61.2756 15.2472 63.6692C14.9475 65.7435 14.7947 67.8375 14.5685 69.9203C12.5887 69.6462 10.6202 69.2873 8.65737 68.8945C8.70828 69.2081 8.59797 69.6236 9.00242 69.7338C10.7559 70.6522 12.5717 71.4491 14.263 72.4863C14.0735 74.6114 13.9038 76.7422 13.5899 78.8532C9.81979 78.7147 6.03838 78.743 2.27961 78.4943C2.44365 76.6037 2.64728 74.7131 2.90183 72.831C5.38505 73.1504 7.84848 73.6138 10.3176 74.0208C10.2667 73.611 10.1479 73.1984 9.70666 73.0741C7.51474 72.0426 5.30021 71.0563 3.11678 70.0022C3.39678 68.3264 3.42789 66.6195 3.73617 64.9466Z" fill="#00F0FF"/>
</g>
</svg>
