<svg width="174" height="76" viewBox="0 0 174 76" fill="none" xmlns="http://www.w3.org/2000/svg">
<path d="M75.3978 20.6931C76.7346 20.6901 78.0684 20.6147 79.4052 20.6244C81.8033 20.6214 84.1991 20.5565 86.5972 20.5624C89.043 20.5512 91.4888 20.5662 93.9345 20.5699C95.7778 20.6259 97.6233 20.6095 99.468 20.6333C102.494 20.7065 105.522 20.7371 108.548 20.8393C117.718 21.0856 126.882 21.5215 136.031 22.1581C136.859 22.2745 137.697 22.288 138.53 22.3671C139.387 22.4156 140.241 22.5156 141.1 22.5358C141.353 22.5447 141.609 22.5522 141.864 22.5828C142.569 22.7171 143.291 22.7179 144.004 22.7925C146.097 22.9575 148.188 23.147 150.279 23.3373C150.694 23.3762 151.11 23.4269 151.529 23.4224H151.548C156.802 23.9113 162.05 24.4852 167.289 25.1211C168.553 25.2719 169.813 25.457 171.08 25.5801C170.927 26.0033 170.675 26.3817 170.476 26.7839C168.649 30.235 166.822 33.6854 164.992 37.135C164.886 37.3536 164.712 37.5611 164.742 37.8179C164.749 41.1301 164.686 44.4409 164.692 47.7532C164.68 51.2602 164.67 54.7673 164.659 58.2744C164.646 58.7789 164.685 59.2864 164.622 59.7894C112.912 59.7857 61.2008 59.7894 9.49065 59.7879C9.48838 52.5163 9.50201 45.2447 9.50806 37.9739C9.52472 37.7559 9.37559 37.5775 9.28627 37.391C7.19703 33.4659 5.11536 29.5372 3.02612 25.6129C6.07444 25.2293 9.13109 24.9054 12.1862 24.5793C13.2937 24.4658 14.3989 24.333 15.5093 24.2486C16.2716 24.2016 17.0293 24.1068 17.7893 24.0359C18.3419 23.9792 18.8968 23.9426 19.4448 23.8493C20.4811 23.7553 21.5174 23.6605 22.5545 23.565H22.5741C23.5317 23.5486 24.4825 23.4015 25.4378 23.3426C25.9654 23.2903 26.4983 23.2791 27.0198 23.1761C37.0028 22.329 47.0023 21.6954 57.0125 21.2588C57.712 21.1998 58.4167 21.2319 59.1162 21.1662C61.0093 21.1088 62.901 21.005 64.7957 20.9722C65.7026 20.8983 66.6139 20.9386 67.5208 20.8692C68.5094 20.8349 69.5003 20.8543 70.4881 20.7901C72.1255 20.7751 73.7605 20.7013 75.3978 20.6931ZM82.4097 26.6802C82.6436 27.0549 82.9214 27.4012 83.178 27.7617C84.0985 29.0192 85.0083 30.285 85.9356 31.5367C85.9591 31.5322 86.006 31.5232 86.0295 31.5187C87.2081 29.9096 88.3882 28.2998 89.5509 26.6795C87.171 26.6727 84.7896 26.6713 82.4097 26.6802ZM104.126 33.057C102.89 33.2383 101.715 33.9623 101.118 35.0601C100.842 35.5609 100.699 36.1319 100.712 36.7021C100.712 41.6794 100.712 46.6568 100.712 51.6342C100.695 52.6357 101.188 53.6075 101.954 54.2531C103.112 55.2621 104.828 55.5316 106.278 55.0539C107.356 54.7016 108.306 53.9023 108.719 52.8462C108.945 52.2962 108.966 51.6939 108.951 51.108C108.951 46.2829 108.952 41.457 108.951 36.6312C108.945 35.6012 108.428 34.6056 107.617 33.9645C106.658 33.1838 105.347 32.8636 104.126 33.057ZM31.5874 33.0599C30.7358 33.2323 29.9311 33.6548 29.3369 34.2839C28.7631 34.8944 28.3899 35.7109 28.4036 36.5521C28.4005 41.5779 28.4021 46.6046 28.4028 51.6304C28.3793 52.5111 28.7752 53.3724 29.3967 53.9941C30.1908 54.8091 31.3399 55.2502 32.4791 55.2524C33.6395 55.2651 34.8174 54.8225 35.6251 53.9904C36.2443 53.3694 36.6364 52.5096 36.6167 51.6319C36.6182 46.6053 36.619 41.5787 36.6167 36.5521C36.6288 35.3669 35.8999 34.2593 34.8969 33.6436C33.9287 33.0204 32.7122 32.8532 31.5874 33.0599ZM50.5707 34.2466C49.9409 34.8765 49.5715 35.7423 49.5632 36.6275C49.5602 41.5779 49.5639 46.5292 49.5617 51.4797C49.5685 52.0491 49.6775 52.6268 49.956 53.1313C50.6472 54.4217 52.1278 55.2173 53.5925 55.2039C54.0725 55.2338 54.5342 55.0934 54.996 54.9875C54.8764 54.0523 54.7605 53.1171 54.6311 52.1835C54.2087 52.2499 53.7447 52.1693 53.4381 51.8566C53.1845 51.6312 53.1119 51.2804 53.1217 50.9572C53.1353 50.0377 53.105 49.1175 53.1505 48.1987C53.1611 44.3969 53.1641 40.5943 53.1777 36.7924C53.1656 36.4812 53.3988 36.2311 53.6576 36.0878C53.9824 36.0169 54.3132 35.9632 54.647 35.9968C54.7787 35.0445 54.8907 34.0877 54.9558 33.1293L54.8748 33.2726L54.8801 33.1965C54.4774 33.1331 54.0853 32.9935 53.6735 32.998C52.5275 32.9861 51.3761 33.4383 50.5707 34.2466ZM73.4706 33.8346C72.7462 34.3601 72.2034 35.1467 72.0429 36.0244C71.9491 36.7454 71.9741 37.4731 71.9983 38.1963C71.9355 38.9934 72.0172 39.7919 71.9771 40.5883C72.0164 41.7071 71.9559 42.8258 71.9975 43.9446C71.968 44.3655 71.968 44.7872 71.9975 45.2089C71.943 46.9501 72.0028 48.6951 71.9756 50.4363C71.9809 50.9087 71.9582 51.3819 72.0036 51.8528C72.0286 52.6447 72.4017 53.3978 72.9422 53.9732C73.7431 54.8076 74.9096 55.2838 76.0731 55.2688C77.3122 55.3002 78.5673 54.7777 79.3772 53.8456C79.9109 53.2388 80.2311 52.4402 80.2137 51.6327C80.2137 46.6053 80.216 41.5779 80.2129 36.5506C80.2129 35.0989 79.1244 33.822 77.7899 33.3115C76.3857 32.7502 74.6878 32.9346 73.4706 33.8346ZM157.625 35.0236C157.305 35.5781 157.182 36.2244 157.198 36.8573C157.201 41.6093 157.199 46.3605 157.199 51.1117C157.179 51.7297 157.225 52.3671 157.493 52.9358C158.078 54.2307 159.451 55.0763 160.862 55.1994C161.462 55.3024 162.055 55.1255 162.633 54.9897C162.507 54.056 162.4 53.1194 162.265 52.1872C161.807 52.2633 161.3 52.1506 161.001 51.7819C160.668 51.414 160.775 50.8886 160.761 50.4385C160.749 48.0726 160.802 45.7075 160.798 43.3415C160.805 41.1563 160.804 38.9717 160.815 36.7864C160.808 36.3476 161.239 36.0572 161.638 35.9886C161.856 35.996 162.076 36.0035 162.297 36.0072C162.345 35.646 162.413 35.2848 162.385 34.9191C162.448 34.3578 162.506 33.7958 162.571 33.2346C161.991 33.0726 161.387 32.9375 160.781 33.0271C159.499 33.1756 158.255 33.8921 157.625 35.0236ZM142.762 33.8615C141.874 34.4907 141.244 35.5281 141.266 36.6252C141.263 41.3272 141.266 46.0299 141.265 50.7318C141.273 51.467 141.191 52.2387 141.52 52.9253C142.335 54.8106 144.758 55.7286 146.679 55.0203C146.57 54.0941 146.427 53.1724 146.332 52.2447C145.68 52.37 144.845 51.9737 144.828 51.252C144.825 48.3241 144.842 45.3955 144.842 42.4676C145.244 42.4056 145.649 42.4833 146.053 42.4332C146.131 41.4346 146.251 40.4398 146.305 39.4397C145.82 39.4419 145.335 39.4479 144.851 39.4471C144.856 38.5806 144.85 37.7149 144.859 36.8484C144.851 36.4468 145.206 36.1505 145.573 36.0528C145.827 36.055 146.083 36.0528 146.339 36.0498C146.443 35.4751 146.473 34.8907 146.548 34.3116C146.568 33.9608 146.672 33.6107 146.612 33.2585C146.214 33.1838 145.823 33.0517 145.415 33.057C144.471 33.0189 143.524 33.3144 142.762 33.8615ZM109.932 33.3241C109.916 33.4794 109.898 33.6339 109.899 33.7906C109.901 35.8811 109.898 37.9716 109.9 40.0621C109.899 43.5946 109.899 47.1277 109.9 50.6602C109.898 50.9587 109.898 51.2572 109.9 51.5558C109.899 52.3521 109.899 53.1477 109.9 53.9441C109.898 54.2553 109.889 54.568 109.926 54.8785C111.05 54.8695 112.173 54.8673 113.296 54.8621C113.381 54.1344 113.26 53.4045 113.329 52.676C113.287 51.0602 113.312 49.4429 113.305 47.8263C113.315 46.98 113.262 46.1306 113.383 45.2895C113.391 45.894 113.566 46.4769 113.665 47.0695C114.035 48.9585 114.386 50.852 114.767 52.7387C114.878 53.7359 115.13 54.7136 115.303 55.7025C115.507 55.2173 115.53 54.6852 115.646 54.1769C115.741 53.5418 115.927 52.9186 115.961 52.276C116.411 49.9482 116.84 47.6144 117.268 45.282C117.307 48.4622 117.289 51.6439 117.299 54.8248C117.46 54.8464 117.622 54.8621 117.786 54.8598C118.809 54.8598 119.832 54.8666 120.855 54.8681C120.861 47.6875 120.862 40.5069 120.855 33.3264C120.183 33.3241 119.511 33.3264 118.84 33.3249C118.553 33.3249 118.263 33.301 117.984 33.3712C117.41 33.4809 116.887 33.9063 116.745 34.4765C116.267 36.9566 115.853 39.4501 115.352 41.9257C115.343 41.9862 115.326 42.1071 115.317 42.1675C114.87 39.7718 114.389 37.3813 113.93 34.9877C113.855 34.6213 113.824 34.2183 113.563 33.9242C113.215 33.4876 112.632 33.345 112.094 33.3271C111.374 33.3212 110.652 33.3294 109.932 33.3241ZM37.5887 33.3719C37.5902 40.5465 37.5932 47.7203 37.5955 54.8942C38.7476 54.8949 39.8989 54.8904 41.0503 54.8792C41.051 52.2029 41.0488 49.5265 41.048 46.8501C41.0495 46.3321 41.0336 45.8134 41.0874 45.2977C41.1071 45.5209 41.123 45.7455 41.1699 45.9664C41.8126 49.2175 42.4143 52.476 43.0676 55.7249C43.5112 53.244 43.9881 50.7684 44.4453 48.2905C44.6133 47.2927 44.8472 46.3045 44.9812 45.3022C45.0357 46.8382 45.0024 48.3756 45.0198 49.9123C45.01 51.5491 45.069 53.1836 45.0592 54.8203C46.2325 54.8203 47.4066 54.8195 48.5806 54.821C48.5806 47.6703 48.5814 40.5196 48.5799 33.3689C47.8797 33.3697 47.1802 33.3704 46.48 33.3689C46.1538 33.3689 45.8162 33.3376 45.5043 33.4555C44.9752 33.6249 44.5301 34.075 44.4453 34.6273C44.1137 36.4327 43.7807 38.2388 43.4484 40.0442C43.1433 40.5562 43.3144 41.2234 42.9563 41.71C42.4991 39.3449 42.0359 36.9805 41.5794 34.6153C41.484 33.8212 40.6514 33.3368 39.8906 33.3712C39.123 33.3674 38.3562 33.3682 37.5887 33.3719ZM55.485 33.2622C55.4547 33.8899 55.5909 34.5108 55.6364 35.1355C55.6909 35.4766 55.6583 35.8341 55.7915 36.1595C56.2094 36.1565 56.6272 36.1595 57.0458 36.1602C57.0534 42.3959 57.0337 48.6316 57.0383 54.8673C58.2237 54.8688 59.4091 54.8681 60.5945 54.8658C60.6059 48.6286 60.5983 42.3915 60.6074 36.155C61.026 36.1505 61.4454 36.1565 61.8647 36.149C61.9124 35.2199 62.0365 34.2959 62.0646 33.3659C59.8777 33.3674 57.6908 33.3622 55.5039 33.3682L55.485 33.2622ZM81.2454 33.3734C81.2432 40.5472 81.2454 47.7211 81.2439 54.8949C82.0175 54.8934 82.7912 54.8994 83.5656 54.8934C84.05 54.8942 84.5526 54.6852 84.8297 54.2814C85.0734 53.9448 85.1355 53.5261 85.215 53.1306C85.5549 51.4446 85.8948 49.7586 86.2361 48.0726C86.3815 47.2494 86.6108 46.4389 86.6941 45.6059C86.76 46.4441 86.7214 47.286 86.7342 48.1256C86.7244 48.9951 86.7509 49.8646 86.7607 50.7341C86.7668 52.1081 86.7592 53.4813 86.7736 54.8554C87.9393 54.8516 89.1058 54.8636 90.2716 54.8486C90.2761 47.6875 90.2625 40.5256 90.2655 33.3644C89.719 33.304 89.1679 33.3435 88.6198 33.3324C88.0476 33.3443 87.4284 33.3025 86.9136 33.5943C86.5011 33.8257 86.2679 34.2698 86.193 34.7191C85.8115 36.7282 85.4338 38.7374 85.0575 40.7473C84.8365 40.4077 84.9122 39.9964 84.9039 39.6158C84.9016 37.5604 84.9167 35.505 84.9046 33.4495C84.8812 33.4309 84.8335 33.3943 84.81 33.3756C83.6216 33.3704 82.4331 33.3741 81.2454 33.3734ZM91.2571 33.3764C91.2579 40.536 91.2533 47.6965 91.2594 54.8561C92.4471 54.8598 93.6348 54.8569 94.8225 54.8576C94.8308 53.0343 94.8179 51.211 94.8179 49.3877C94.8262 47.5211 94.7854 45.6537 94.8308 43.7879C94.8588 44.0633 94.8913 44.3387 94.9496 44.6103C95.5416 48.0301 96.0972 51.4573 96.699 54.8755C98.0116 54.8725 99.3242 54.8792 100.637 54.8718C99.6421 49.7198 98.6694 44.5641 97.6732 39.4128C97.9828 39.4076 98.2924 39.4068 98.6028 39.4113C98.8026 38.806 98.9411 38.1828 99.1168 37.5701C99.4824 36.1707 99.8942 34.7825 100.23 33.3771C98.9381 33.3727 97.6452 33.3719 96.3531 33.3779C95.9375 35.0407 95.4977 36.6976 95.0798 38.3605C95.0405 38.359 94.9625 38.3552 94.9231 38.3537C94.8823 36.7185 94.9322 35.0825 94.8989 33.4473C94.8747 33.4294 94.8278 33.3936 94.8035 33.3749C93.6212 33.3719 92.4395 33.3734 91.2571 33.3764ZM133.168 33.363L133.168 33.3809C133.045 33.6473 133.051 33.9436 133.014 34.2287C132.968 34.6273 132.885 35.0243 132.907 35.4281C132.667 37.4014 132.417 39.374 132.193 41.3481C132.084 41.7078 132.07 42.0855 132.02 42.4556C131.981 42.8004 131.912 43.1445 131.926 43.4938C131.759 44.885 131.572 46.2747 131.427 47.6681C131.265 48.2025 131.276 48.7682 131.184 49.3168C131.116 50.0855 130.95 50.8475 130.939 51.62C130.795 52.685 130.689 53.7553 130.539 54.8195C131.772 54.8285 133.007 54.8225 134.242 54.8195C134.373 53.3388 134.543 51.861 134.65 50.3781C134.788 49.9616 134.738 49.519 134.797 49.0914C135.037 46.0314 135.271 42.9721 135.511 39.9121C135.52 39.574 135.592 39.2367 135.544 38.8986C135.608 38.5112 135.614 38.1179 135.65 37.7276C135.881 40.3726 136.093 43.0184 136.315 45.6642C136.301 46.3605 136.412 47.0531 136.456 47.748C136.62 49.9415 136.846 52.1305 137.056 54.321C137.086 54.4994 137.023 54.7255 137.183 54.8583V54.8606C138.435 54.8479 139.687 54.8561 140.939 54.8561C140.952 54.7262 140.955 54.5941 140.94 54.4643C140.827 53.6455 140.724 52.8246 140.618 52.0051C140.572 51.6289 140.491 51.2535 140.524 50.8729C140.503 50.9893 140.48 51.1057 140.469 51.2244C140.445 50.8505 140.389 50.4796 140.33 50.1109C140.351 49.6922 140.25 49.2824 140.209 48.869C139.98 47.0777 139.745 45.2873 139.513 43.496C139.465 43.1654 139.456 42.8258 139.342 42.5079C139.075 40.245 138.757 37.9873 138.475 35.7259C138.39 35.1587 138.384 34.5392 138.029 34.0563C137.62 33.5242 136.899 33.3816 136.26 33.3667C135.23 33.3637 134.199 33.3741 133.168 33.363ZM14.5714 33.354C14.5283 33.6406 14.4889 33.9279 14.473 34.2168C14.4428 34.313 14.4163 34.4101 14.3943 34.5086C13.8735 38.8217 13.3489 43.1348 12.8259 47.4479C12.7789 47.7838 12.7358 48.1219 12.7411 48.4622C12.6048 49.5198 12.4618 50.5788 12.3618 51.6409L12.3656 51.5222C12.2059 52.27 12.1681 53.0373 12.0606 53.7933C12.0258 54.1516 11.9334 54.5083 11.9735 54.8703C13.196 54.8621 14.4185 54.8666 15.641 54.8651C15.7167 54.3053 15.7682 53.7418 15.8 53.1783L15.7992 53.3097C15.8765 53.0052 15.903 52.6932 15.9234 52.3812C15.9862 51.7312 16.0513 51.0804 16.1058 50.4296L16.0445 50.4034C16.7364 50.3893 17.4275 50.4004 18.1194 50.3997C18.2723 51.8909 18.3949 53.3858 18.5675 54.8755C19.8278 54.8688 21.0882 54.883 22.3486 54.8681C22.3516 54.8852 22.3592 54.9203 22.3629 54.9375C22.3652 54.8016 22.3637 54.6665 22.3523 54.5322C21.5098 48.0077 20.6651 41.4824 19.8241 34.9579C19.7953 34.8094 19.7469 34.6653 19.6908 34.525C19.5031 33.7615 18.6841 33.3577 17.9377 33.3562C16.8159 33.3488 15.6933 33.3547 14.5714 33.354ZM62.739 34.987C62.742 35.1116 62.7428 35.2363 62.7398 35.3617C62.7451 39.1919 62.7367 43.0221 62.7405 46.8531C62.7405 47.9972 62.7405 49.1414 62.7413 50.2855C62.7489 51.5528 62.7186 52.8216 62.7632 54.0881C62.7443 54.3687 62.7239 54.6516 62.7746 54.9307C63.9381 54.9061 65.1053 54.971 66.2665 54.8979C66.2627 53.45 66.2627 52.0021 66.2665 50.5542C67.4784 50.5497 68.7478 50.2915 69.7251 49.5474C70.4987 48.9734 70.9885 48.0375 70.9794 47.0792C70.9771 43.6707 70.9786 40.2621 70.9786 36.8536C70.9877 36.1416 70.7288 35.4333 70.2769 34.8795C69.6078 34.0668 68.5828 33.607 67.548 33.4577C67.0151 33.3667 66.4732 33.4047 65.9365 33.398C64.8812 33.3973 63.8268 33.3988 62.7716 33.3965C62.7103 33.9249 62.7542 34.4571 62.739 34.987ZM121.846 33.4018C121.839 40.5435 121.848 47.686 121.843 54.8278C121.977 54.8449 122.114 54.8613 122.253 54.8606C123.298 54.8569 124.344 54.8591 125.389 54.8561C125.403 48.6458 125.388 42.4355 125.397 36.2252C125.755 36.2229 126.115 36.2244 126.475 36.2222C126.496 37.0551 126.498 37.8865 126.478 38.7194C126.479 39.3665 126.512 40.0121 126.476 40.6592C126.49 41.3309 126.462 42.0034 126.494 42.6751C126.44 43.2729 126.529 43.8714 126.48 44.4693C126.451 45.088 126.537 45.706 126.482 46.3247C126.505 47.7188 126.465 49.1145 126.477 50.5109C126.464 50.9632 126.526 51.4155 126.492 51.8685C126.448 52.4081 126.527 52.9485 126.477 53.4888C126.508 53.9448 126.451 54.4031 126.51 54.8576C127.705 54.8554 128.901 54.8576 130.096 54.8569C130.106 47.7047 130.103 40.5525 130.097 33.4003C127.346 33.4003 124.596 33.3973 121.846 33.4018ZM147.642 33.4465C147.639 40.598 147.644 47.7494 147.639 54.9009C148.827 54.9628 150.02 54.9121 151.21 54.9278C151.215 52.9828 151.204 51.0378 151.204 49.0929C151.211 47.3472 151.175 45.6007 151.215 43.8558C151.246 44.111 151.268 44.3678 151.32 44.6208C151.921 48.0577 152.47 51.5043 153.085 54.939C154.382 54.9345 155.681 54.9404 156.978 54.936C156.019 49.7825 155.027 44.635 154.059 39.483C154.369 39.48 154.678 39.48 154.99 39.4815C155.189 38.8389 155.345 38.1836 155.525 37.5357C155.887 36.1722 156.276 34.8153 156.617 33.4473C155.324 33.4436 154.031 33.4428 152.739 33.4473C152.234 35.452 151.688 37.4469 151.212 39.4576C151.172 37.4544 151.204 35.4512 151.193 33.448C150.009 33.4398 148.826 33.4451 147.642 33.4465ZM21.5765 33.4301C21.6204 34.3601 21.7506 35.284 21.8467 36.2095C22.2683 36.2125 22.6907 36.2088 23.1139 36.2155C23.1176 42.4355 23.1123 48.6555 23.1192 54.8755C24.3023 54.8755 25.4854 54.8785 26.6686 54.8733C26.6716 48.651 26.6678 42.4288 26.6701 36.2058C27.0789 36.2058 27.4884 36.205 27.8972 36.2065C28.0016 35.2833 28.0546 34.3556 28.1341 33.4301C25.948 33.4264 23.7626 33.4279 21.5765 33.4301Z" fill="#00F0FF"/>
<path d="M32.2777 35.8617C32.6479 35.7221 33.1399 35.9849 33.1233 36.3998C33.1293 41.5026 33.1225 46.6046 33.1263 51.7073C33.1323 51.8805 33.1089 52.0685 32.9711 52.1917C32.7205 52.4656 32.2391 52.4514 32.006 52.1626C31.8795 52.0432 31.8856 51.8625 31.8826 51.7043C31.8856 46.6031 31.8795 41.5011 31.8856 36.3998C31.8667 36.1535 32.0521 35.9423 32.2777 35.8617Z" fill="#00F0FF"/>
<path d="M75.4865 36.3267C75.5214 36.0491 75.8045 35.8513 76.0778 35.8483C76.4199 35.8289 76.7613 36.1312 76.7227 36.4797C76.7235 41.5795 76.7227 46.6785 76.7227 51.7782C76.7628 52.1275 76.4229 52.4328 76.0793 52.4134C75.7772 52.4141 75.4835 52.1745 75.4752 51.8678C75.4199 51.1423 75.5183 50.4154 75.4563 49.6892C75.4578 49.5646 75.4578 49.4399 75.4585 49.316C75.4578 48.5451 75.4578 47.7748 75.457 47.0039C75.5146 45.9597 75.4139 44.9141 75.4729 43.8692C75.4124 42.6751 75.5274 41.4802 75.4585 40.2868C75.4555 39.4904 75.4601 38.6941 75.457 37.8978C75.4585 37.7731 75.4593 37.6485 75.457 37.5246C75.4714 37.1253 75.4252 36.723 75.4865 36.3267Z" fill="#00F0FF"/>
<path d="M104.194 36.4761C104.152 36.0312 104.712 35.7081 105.097 35.9223C105.352 36.0208 105.461 36.294 105.456 36.5485C105.463 37.3709 105.456 38.1941 105.458 39.0174C105.457 39.2905 105.458 39.5644 105.458 39.8383C105.459 40.2615 105.458 40.6847 105.458 41.1086C105.46 43.9439 105.456 46.7793 105.46 49.6147C105.442 50.1871 105.449 50.7588 105.46 51.332C105.452 51.6693 105.521 52.1171 105.175 52.3224C104.807 52.5814 104.191 52.3224 104.196 51.8582C104.19 46.7308 104.195 41.6034 104.194 36.4761Z" fill="#00F0FF"/>
<path d="M66.267 36.0304C66.5425 36.0528 66.8438 36.0647 67.0701 36.2461C67.3305 36.4334 67.4244 36.7655 67.4115 37.0708C67.4115 40.2816 67.4115 43.4923 67.4123 46.7023C67.4198 47.0233 67.3494 47.3935 67.0656 47.589C66.8354 47.7592 66.5349 47.7174 66.267 47.7121C66.2609 43.8185 66.2617 39.9241 66.267 36.0304Z" fill="#00F0FF"/>
<path d="M17.1732 38.2255C17.1891 38.371 17.208 38.5173 17.2208 38.6636C17.2572 39.13 17.3102 39.5957 17.3155 40.0652C17.4108 41.8833 17.5865 43.6969 17.7099 45.5142C17.7628 46.0434 17.7613 46.5785 17.859 47.1032C17.8885 47.2801 17.893 47.4592 17.9044 47.6383C17.3616 47.6428 16.8181 47.6383 16.2754 47.6413C16.3375 47.3323 16.364 47.0181 16.3852 46.7047C16.4942 45.4896 16.6047 44.2746 16.7129 43.0595C16.8704 41.4489 16.9779 39.8331 17.1732 38.2255Z" fill="#00F0FF"/>
<path d="M136.031 22.1583C136.333 22.1112 136.637 22.1575 136.938 22.1881C137.847 22.2396 138.753 22.3254 139.662 22.3799C140.139 22.4516 140.634 22.3904 141.1 22.5359C140.241 22.5158 139.387 22.4157 138.53 22.3672C137.697 22.2881 136.859 22.2747 136.031 22.1583Z" fill="#81AC98"/>
<path d="M141.864 22.5828C142.292 22.553 142.716 22.6358 143.143 22.6567C145.391 22.8358 147.638 23.0277 149.883 23.2374C150.431 23.3045 150.993 23.2851 151.53 23.4225C151.11 23.4269 150.695 23.3762 150.279 23.3374C148.189 23.1471 146.098 22.9575 144.005 22.7926C143.292 22.7179 142.57 22.7172 141.864 22.5828Z" fill="#73A88E"/>
<path d="M25.9617 23.2344C26.3129 23.1971 26.6656 23.1561 27.0199 23.1762C26.4984 23.2792 25.9654 23.2904 25.4378 23.3426C24.4825 23.4016 23.5318 23.5486 22.5742 23.5651C22.6991 23.5345 22.8255 23.5053 22.9542 23.4912C23.9572 23.4121 24.9579 23.3061 25.9617 23.2344Z" fill="#7AAD94"/>
<path d="M16.3442 24.1151C17.1829 24.0262 18.0239 23.9538 18.8627 23.8591C19.0557 23.8404 19.2502 23.8426 19.4448 23.8494C18.8967 23.9427 18.3419 23.9792 17.7893 24.0359C17.0293 24.1068 16.2715 24.2016 15.5093 24.2487C15.7712 24.1263 16.0641 24.1479 16.3442 24.1151Z" fill="#97C0AC"/>
<path d="M54.8752 33.2727L54.9562 33.1294C54.8911 34.0877 54.779 35.0445 54.6473 35.9968C54.3135 35.9633 53.9827 36.017 53.658 36.0879C53.9441 35.914 54.2893 35.9304 54.6125 35.9297C54.6821 35.0423 54.8297 34.1623 54.8752 33.2727Z" fill="#81AF99"/>
<path d="M146.612 33.2585C146.672 33.6108 146.568 33.9609 146.548 34.3116C146.473 34.8908 146.443 35.4752 146.339 36.0499C146.083 36.0529 145.827 36.0551 145.573 36.0529C145.805 35.9767 146.051 35.9842 146.294 35.9879C146.411 35.0796 146.472 34.1646 146.612 33.2585Z" fill="#689E84"/>
<path d="M55.4851 33.2623L55.504 33.3683C55.6213 34.296 55.7288 35.2267 55.7916 36.1596C55.6584 35.8342 55.691 35.4767 55.6365 35.1356C55.591 34.511 55.4548 33.89 55.4851 33.2623Z" fill="#679D82"/>
<path d="M84.8105 33.3757C84.834 33.3944 84.8817 33.431 84.9052 33.4496C84.9173 35.505 84.9021 37.5605 84.9044 39.6159C84.9127 39.9965 84.837 40.4078 85.0581 40.7473C84.9846 41.172 84.8908 41.5922 84.8295 42.0191C84.7954 41.3668 84.8113 40.7138 84.8083 40.0615C84.8083 37.8329 84.8113 35.6043 84.8105 33.3757Z" fill="#216041"/>
<path d="M94.8037 33.3751C94.8279 33.3938 94.8748 33.4296 94.8991 33.4475C94.9324 35.0828 94.8824 36.7187 94.9233 38.354C94.9626 38.3555 95.0406 38.3592 95.08 38.3607C94.9944 38.7048 94.8968 39.0458 94.8196 39.3914C94.7848 37.3867 94.8143 35.3805 94.8037 33.3751Z" fill="#1F603F"/>
<path d="M133.014 34.2288C133.051 33.9437 133.045 33.6474 133.168 33.381C133.103 34.0654 133.037 34.752 132.907 35.4282C132.885 35.0244 132.968 34.6274 133.014 34.2288Z" fill="#70A28A"/>
<path d="M14.3944 34.5089C14.4163 34.4103 14.4428 34.3133 14.4731 34.217C14.4262 35.0052 14.296 35.7859 14.212 36.5703C13.7994 39.9736 13.3861 43.3761 12.9736 46.7795C12.9016 47.3415 12.8547 47.9064 12.7412 48.4625C12.7359 48.1221 12.779 47.784 12.8259 47.4482C13.349 43.1351 13.8736 38.822 14.3944 34.5089Z" fill="#85B59E"/>
<path d="M115.343 55.3391C115.594 54.3271 115.702 53.2859 115.961 52.2761C115.927 52.9187 115.741 53.5419 115.646 54.1771C115.53 54.6853 115.507 55.2175 115.303 55.7026C115.13 54.7137 114.878 53.736 114.767 52.7389C115.015 53.5934 115.062 54.4935 115.343 55.3391Z" fill="#85B59E"/>
<path d="M19.6914 34.5251C19.7474 34.6655 19.7959 34.8095 19.8246 34.958C20.6656 41.4825 21.5104 48.0078 22.3529 54.5323C22.3643 54.6667 22.3658 54.8018 22.3635 54.9376C22.3597 54.9204 22.3522 54.8854 22.3491 54.8682C22.2439 54.3659 22.2076 53.8539 22.1334 53.3471C21.3166 47.0734 20.5248 40.7967 19.6914 34.5251Z" fill="#87B19D"/>
<path d="M162.253 35.926C162.277 35.5879 162.318 35.2513 162.386 34.9192C162.414 35.2849 162.345 35.6461 162.298 36.0074C162.077 36.0036 161.856 35.9962 161.638 35.9887C161.841 35.9529 162.046 35.9402 162.253 35.926Z" fill="#6BA086"/>
<path d="M17.113 37.7792C17.2 38.0658 17.2394 38.3643 17.2212 38.6636C17.2084 38.5173 17.1894 38.371 17.1735 38.2255C16.9782 39.8331 16.8708 41.4489 16.7133 43.0595C16.6051 44.2746 16.4945 45.4896 16.3855 46.7047C16.3643 47.0182 16.3378 47.3324 16.2758 47.6413C16.2304 47.3256 16.2947 47.0114 16.3227 46.6972C16.5778 43.7238 16.8685 40.7534 17.113 37.7792Z" fill="#77AB92"/>
<path d="M135.045 45.0084C135.224 42.9731 135.334 40.9303 135.545 38.8988C135.592 39.2369 135.52 39.5742 135.511 39.9123C135.271 42.9723 135.037 46.0316 134.797 49.0916C134.738 49.5192 134.788 49.9618 134.651 50.3783C134.744 48.5863 134.923 46.7988 135.045 45.0084Z" fill="#80AE97"/>
<path d="M17.3159 40.0653L17.3167 39.9436C17.4015 40.3011 17.4204 40.6676 17.4348 41.0333C17.5657 42.6275 17.674 44.2231 17.8034 45.8181C17.8057 46.2472 17.9192 46.6734 17.8594 47.1033C17.7618 46.5786 17.7633 46.0435 17.7103 45.5143C17.5869 43.697 17.4113 41.8833 17.3159 40.0653Z" fill="#84AE9A"/>
<path d="M42.9568 41.7101C43.3148 41.2235 43.1438 40.5563 43.4488 40.0443C43.3345 40.763 43.1922 41.4773 43.0597 42.193C43.0234 42.0326 42.9878 41.8713 42.9568 41.7101Z" fill="#336B50"/>
<path d="M132.02 42.4557C132.07 42.0855 132.084 41.7079 132.193 41.3481C132.148 42.0669 132.07 42.7878 131.926 43.4939C131.912 43.1446 131.982 42.8005 132.02 42.4557Z" fill="#88B49E"/>
<path d="M139.342 42.5081C139.456 42.826 139.465 43.1656 139.513 43.4962C139.745 45.2874 139.98 47.0779 140.209 48.8691C140.25 49.2826 140.351 49.6924 140.33 50.1111C140.159 49.2304 140.089 48.334 139.959 47.4474C139.761 45.8002 139.503 44.159 139.342 42.5081Z" fill="#81B299"/>
<path d="M136.315 45.6642C136.469 46.6613 136.5 47.6726 136.597 48.6764C136.765 50.7393 136.973 52.7992 137.183 54.8584C137.023 54.7255 137.087 54.4994 137.056 54.321C136.846 52.1305 136.62 49.9415 136.456 47.748C136.412 47.0531 136.301 46.3605 136.315 45.6642Z" fill="#83AE9A"/>
<path d="M16.2324 47.7158C16.8092 47.6501 17.3944 47.6576 17.9727 47.7098C17.3966 47.7882 16.8085 47.7845 16.2324 47.7158Z" fill="#E4F9EF"/>
<path d="M131.184 49.317C131.276 48.7684 131.265 48.2027 131.427 47.6683C131.395 48.3214 131.283 48.9677 131.214 49.6185C131.119 50.285 131.082 50.9604 130.939 51.6202C130.95 50.8478 131.116 50.0857 131.184 49.317Z" fill="#85B39C"/>
<path d="M15.8003 53.1786C15.8457 52.2516 15.9699 51.3291 16.0448 50.4037L16.1061 50.4298C16.0516 51.0806 15.9865 51.7314 15.9237 52.3815C15.9033 52.6935 15.8768 53.0054 15.7996 53.3099L15.8003 53.1786Z" fill="#7AAB93"/>
<path d="M140.524 50.8732C140.491 51.2538 140.572 51.6292 140.618 52.0054C140.724 52.8249 140.827 53.6458 140.94 54.4646C140.955 54.5944 140.952 54.7265 140.94 54.8564C140.831 54.3332 140.793 53.7988 140.715 53.2712C140.639 52.5883 140.512 51.9106 140.469 51.2247C140.48 51.106 140.503 50.9896 140.524 50.8732Z" fill="#7FAE96"/>
<path d="M12.3659 51.5223L12.3621 51.641C12.3477 52.1814 12.247 52.7142 12.1918 53.2509C12.1153 53.7905 12.0873 54.3368 11.9738 54.8704C11.9337 54.5084 12.026 54.1517 12.0608 53.7934C12.1683 53.0374 12.2062 52.2702 12.3659 51.5223Z" fill="#90BAA5"/>
</svg>
