<svg width="174" height="47" viewBox="0 0 174 47" fill="none" xmlns="http://www.w3.org/2000/svg">
<g clip-path="url(#clip0)">
<path d="M64.4009 37.6351V43.4152C64.4009 43.809 64.4233 44.3093 64.4457 44.6286H63.6733L63.6174 43.8622H63.5838C63.3487 44.3412 62.8003 44.7244 62.0727 44.7244C60.9534 44.7244 60.1139 43.7771 60.1139 42.2868C60.1139 40.6582 61.0653 39.7428 62.1511 39.7428C62.8115 39.7428 63.2816 40.0302 63.4942 40.4134H63.5166V37.6351H64.4009ZM63.5166 41.744C63.5166 41.6375 63.5054 41.4991 63.4831 41.3927C63.3711 40.8605 62.9346 40.4134 62.3302 40.4134C61.4683 40.4134 60.9982 41.2224 60.9982 42.2549C60.9982 43.2342 61.4347 44.0432 62.3078 44.0432C62.8115 44.0432 63.2928 43.7345 63.4719 43.0745C63.5054 42.9681 63.5166 42.851 63.5166 42.7126V41.744Z" fill="#00F0FF"/>
<path d="M69.9191 42.1908C69.9191 43.9897 68.7438 44.7135 67.6581 44.7135C66.4268 44.7135 65.4642 43.8087 65.4642 42.244C65.4642 40.5941 66.4828 39.7212 67.7253 39.7212C69.0125 39.7318 69.9191 40.6792 69.9191 42.1908ZM66.3709 42.2333C66.3709 43.202 66.8634 44.0748 67.7029 44.0748C68.5312 44.0748 69.0237 43.1913 69.0237 42.212C69.0237 41.4243 68.6767 40.3812 67.7029 40.3812C66.7291 40.3812 66.3709 41.3818 66.3709 42.2333Z" fill="#00F0FF"/>
<path d="M70.9937 41.2434C70.9937 40.7325 70.9714 40.2429 70.949 39.8277H71.7213L71.7661 40.7219H71.7996C72.0123 40.1364 72.5272 39.7426 73.0868 39.7426C73.1764 39.7426 73.2436 39.7426 73.3107 39.7638V40.5728C73.2324 40.5515 73.154 40.5515 73.0533 40.5515C72.4488 40.5515 72.0123 41.0093 71.9004 41.6267C71.878 41.7544 71.8668 41.8928 71.8668 42.0418V44.6284H70.9937V41.2434Z" fill="#00F0FF"/>
<path d="M78.1686 42.1908C78.1686 43.9897 76.9934 44.7135 75.9076 44.7135C74.6764 44.7135 73.7137 43.8087 73.7137 42.244C73.7137 40.5941 74.7323 39.7212 75.9748 39.7212C77.262 39.7318 78.1686 40.6792 78.1686 42.1908ZM74.6092 42.2333C74.6092 43.202 75.1017 44.0748 75.9412 44.0748C76.7695 44.0748 77.262 43.1913 77.262 42.212C77.262 41.4243 76.915 40.3812 75.9412 40.3812C74.9786 40.3812 74.6092 41.3818 74.6092 42.2333Z" fill="#00F0FF"/>
<path d="M83.1606 43.9472C83.1606 45.1075 82.9368 45.7142 82.5114 46.1081C82.0749 46.5019 81.4369 46.6616 80.8213 46.6616C80.2728 46.6616 79.6796 46.5338 79.3102 46.3103L79.534 45.661C79.8251 45.8313 80.2952 45.991 80.8436 45.991C81.6943 45.991 82.2876 45.5545 82.2876 44.3836V43.862H82.2652C82.0301 44.2878 81.5264 44.6072 80.8548 44.6072C79.7131 44.6072 78.9072 43.6066 78.9072 42.2547C78.9072 40.5941 79.937 39.7319 80.9668 39.7319C81.7391 39.7319 82.142 40.1258 82.3547 40.4877H82.3771L82.4219 39.8277H83.1942C83.1718 40.1684 83.1494 40.5729 83.1494 41.2009V43.9472H83.1606ZM82.2876 41.648C82.2876 41.5096 82.2764 41.3818 82.2428 41.2754C82.0973 40.8177 81.7279 40.4132 81.1123 40.4132C80.3288 40.4132 79.8027 41.1264 79.8027 42.2228C79.8027 43.2553 80.284 43.9685 81.1123 43.9685C81.5824 43.9685 82.0301 43.7024 82.2204 43.1382C82.2764 42.9892 82.2876 42.8295 82.2876 42.6805V41.648Z" fill="#00F0FF"/>
<path d="M87.8507 43.4895C87.8507 43.8833 87.8618 44.2878 87.929 44.6178H87.1343L87.0559 44.043H87.0224C86.7649 44.4049 86.2836 44.7136 85.6344 44.7136C84.7277 44.7136 84.2017 44.0643 84.2017 43.3404C84.2017 42.1695 85.2538 41.5628 86.9664 41.5734V41.4563C86.9664 40.988 86.8321 40.3599 85.9254 40.3706C85.5001 40.3706 85.0747 40.4877 84.7613 40.6899L84.5598 40.1258C84.918 39.9129 85.4777 39.7426 86.0709 39.7426C87.4477 39.7426 87.8395 40.6367 87.8395 41.6267V43.4895H87.8507ZM86.9888 42.1589C86.1605 42.1482 85.0859 42.2866 85.0859 43.2446C85.0859 43.8301 85.4553 44.0749 85.8694 44.0749C86.4403 44.0749 86.8321 43.7236 86.9552 43.2979C86.9888 43.2127 87 43.1063 87 43.0211V42.1589H86.9888Z" fill="#00F0FF"/>
<path d="M91.3206 41.6584V42.2865H88.8357V41.6584H91.3206Z" fill="#00F0FF"/>
<path d="M91.813 44.1281L93.8837 41.2647C94.0852 41.0092 94.2643 40.7644 94.4658 40.5195V40.4982H92.0033V39.8276H95.5068V40.3599L93.4584 43.1807C93.2681 43.4362 93.0778 43.6916 92.8875 43.9258V43.9471H95.5403V44.6177H91.813V44.1281Z" fill="#00F0FF"/>
<path d="M96.4358 37.635H97.3089V40.5091H97.3313C97.4656 40.2962 97.6782 40.0939 97.9133 39.9555C98.1595 39.8278 98.4506 39.7426 98.7752 39.7426C99.4356 39.7426 100.353 40.1578 100.353 41.68V44.6285H99.4803V41.7758C99.4803 41.0519 99.2229 40.4345 98.4618 40.4345C97.9357 40.4345 97.5215 40.7965 97.3648 41.2755C97.3201 41.3819 97.3089 41.5203 97.3089 41.6693V44.6179H96.4358V37.635Z" fill="#00F0FF"/>
<path d="M102.715 38.5078C102.715 38.8059 102.503 39.0294 102.167 39.0294C101.853 39.0294 101.641 38.8059 101.641 38.5078C101.641 38.1991 101.864 37.9756 102.178 37.9756C102.503 37.9756 102.715 38.1991 102.715 38.5078ZM101.753 44.6178V39.8171H102.626V44.6178H101.753Z" fill="#00F0FF"/>
<path d="M103.51 44.1281L105.581 41.2647C105.782 41.0092 105.961 40.7644 106.163 40.5195V40.4982H103.7V39.8276H107.204V40.3599L105.155 43.1807C104.965 43.4362 104.775 43.6916 104.584 43.9258V43.9471H107.237V44.6177H103.51V44.1281Z" fill="#00F0FF"/>
<path d="M108.122 41.1051C108.122 40.5941 108.099 40.2216 108.077 39.8277H108.849L108.905 40.5622H108.927C109.163 40.1364 109.7 39.7426 110.439 39.7426C111.121 39.7426 112.039 40.1683 112.039 41.6692V44.6284H111.166V41.7757C111.166 41.0625 110.92 40.4345 110.148 40.4345C109.621 40.4345 109.196 40.7964 109.051 41.2967C109.017 41.4031 108.995 41.5521 108.995 41.7012V44.6284H108.122V41.1051Z" fill="#00F0FF"/>
<path d="M114.412 38.5078C114.412 38.8059 114.199 39.0294 113.864 39.0294C113.55 39.0294 113.338 38.8059 113.338 38.5078C113.338 38.1991 113.562 37.9756 113.875 37.9756C114.188 37.9756 114.412 38.1991 114.412 38.5078ZM113.438 44.6178V39.8171H114.311V44.6178H113.438Z" fill="#00F0FF"/>
<path d="M115.543 44.1174C115.543 43.7555 115.789 43.5 116.136 43.5C116.494 43.5 116.729 43.7448 116.729 44.1174C116.729 44.4687 116.505 44.7241 116.125 44.7241C115.8 44.7241 115.543 44.458 115.543 44.1174Z" fill="#00F0FF"/>
<path d="M121.956 42.1908C121.956 43.9897 120.781 44.7135 119.695 44.7135C118.464 44.7135 117.502 43.8087 117.502 42.244C117.502 40.5941 118.52 39.7212 119.763 39.7212C121.05 39.7318 121.956 40.6792 121.956 42.1908ZM118.397 42.2333C118.397 43.202 118.89 44.0748 119.729 44.0748C120.557 44.0748 121.05 43.1913 121.05 42.212C121.05 41.4243 120.703 40.3812 119.729 40.3812C118.766 40.3812 118.397 41.3818 118.397 42.2333Z" fill="#00F0FF"/>
<path d="M123.031 41.2434C123.031 40.7325 123.008 40.2429 122.986 39.8277H123.758L123.803 40.7219H123.837C124.049 40.1364 124.564 39.7426 125.124 39.7426C125.214 39.7426 125.281 39.7426 125.348 39.7638V40.5728C125.27 40.5515 125.191 40.5515 125.09 40.5515C124.486 40.5515 124.049 41.0093 123.938 41.6267C123.915 41.7544 123.904 41.8928 123.904 42.0418V44.6284H123.031V41.2434Z" fill="#00F0FF"/>
<path d="M130.015 43.9472C130.015 45.1075 129.792 45.7142 129.366 46.1081C128.93 46.5019 128.292 46.6616 127.676 46.6616C127.128 46.6616 126.534 46.5338 126.165 46.3103L126.389 45.661C126.68 45.8313 127.15 45.991 127.698 45.991C128.549 45.991 129.142 45.5545 129.142 44.3836V43.862H129.12C128.885 44.2878 128.381 44.6072 127.71 44.6072C126.568 44.6072 125.762 43.6066 125.762 42.2547C125.762 40.5941 126.792 39.7319 127.822 39.7319C128.594 39.7319 128.997 40.1258 129.209 40.4877H129.232L129.277 39.8277H130.049C130.027 40.1684 130.004 40.5729 130.004 41.2009V43.9472H130.015ZM129.131 41.648C129.131 41.5096 129.12 41.3818 129.086 41.2754C128.941 40.8177 128.571 40.4132 127.956 40.4132C127.172 40.4132 126.646 41.1264 126.646 42.2228C126.646 43.2553 127.128 43.9685 127.956 43.9685C128.426 43.9685 128.874 43.7024 129.064 43.1382C129.12 42.9892 129.131 42.8295 129.131 42.6805V41.648Z" fill="#00F0FF"/>
<path d="M69.3932 30.2375V34.4102H67.2889V32.1322H61.5692V34.4102H59.4648V30.2375H60.5058C60.9983 29.205 61.3901 28.066 61.6363 26.7141C62.0169 24.6916 62.1064 21.0299 62.1064 18.4539V17.3788H68.1284V30.2268H69.3932V30.2375ZM64.1772 19.2735V20.4338C64.1772 24.021 63.9309 26.0648 63.6847 27.3634C63.5056 28.3747 63.2593 29.2582 62.7556 30.3333H65.9009V19.2735H64.1772Z" fill="#00F0FF"/>
<path d="M70.6019 21.2528C70.6019 20.1351 70.6915 19.06 71.7548 18.1127C72.4152 17.5272 73.3331 17.1653 74.4748 17.1653C75.6277 17.1653 76.5343 17.5272 77.1947 18.1127C78.2581 19.06 78.3476 20.1351 78.3476 21.2528V28.2463C78.3476 29.364 78.2581 30.4391 77.1947 31.3865C76.5343 31.9719 75.6165 32.3339 74.4748 32.3339C73.3219 32.3339 72.4152 31.9719 71.7548 31.3865C70.6915 30.4391 70.6019 29.364 70.6019 28.2463V21.2528ZM76.1426 20.9441C76.1426 20.497 76.0978 20.0606 75.6725 19.6561C75.4262 19.4219 75.0344 19.2303 74.4748 19.2303C73.9263 19.2303 73.5234 19.4219 73.2771 19.6561C72.8518 20.0606 72.807 20.497 72.807 20.9441V28.5763C72.807 29.0234 72.8518 29.4598 73.2771 29.8643C73.5234 30.0985 73.9151 30.2901 74.4748 30.2901C75.0232 30.2901 75.4262 30.0985 75.6725 29.8643C76.0978 29.4598 76.1426 29.0234 76.1426 28.5763V20.9441Z" fill="#00F0FF"/>
<path d="M80.799 17.3783H84.1009C85.0524 17.3783 86.2277 17.4209 87.2015 18.347C88.22 19.3369 88.332 20.6249 88.332 21.7213V22.1471C88.332 22.9667 88.2424 24.1909 87.3806 25.1382C86.4739 26.1282 85.2762 26.2985 84.3248 26.2985H83.0152V32.1317H80.799V17.3783ZM83.0152 24.3931H84.2129C84.6382 24.3931 85.2315 24.3292 85.7016 23.8502C86.1717 23.3606 86.1269 22.8603 86.1269 22.328V21.3594C86.1269 20.8591 86.1493 20.1353 85.5337 19.6562C85.0188 19.2517 84.4032 19.273 83.8099 19.273H83.0376V24.3931H83.0152Z" fill="#00F0FF"/>
<path d="M90.1007 21.2528C90.1007 20.1351 90.1903 19.06 91.2536 18.1127C91.914 17.5272 92.8319 17.1653 93.9736 17.1653C95.1153 17.1653 96.0331 17.5272 96.6935 18.1127C97.7569 19.06 97.8464 20.1351 97.8464 21.2528V28.2463C97.8464 29.364 97.7569 30.4391 96.6935 31.3865C96.0331 31.9719 95.1153 32.3339 93.9736 32.3339C92.8319 32.3339 91.914 31.9719 91.2536 31.3865C90.1903 30.4391 90.1007 29.364 90.1007 28.2463V21.2528ZM95.6413 20.9441C95.6413 20.497 95.5966 20.0606 95.1712 19.6561C94.925 19.4219 94.5332 19.2303 93.9736 19.2303C93.4251 19.2303 93.0221 19.4219 92.7759 19.6561C92.3505 20.0606 92.3058 20.497 92.3058 20.9441V28.5763C92.3058 29.0234 92.3505 29.4598 92.7759 29.8643C93.0221 30.0985 93.4139 30.2901 93.9736 30.2901C94.522 30.2901 94.925 30.0985 95.1712 29.8643C95.5966 29.4598 95.6413 29.0234 95.6413 28.5763V20.9441Z" fill="#00F0FF"/>
<path d="M100.297 17.3783H107.036V19.3795H102.514V32.1317H100.297V17.3783Z" fill="#00F0FF"/>
<path d="M111.927 32.1317L111.2 28.9703H108.368L107.64 32.1317H105.424L108.816 17.3783H110.763L114.155 32.1317H111.927ZM109.733 21.4871L108.581 27.0968H110.931L109.733 21.4871Z" fill="#00F0FF"/>
<path d="M128.628 23.7012C128.941 23.7012 129.221 23.5735 129.445 23.2542C129.736 22.8709 129.825 22.3494 129.937 21.3168L130.094 19.9863C130.184 19.1879 130.318 18.3044 130.978 17.7509C131.616 17.2293 132.467 17.208 133.038 17.208H133.441V19.1028H133.083C132.903 19.1028 132.657 19.2092 132.512 19.3369C132.265 19.5498 132.176 19.9437 132.064 20.891L131.907 22.3068C131.84 22.8709 131.795 23.4032 131.594 23.8822C131.46 24.1802 131.325 24.3505 131.101 24.4889L133.407 32.1211H130.989L129.109 25.5002H127.799V32.1211H125.583V25.5002H124.274L122.393 32.1211H119.975L122.281 24.4889C122.057 24.3399 121.923 24.1696 121.789 23.8822C121.587 23.3925 121.542 22.8709 121.475 22.3068L121.319 20.891C121.207 19.9437 121.117 19.5392 120.871 19.3369C120.714 19.2092 120.468 19.1028 120.3 19.1028H119.942V17.208H120.345C120.916 17.208 121.766 17.2293 122.404 17.7509C123.065 18.2938 123.199 19.1879 123.289 19.9863L123.445 21.3168C123.557 22.3494 123.647 22.8709 123.938 23.2542C124.162 23.5735 124.453 23.7012 124.755 23.7012H125.572V17.3783H127.788V23.7012H128.628Z" fill="#00F0FF"/>
<path d="M137.493 17.3783V26.4369L141.153 19.0601V17.3783H143.369V32.1317H141.153V23.0732L137.493 30.4499V32.1317H135.276V17.3783H137.493Z" fill="#00F0FF"/>
<path d="M145.361 20.2416C145.361 19.6561 145.496 18.6449 146.537 17.8785C147.052 17.4953 147.846 17.1653 148.999 17.1653C149.883 17.1653 150.857 17.3569 151.551 17.8359C151.954 18.1127 152.771 18.8258 152.771 20.2416V21.487C152.771 22.2641 152.727 23.0837 152.111 23.7862C151.865 24.0417 151.54 24.2972 151.227 24.4568C151.865 24.7762 152.178 25.1275 152.335 25.3829C152.738 26.011 152.783 26.6496 152.783 27.2777V29.0021C152.783 29.8217 152.671 30.7052 151.809 31.4716C150.992 32.1848 149.973 32.3339 148.977 32.3339C148.16 32.3339 147.141 32.2274 146.335 31.5355C146.179 31.4078 145.384 30.6733 145.384 29.4066V28.0334H147.6V28.8744C147.6 29.1937 147.734 29.6514 147.958 29.8856C148.227 30.1624 148.753 30.2688 149.111 30.2688C149.66 30.2688 149.995 30.1198 150.175 29.9495C150.577 29.5876 150.577 29.1511 150.577 28.6828V27.3735C150.577 26.969 150.533 26.1068 149.984 25.6916C149.828 25.5639 149.469 25.3723 148.809 25.3723H148.149V23.4775H148.742C149.313 23.4775 149.85 23.2859 150.163 22.9666C150.566 22.5408 150.589 21.9341 150.589 21.6573V20.7099C150.589 20.3906 150.589 19.8903 150.141 19.5284C149.895 19.3368 149.525 19.209 149.055 19.209C148.63 19.209 148.283 19.3581 148.037 19.5923C147.656 19.9329 147.611 20.348 147.611 20.6674V21.5509H145.395V20.2416H145.361Z" fill="#00F0FF"/>
<path d="M157.417 17.3783V23.7225H160.405V17.3783H162.621V32.1317H160.405V25.6172H157.417V32.1317H155.2V17.3783H157.417Z" fill="#00F0FF"/>
<path d="M167.491 17.3783V26.4369L171.151 19.0601V17.3783H173.367V32.1317H171.151V23.0732L167.491 30.4499V32.1317H165.274V17.3783H167.491Z" fill="#00F0FF"/>
<path d="M64.9159 3.68921V4.74303H62.5205V6.84002H63.0914C63.5503 6.84002 64.1883 6.81873 64.7256 7.28709C65.2293 7.73416 65.2293 8.28768 65.2293 8.57509V9.49053C65.2293 9.87373 65.2069 10.2995 64.8935 10.7466C64.6696 11.0553 64.2107 11.4811 63.1362 11.4811H61.3564V3.68921H64.9159ZM62.5205 10.4911H63.0466C63.2145 10.4911 63.5951 10.4698 63.8413 10.1505C63.998 9.94824 64.054 9.60762 64.054 9.3415V8.91572C64.054 8.53251 63.998 8.26639 63.7406 8.0535C63.5503 7.90448 63.3824 7.85125 63.1138 7.85125H62.5205V10.4911Z" fill="#00F0FF"/>
<path d="M70.2664 11.4917H69.0911V4.6898H68.162L68.1284 5.7862C68.0837 7.14871 68.0725 7.77674 68.0277 8.39413C67.9717 9.21377 67.8934 9.6289 67.8486 9.8418C67.7703 10.225 67.6471 10.5869 67.289 10.9701C66.8524 11.4172 66.3935 11.4917 65.9122 11.4917H65.6436V10.4273H65.7779C65.8898 10.4273 66.0577 10.4166 66.2368 10.3208C66.5166 10.1611 66.6286 9.88438 66.6509 9.80986C66.7853 9.41601 66.8636 8.28768 66.886 7.89383C66.9196 7.27644 66.9532 6.78679 66.9644 5.7862L66.9979 3.68921H70.2775V11.4917H70.2664Z" fill="#00F0FF"/>
<path d="M74.5309 11.4917L74.1391 9.82051H72.6392L72.2474 11.4917H71.0721L72.8631 3.68921H73.8928L75.6838 11.4917H74.5309ZM73.378 5.86071L72.7735 8.83056H74.016L73.378 5.86071Z" fill="#00F0FF"/>
<path d="M76.4897 3.68921H80.0492V4.74303H77.6538V11.4811H76.4785V3.68921H76.4897Z" fill="#00F0FF"/>
<path d="M80.3625 5.73288C80.3625 5.14742 80.4073 4.57262 80.967 4.07232C81.314 3.76362 81.7953 3.57202 82.4109 3.57202C83.0153 3.57202 83.4967 3.76362 83.8548 4.07232C84.4145 4.57262 84.4593 5.14742 84.4593 5.73288V9.43721C84.4593 10.0227 84.4145 10.5975 83.8548 11.0978C83.5078 11.4065 83.0265 11.5981 82.4109 11.5981C81.8065 11.5981 81.3252 11.4065 80.967 11.0978C80.4073 10.5975 80.3625 10.0227 80.3625 9.43721V5.73288ZM83.284 5.57321C83.284 5.33903 83.2616 5.10485 83.0377 4.89195C82.9034 4.76422 82.7019 4.66842 82.3997 4.66842C82.1087 4.66842 81.896 4.76422 81.7617 4.89195C81.5378 5.10485 81.5154 5.33903 81.5154 5.57321V9.60752C81.5154 9.8417 81.5378 10.0759 81.7617 10.2888C81.896 10.4165 82.0975 10.5123 82.3997 10.5123C82.6907 10.5123 82.9034 10.4165 83.0377 10.2888C83.2616 10.0759 83.284 9.8417 83.284 9.60752V5.57321Z" fill="#00F0FF"/>
<path d="M88.903 3.68921V4.74303H87.4479V11.4811H86.2726V4.74303H84.8175V3.68921H88.903Z" fill="#00F0FF"/>
<path d="M91.2199 3.68921C91.5669 3.68921 92.2497 3.72114 92.7646 4.07242C93.5033 4.57271 93.5145 5.41364 93.5145 5.87136C93.5145 6.3823 93.4698 6.74421 93.1675 7.08484C93.0108 7.2658 92.8429 7.37225 92.7198 7.44676C93.0332 7.58514 93.1787 7.7661 93.2795 7.93641C93.5145 8.33026 93.5145 8.54315 93.5145 8.91572V9.50117C93.5145 9.82051 93.5145 10.6295 92.8094 11.1298C92.5519 11.3214 92.1154 11.5024 91.4102 11.5024H89.6305V3.68921H91.2199ZM90.817 6.91453H91.3766C91.7796 6.91453 92.0146 6.75486 92.1266 6.62712C92.2721 6.46745 92.3504 6.20134 92.3504 5.95651V5.4775C92.3504 5.27526 92.2609 5.07301 92.1266 4.94527C91.9811 4.80689 91.746 4.6898 91.3654 4.6898H90.817V6.91453ZM90.817 10.4911H91.3431C91.5222 10.4911 91.8915 10.4698 92.1378 10.1505C92.3393 9.89502 92.3504 9.49053 92.3504 9.36279V8.97958C92.3504 8.59638 92.2945 8.33026 92.037 8.11737C91.8467 7.96834 91.6789 7.91512 91.4102 7.91512H90.817V10.4911Z" fill="#00F0FF"/>
<path d="M94.6898 5.73288C94.6898 5.14742 94.7346 4.57262 95.2943 4.07232C95.6412 3.76362 96.1225 3.57202 96.7382 3.57202C97.3426 3.57202 97.8239 3.76362 98.1821 4.07232C98.7417 4.57262 98.7865 5.14742 98.7865 5.73288V9.43721C98.7865 10.0227 98.7417 10.5975 98.1821 11.0978C97.8351 11.4065 97.3538 11.5981 96.7382 11.5981C96.1337 11.5981 95.6524 11.4065 95.2943 11.0978C94.7346 10.5975 94.6898 10.0227 94.6898 9.43721V5.73288ZM97.6224 5.57321C97.6224 5.33903 97.6 5.10485 97.3762 4.89195C97.2419 4.76422 97.0404 4.66842 96.7382 4.66842C96.4471 4.66842 96.2345 4.76422 96.1002 4.89195C95.8763 5.10485 95.8539 5.33903 95.8539 5.57321V9.60752C95.8539 9.8417 95.8763 10.0759 96.1002 10.2888C96.2345 10.4165 96.436 10.5123 96.7382 10.5123C97.0292 10.5123 97.2419 10.4165 97.3762 10.2888C97.6 10.0759 97.6224 9.8417 97.6224 9.60752V5.57321Z" fill="#00F0FF"/>
<path d="M100.085 3.68921H101.831C102.335 3.68921 102.962 3.7105 103.477 4.20015C104.014 4.72174 104.07 5.40299 104.07 5.98845V6.21198C104.07 6.64841 104.025 7.29773 103.566 7.79803C103.085 8.31962 102.458 8.41542 101.943 8.41542H101.249V11.5024H100.074V3.68921H100.085ZM101.249 7.39354H101.887C102.111 7.39354 102.424 7.3616 102.671 7.10613C102.917 6.85066 102.895 6.58454 102.895 6.30778V5.79684C102.895 5.53073 102.906 5.14752 102.581 4.89205C102.312 4.67916 101.988 4.6898 101.663 4.6898H101.249V7.39354Z" fill="#00F0FF"/>
<path d="M106.297 3.68921V8.47929L108.234 4.58336V3.68921H109.409V11.4917H108.234V6.70164L106.297 10.5976V11.4917H105.122V3.68921H106.297Z" fill="#00F0FF"/>
<path d="M114.211 3.68921V4.74303H112.756V11.4811H111.592V4.74303H110.136V3.68921H114.211Z" fill="#00F0FF"/>
<path d="M114.95 3.68921H118.431V4.74303H116.125V7.04226H118.162V8.04286H116.125V10.4273H118.464V11.4811H114.95V3.68921Z" fill="#00F0FF"/>
<path d="M123.456 11.4917H122.281V4.6898H121.341L121.307 5.7862C121.263 7.14871 121.251 7.77674 121.207 8.39413C121.151 9.21377 121.072 9.6289 121.028 9.8418C120.949 10.225 120.826 10.5869 120.468 10.9701C120.031 11.4172 119.572 11.4917 119.091 11.4917H118.823V10.4273H118.957C119.069 10.4273 119.237 10.4166 119.416 10.3208C119.696 10.1611 119.808 9.88438 119.83 9.80986C119.964 9.41601 120.043 8.28768 120.065 7.89383C120.099 7.27644 120.132 6.78679 120.143 5.7862L120.177 3.68921H123.456V11.4917Z" fill="#00F0FF"/>
<path d="M126.031 3.68921V6.84002H126.602C127.061 6.84002 127.699 6.81873 128.236 7.28709C128.74 7.73416 128.74 8.28768 128.74 8.57509V9.49053C128.74 9.87373 128.717 10.2995 128.404 10.7466C128.18 11.0553 127.721 11.4811 126.646 11.4811H124.867V3.68921H126.031ZM126.031 10.4911H126.557C126.859 10.4911 127.564 10.4273 127.564 9.33086V8.90507C127.564 8.52186 127.508 8.25575 127.251 8.04286C127.061 7.89383 126.893 7.84061 126.624 7.84061H126.031V10.4911Z" fill="#00F0FF"/>
<path d="M131.079 3.68921V7.04226H132.657V3.68921H133.832V11.4917H132.657V8.04286H131.079V11.4917H129.904V3.68921H131.079Z" fill="#00F0FF"/>
<path d="M136.407 3.68921V6.84002H136.978C137.437 6.84002 138.075 6.81873 138.612 7.28709C139.116 7.73416 139.116 8.28768 139.116 8.57509V9.49053C139.116 9.87373 139.093 10.2995 138.78 10.7466C138.556 11.0553 138.097 11.4811 137.022 11.4811H135.243V3.68921H136.407ZM136.407 10.4911H136.933C137.235 10.4911 137.94 10.4273 137.94 9.33086V8.90507C137.94 8.52186 137.884 8.25575 137.627 8.04286C137.437 7.89383 137.269 7.84061 137 7.84061H136.407V10.4911ZM141.242 3.68921V11.4917H140.067V3.68921H141.242Z" fill="#00F0FF"/>
<path d="M143.817 3.68913V8.4792L145.753 4.58327V3.68913H146.929V11.4916H145.753V6.70155L143.817 10.5975V11.4916H142.641V3.68913H143.817ZM146.223 1.94341C146.223 2.39048 146.044 2.67789 145.876 2.83756C145.641 3.05045 145.25 3.14625 144.802 3.14625C144.343 3.14625 143.962 3.05045 143.727 2.83756C143.548 2.67789 143.38 2.39048 143.38 1.94341V1.81567H144.32V1.91148C144.32 1.99663 144.332 2.12437 144.466 2.22017C144.567 2.30533 144.69 2.31597 144.813 2.31597C144.936 2.31597 145.059 2.30533 145.16 2.22017C145.294 2.12437 145.305 1.99663 145.305 1.91148V1.81567H146.246V1.94341H146.223Z" fill="#00F0FF"/>
<path d="M154.517 4.58326H154.797C155.301 4.58326 155.928 4.60455 156.443 5.0942C156.98 5.61579 157.036 6.29704 157.036 6.8825V8.23436C157.036 8.67079 156.991 9.33076 156.532 9.82041C156.006 10.3952 155.256 10.4484 154.909 10.4484H154.506V11.5023H153.331V10.4272H152.928C152.592 10.4272 151.842 10.3846 151.305 9.79912C150.846 9.30947 150.801 8.6495 150.801 8.21308V6.87185C150.801 6.29704 150.857 5.61579 151.395 5.08356C151.909 4.5939 152.536 4.57262 153.04 4.57262H153.32V3.57202H154.495V4.58326H154.517ZM153.23 5.5945C152.917 5.5945 152.581 5.58385 152.312 5.79675C151.988 6.05222 151.999 6.43542 151.999 6.70154V8.33017C151.999 8.60693 151.977 8.8624 152.223 9.12851C152.48 9.39463 152.771 9.40527 153.006 9.40527H153.342V5.5945H153.23ZM154.517 9.40527H154.853C155.088 9.40527 155.379 9.39463 155.637 9.12851C155.883 8.8624 155.861 8.60693 155.861 8.33017V6.70154C155.861 6.43542 155.872 6.05222 155.547 5.79675C155.279 5.58385 154.954 5.5945 154.629 5.5945H154.517V9.40527Z" fill="#00F0FF"/>
<path d="M158.088 5.73288C158.088 5.14742 158.133 4.57262 158.693 4.07232C159.04 3.76362 159.521 3.57202 160.136 3.57202C160.741 3.57202 161.222 3.76362 161.58 4.07232C162.14 4.57262 162.185 5.14742 162.185 5.73288V9.43721C162.185 10.0227 162.14 10.5975 161.58 11.0978C161.233 11.4065 160.752 11.5981 160.136 11.5981C159.532 11.5981 159.051 11.4065 158.693 11.0978C158.133 10.5975 158.088 10.0227 158.088 9.43721V5.73288ZM161.021 5.57321C161.021 5.33903 160.998 5.10485 160.775 4.89195C160.64 4.76422 160.439 4.66842 160.136 4.66842C159.845 4.66842 159.633 4.76422 159.498 4.89195C159.275 5.10485 159.252 5.33903 159.252 5.57321V9.60752C159.252 9.8417 159.275 10.0759 159.498 10.2888C159.633 10.4165 159.834 10.5123 160.136 10.5123C160.428 10.5123 160.64 10.4165 160.775 10.2888C160.998 10.0759 161.021 9.8417 161.021 9.60752V5.57321Z" fill="#00F0FF"/>
<path d="M164.659 3.68921V7.04226H166.237V3.68921H167.412V11.4917H166.237V8.04286H164.659V11.4917H163.483V3.68921H164.659Z" fill="#00F0FF"/>
<path d="M173.3 10.4911V12.6946H172.192V11.4917H169.169V12.6946H168.061V10.4911H168.61C168.867 9.94824 169.08 9.3415 169.203 8.62831C169.404 7.55321 169.449 5.61588 169.449 4.26402V3.68921H172.639V10.4911H173.3ZM170.546 4.6898V5.30719C170.546 7.20193 170.412 8.28768 170.289 8.96894C170.199 9.50117 170.065 9.96953 169.796 10.5443H171.464V4.6898H170.546Z" fill="#00F0FF"/>
<path d="M32.7688 31.738C32.2316 31.738 31.7503 31.9722 31.448 32.3448C31.1458 31.9722 30.6645 31.738 30.1272 31.738C29.0303 31.738 28.3923 32.6322 28.5042 33.537C28.6385 34.644 29.6235 35.0485 30.3063 35.6446C30.8996 36.1662 31.448 36.9007 31.448 36.9007C31.448 36.9007 31.9965 36.1662 32.5898 35.6446C33.2613 35.0485 34.2575 34.644 34.3919 33.537C34.5038 32.6322 33.8658 31.738 32.7688 31.738Z" fill="#00F0FF"/>
<path d="M31.2578 29.1406C30.9444 29.1406 30.6422 29.1726 30.34 29.2258C30.6422 29.1726 30.9444 29.1513 31.2578 29.1406Z" fill="#00F0FF"/>
<path d="M29.9707 29.3V29.3318C30.0936 29.3 30.2054 29.2468 30.3283 29.2256C30.3171 29.2256 30.3059 29.2256 30.2947 29.2256L29.9707 29.3Z" fill="#00F0FF"/>
<path d="M26.5008 32.6003C26.4896 32.643 26.4896 32.6749 26.4784 32.7176C26.512 32.6217 26.5344 32.5151 26.5792 32.4192H26.568C26.5344 32.4725 26.512 32.5364 26.5008 32.6003Z" fill="#00F0FF"/>
<path d="M31.4258 29.1406C31.7056 29.1406 31.9855 29.1726 32.2541 29.2151C31.9743 29.1726 31.6944 29.1406 31.4258 29.1406Z" fill="#00F0FF"/>
<path d="M32.7575 29.3216C32.7016 29.3109 32.6569 29.3003 32.6011 29.2897C32.7128 29.3216 32.8246 29.3534 32.9475 29.3959V29.3853C32.8804 29.3641 32.8134 29.3428 32.7575 29.3216Z" fill="#00F0FF"/>
<path d="M26.3554 33.2494C26.3442 33.3241 26.3442 33.3881 26.333 33.4628C26.333 33.3881 26.3442 33.3241 26.3554 33.2494Z" fill="#00F0FF"/>
<path d="M35.4106 20.5717C35.2427 20.0501 34.9517 19.9011 34.1346 19.8372C33.7988 19.816 33.4406 19.965 33.0824 20.114L33.3175 20.1459C34.0114 20.2417 34.7166 20.3908 35.4106 20.5717Z" fill="#00F0FF"/>
<path d="M35.5673 21.3697C35.4442 21.3378 35.3323 21.2952 35.2092 21.2526C34.6607 21.1036 34.1234 20.9865 33.5749 20.9014L33.463 21.7104C33.9667 21.7849 34.4704 21.902 34.9741 22.0403C35.2875 22.1255 35.6009 22.2319 35.9031 22.3384C35.7688 22.1468 35.6457 21.9339 35.6009 21.572C35.5897 21.4975 35.5785 21.4336 35.5673 21.3697Z" fill="#00F0FF"/>
<path d="M24.7434 23.2575C24.7558 23.2575 24.7682 23.2457 24.7806 23.2457L24.7682 23.2222C24.7558 23.2339 24.7558 23.2457 24.7434 23.2575Z" fill="#00F0FF"/>
<path d="M29.0863 46.1401L28.9631 46.7149C31.213 47.0875 32.7688 46.8214 34.1792 46.5553C34.3359 46.5233 35.8246 46.055 35.9701 45.9911C36.6752 45.6931 36.9439 45.5227 37.705 45.065C37.8505 44.9799 38.5893 44.3199 38.7348 44.2347C37.9401 44.6712 36.2275 45.4589 35.3433 45.725C33.3733 46.3317 31.2242 46.5021 29.0863 46.1401Z" fill="#00F0FF"/>
<path d="M32.7354 21.615L32.948 20.1886C32.8697 20.2205 32.7913 20.2525 32.713 20.2844C32.3772 20.4121 32.0862 20.7102 31.7504 20.7634C31.0004 20.8699 30.4296 21.1573 29.9147 21.6256C30.8325 21.5192 31.7839 21.5192 32.7354 21.615Z" fill="#00F0FF"/>
<path d="M35.903 22.328C36.0597 22.5409 36.2276 22.7006 36.3395 22.956L36.5186 22.5622C36.3171 22.4877 36.1156 22.4025 35.903 22.328Z" fill="#00F0FF"/>
<path d="M32.9481 20.1034L32.9369 20.1782C32.9818 20.1568 33.038 20.1355 33.083 20.1141L32.9481 20.1034Z" fill="#00F0FF"/>
<path d="M34.5599 30.2369L35.0636 29.5769C34.4704 29.1192 33.7764 28.7573 32.9929 28.5444C31.8176 28.2144 30.6199 28.257 29.5342 28.5976C28.6611 28.8637 27.8664 29.3214 27.2172 29.9282L27.7992 30.5243C30.3848 28.4486 32.9257 29.0127 34.5599 30.2369Z" fill="#00F0FF"/>
<path d="M35.6233 30.0454L35.1084 30.716C35.9367 31.5782 36.4516 32.7065 36.4516 33.9732C36.4516 36.5386 34.3472 38.6143 31.6945 38.7846L31.7056 39.5404C32.1981 39.5084 32.6795 39.4233 33.1496 39.2849C34.9517 38.7314 36.4404 37.3689 37.0112 35.5061C37.347 34.3884 37.3134 33.2494 36.9553 32.2169C36.8321 31.8656 36.6754 31.525 36.4851 31.195L37.1344 30.8437C37.347 31.2056 37.5261 31.5888 37.6604 31.9933C38.0186 33.0472 38.0858 34.2074 37.8059 35.357L39.3506 35.7828L39.2499 36.1235C39.1715 36.3683 39.082 36.6131 38.9924 36.8473C38.7126 37.5179 38.3432 38.1353 37.8955 38.6888L38.5447 39.2104C39.2163 38.3801 39.7424 37.4221 40.067 36.347C40.5259 34.8567 40.5371 33.3452 40.1789 31.9295L40.0894 31.5888L41.6228 31.2163C41.5892 31.0779 41.5445 30.9502 41.4997 30.8118C41.4549 30.6947 41.4213 30.5882 41.3766 30.4818C40.7274 30.6415 39.9998 30.6521 39.2611 30.7799L38.9365 30.9182C39.026 31.1205 39.1044 31.3227 39.1715 31.525C39.4961 32.4617 39.6304 33.4729 39.5521 34.4842L38.8133 34.431C38.8805 33.5049 38.7574 32.5894 38.4663 31.7379C38.097 30.6521 37.4478 29.6728 36.5971 28.8638C36.5747 28.8425 36.5523 28.8106 36.5299 28.7893L36.5187 28.8L35.6233 30.0454Z" fill="#00F0FF"/>
<path d="M26.2769 33.9731C26.2769 33.8028 26.3105 33.6324 26.3329 33.4621C26.3441 33.3983 26.3441 33.3238 26.3553 33.2492C26.3888 33.0683 26.4224 32.8873 26.4784 32.7064C26.4896 32.6638 26.4896 32.6319 26.5008 32.5893C26.5231 32.5254 26.5455 32.4615 26.5567 32.4083H26.5679C26.747 31.9187 26.9933 31.4609 27.3179 31.0565L26.7134 30.4497C26.2545 31.0032 25.8963 31.6419 25.6837 32.3657C25.3479 33.4834 25.3814 34.6224 25.7396 35.6549C26.3217 37.3687 27.7544 38.7844 29.7132 39.3273C30.1386 39.4444 30.5639 39.5189 30.978 39.5402L30.9668 38.7738C28.3364 38.5716 26.2769 36.5065 26.2769 33.9731Z" fill="#00F0FF"/>
<path d="M41.5333 41.6587L41.2982 41.9461L40.0669 40.9668C38.9028 42.2761 37.4253 43.298 35.7799 43.958L35.4889 43.3086C36.2948 42.9893 37.056 42.5742 37.7611 42.0739L37.1903 41.4671C36.3396 42.0632 35.3882 42.5316 34.3696 42.8403C32.5563 43.3938 30.5639 43.4577 28.6051 42.9148C27.1724 42.5209 25.9187 41.8397 24.8666 40.9668L24.3181 41.5842C25.2024 42.3187 26.2209 42.9254 27.3515 43.3512L27.0716 44.0112C25.7396 43.5002 24.5532 42.7658 23.5458 41.8716L23.2883 41.6374L24.3293 40.4772C23.2659 39.4446 22.46 38.1779 21.9899 36.8048C21.8332 36.3577 21.7213 35.9 21.6429 35.4316L20.0535 35.6339L20.0087 35.2826C19.9416 34.7504 19.908 34.2181 19.9192 33.6646L20.6579 33.6859C20.6467 34.0691 20.6579 34.4523 20.7027 34.8355L21.5534 34.7291C21.4526 33.6114 21.5646 32.4618 21.9116 31.3228C22.5496 29.2258 23.9039 27.4907 25.6501 26.3092L25.1912 25.6279C23.8928 26.5008 22.7958 27.6504 22.0011 29.0236L21.3519 28.6829C21.8108 27.8952 22.3593 27.1714 22.9973 26.5221L22.5272 25.8834C22.2362 25.9579 22.0795 26.2773 21.9339 26.4901C21.6205 26.5114 21.3295 26.4689 21.1168 26.5221L21.5758 26.8627C20.6915 27.9697 19.9975 29.2577 19.561 30.6841C19.4938 30.8864 19.4379 31.0993 19.3931 31.3015L20.2214 31.4825C20.2662 31.2909 20.3221 31.0993 20.3781 30.9077C20.4452 30.6948 20.5124 30.4925 20.5908 30.2903L21.2959 30.5245C21.2176 30.7161 21.1616 30.9077 21.0945 31.0993C21.0049 31.3867 20.9378 31.6741 20.8706 31.9721L20.7922 32.334L19.2364 32.0041C18.923 33.7711 19.0461 35.5381 19.5498 37.1773L21.0945 36.8048L21.2064 37.1135C21.5758 38.1779 22.1242 39.1892 22.8406 40.0833L22.2474 40.5091C21.5534 39.6362 21.0049 38.6676 20.6131 37.6457L19.7848 37.848C21.0721 41.2649 23.9935 44.0644 27.9335 45.1608C29.8587 45.693 31.8064 45.7569 33.6532 45.4163L33.4406 44.6286C32.0078 44.884 30.4967 44.8734 28.9969 44.5754C28.9185 44.5647 28.8402 44.5434 28.7618 44.5221L28.9297 43.8409C28.9969 43.8515 29.0752 43.8728 29.1424 43.8834C30.6646 44.1921 32.1869 44.1709 33.6197 43.8728L33.9666 43.7983L34.3584 45.2566C34.6158 45.1927 34.8621 45.1289 35.1084 45.0544C36.8321 44.5221 38.4103 43.6386 39.7311 42.4677L40.2348 42.9893C39.5521 43.596 38.8021 44.1283 38.0074 44.5754C39.1379 43.9686 39.1379 44.1389 40.2908 43.4151C40.7833 43.1064 41.4549 42.3613 41.4885 42.3293C41.981 41.7119 41.981 41.5523 42.216 41.0733L42.0705 40.9668C41.9026 41.201 41.7235 41.4352 41.5333 41.6587Z" fill="#00F0FF"/>
<path d="M25.8292 23.4884L25.4822 23.6694C25.1017 23.8716 24.7323 24.0951 24.3629 24.3293C24.3069 24.5103 24.2286 24.6806 24.1278 24.8403C23.9152 25.1703 23.6242 25.4683 23.3331 25.777L23.5122 26.0218C24.7435 24.9148 26.221 24.0845 27.8328 23.5949C29.9371 22.9455 32.2541 22.871 34.5375 23.499C35.1867 23.68 35.8024 23.9248 36.3956 24.2016C36.4068 23.829 36.4292 23.5203 36.4628 23.5416C36.4516 23.2968 36.4068 23.1265 36.3508 22.9775L36.2389 23.2223C35.7688 23.0307 35.2875 22.8604 34.7838 22.722C32.3325 22.0514 29.8476 22.1259 27.5865 22.8178C27.4858 22.8497 27.3963 22.8817 27.2955 22.9136L27.1052 22.4027C26.9485 22.3707 26.7806 22.3388 26.6239 22.3494C25.8628 22.3601 25.471 22.3814 25.2136 22.5623L25.8292 23.4884Z" fill="#00F0FF"/>
<path d="M43.2682 36.7941C43.2682 36.7622 43.2794 36.7303 43.2794 36.6983C43.2906 36.6451 43.3018 36.6025 43.3129 36.5493L43.3689 36.3045C43.7943 34.3352 43.6711 32.3553 43.0779 30.5351C42.9436 30.4712 42.7869 30.418 42.5742 30.4074C42.4511 30.4074 42.2944 30.4074 42.1377 30.418C42.16 30.4819 42.1936 30.5457 42.2048 30.599C42.3951 31.1738 42.5406 31.7486 42.6414 32.3553L41.9138 32.4618C41.8802 32.2808 41.8466 32.0892 41.8131 31.9083L40.9848 32.1105C41.287 33.5369 41.2422 35.0591 40.7833 36.5493C40.3915 37.8373 39.7311 38.9763 38.8804 39.945L38.6454 40.2111L37.4141 39.2318C36.4515 40.2324 35.2203 40.9881 33.8659 41.4033C33.7204 41.4458 33.5749 41.4884 33.4293 41.5204L33.2391 40.8391C33.3734 40.8072 33.5077 40.7646 33.642 40.7327C35.7128 40.094 37.4589 38.6144 38.3096 36.5919C38.3544 36.4854 38.3991 36.379 38.4327 36.2726L37.6156 36.049C36.9104 37.9651 35.3098 39.3701 33.3958 39.9662C32.1757 40.3388 30.8213 40.392 29.5005 40.0195C28.8066 39.8279 28.1685 39.5298 27.5977 39.1679L26.5791 40.3494L26.2993 40.1366C25.2247 39.3382 24.3852 38.3057 23.8368 37.1454L24.5196 36.858C24.9673 37.816 25.6277 38.6676 26.4784 39.3595L27.0156 38.7315C26.0978 37.9757 25.4038 36.9857 25.0345 35.8893C24.6427 34.7291 24.5867 33.4517 24.9785 32.185C25.6165 30.0987 27.2955 28.5552 29.3214 27.9272C30.5415 27.5546 31.8847 27.512 33.2167 27.8739C34.0786 28.1081 34.8509 28.502 35.5113 29.0023L35.9926 28.3317C35.3994 27.8846 34.7278 27.5333 33.989 27.2672C33.9778 27.2566 33.9554 27.2566 33.9442 27.2566C33.7875 27.2033 33.6196 27.1395 33.4517 27.0969C31.963 26.6817 30.4408 26.735 29.064 27.1608C27.8775 27.5227 26.803 28.172 25.9299 29.0342L25.3926 28.5446C26.3441 27.5972 27.5305 26.8946 28.8289 26.4901C29.5565 26.2666 30.3176 26.1389 31.09 26.1176L31.0564 25.3086C30.2057 25.3405 29.3662 25.4789 28.5715 25.7237C28.37 25.7876 28.1797 25.8515 27.9783 25.926L27.6984 25.266C27.9111 25.1915 28.1238 25.117 28.3364 25.0531C29.3214 24.7551 30.3512 24.5954 31.4146 24.5954H31.7728L31.8399 26.1282C32.4443 26.1602 33.06 26.256 33.6644 26.4263C33.9442 26.5008 34.2017 26.5859 34.4591 26.6924C34.5487 26.6711 34.627 26.6285 34.683 26.5434C34.8061 26.3731 34.9964 26.2453 35.2091 26.1282C34.7949 25.9366 34.3584 25.777 33.8995 25.6492C33.6756 25.5854 33.4517 25.5321 33.2279 25.4896L33.3846 24.7976C33.6196 24.8509 33.8659 24.9041 34.1009 24.968C34.7725 25.1489 35.4105 25.415 36.015 25.7131C36.1269 25.6492 36.2276 25.5854 36.3172 25.5108C36.3508 25.5215 36.3732 25.2873 36.3844 24.9786C35.7463 24.6593 35.0636 24.3932 34.3472 24.1909C32.2205 23.6055 30.049 23.6693 28.0902 24.2761C27.2955 24.5209 26.5343 24.8509 25.8292 25.266L26.6799 26.5434L26.3776 26.735C25.3143 27.3949 24.3964 28.2784 23.7025 29.3216L25.0009 30.1838L24.8442 30.4606C24.5643 30.929 24.3405 31.4292 24.1838 31.9721C23.848 33.0579 23.8032 34.1649 24.0047 35.2081L23.2771 35.3358C23.0644 34.1862 23.1204 32.9727 23.4786 31.7805C23.6241 31.3015 23.8144 30.8332 24.0495 30.4074L23.3443 29.939C23.0644 30.4393 22.8294 30.9822 22.6615 31.557C22.1354 33.2814 22.2026 35.0378 22.7398 36.6238C23.6353 39.2637 25.8516 41.4458 28.8625 42.2761C29.6237 42.489 30.396 42.5955 31.1571 42.6167V41.8078C30.4743 41.7865 29.7804 41.6907 29.0976 41.4991C28.6946 41.382 28.3141 41.2542 27.9447 41.0946L28.2581 40.4559C28.5939 40.6049 28.9409 40.7327 29.3103 40.8285C30.049 41.0307 30.7989 41.1265 31.5265 41.1159L31.9071 41.1052L31.8959 42.6167C32.6794 42.5742 33.4517 42.4358 34.1905 42.2123C35.2315 41.8929 36.1941 41.4033 37.0559 40.7539L37.3246 40.5517L38.3879 41.6694C39.899 40.4346 41.0631 38.774 41.6675 36.8154C41.925 35.9745 42.0593 35.1229 42.0929 34.2927L42.8316 34.3139C42.8092 35.2081 42.6525 36.1129 42.3839 37.0177C41.9921 38.295 41.3765 39.4553 40.593 40.4665L41.2534 40.9881C41.869 40.2004 42.3951 39.3276 42.7981 38.3802L43.4696 38.6357C43.5256 38.4228 43.5928 38.2099 43.6711 37.997C43.7831 37.7202 43.895 37.4541 44.0181 37.1773L43.2906 37.039L43.2682 36.7941Z" fill="#00F0FF"/>
<path d="M19.74 39.5618L19.449 39.7001C19.6169 40.3069 20.7922 42.1803 20.8145 42.2229C21.1839 42.7339 23.7472 45.5228 28.2356 46.3743L28.3476 45.9911C28.1349 45.9485 27.9222 45.8953 27.7096 45.8315C24.1165 44.8415 21.3182 42.4997 19.74 39.5618Z" fill="#00F0FF"/>
<path d="M33.5762 27.0121C33.5877 27.0121 33.5877 27.0121 33.5762 27.0121C33.5877 27.001 33.5877 27.001 33.5877 27.001C33.5762 27.001 33.5762 27.001 33.5762 27.0121C33.5072 27.0568 33.5187 27.0568 33.5762 27.0121Z" fill="#00F0FF"/>
<path d="M43.3801 38.657C43.3913 38.6357 43.4025 38.6144 43.4137 38.5824H43.4025C43.4025 38.6037 43.3913 38.625 43.3801 38.657C43.3913 38.6463 43.3801 38.657 43.3801 38.657Z" fill="#00F0FF"/>
<path d="M20.7587 26.7237C20.8257 26.6705 20.8928 26.628 20.9598 26.5749C20.9933 26.543 21.0492 26.5324 21.105 26.5218L20.9821 26.4368C20.8927 26.5218 20.8369 26.628 20.7587 26.7237Z" fill="#00F0FF"/>
<path d="M54.8755 19.6245C54.8196 19.5713 54.8307 19.4542 54.8195 19.369C54.5845 17.9533 53.3197 17.5381 52.1108 18.2407C51.5399 18.5707 50.9579 18.9965 50.3311 19.071C49.5699 19.1668 49.2006 19.4861 48.8648 20.0929C48.5514 20.6677 48.1596 21.2851 47.6223 21.6363C46.9843 22.0621 46.7381 22.3602 47.1522 22.9775C47.2641 23.1479 47.3425 23.2862 47.2865 23.414C47.2529 23.4778 47.1858 23.5524 47.0515 23.6162C46.9395 23.6694 46.8388 23.8185 46.794 23.9675C46.7716 24.0207 46.7604 24.0846 46.7492 24.1272C46.6933 24.5317 46.7828 24.9574 46.6821 25.3406C46.6821 25.3513 46.6821 25.3726 46.6709 25.3832C46.559 25.7664 46.5478 26.1709 46.559 26.5648C46.559 27.1077 46.5813 27.6612 46.3911 28.1828C46.3463 28.3105 46.2903 28.4276 46.2232 28.5447C46.156 28.6724 46.2344 28.8747 46.2567 29.194C46.4023 29.0982 46.5366 29.0024 46.6709 28.9066C46.9171 28.7256 47.1634 28.566 47.3873 28.4063C47.5999 28.2573 47.8014 28.1189 48.0141 27.9912L48.0253 27.9805C48.2603 27.8315 48.4954 27.6718 48.7304 27.5122C48.9431 27.3738 49.1446 27.2354 49.3573 27.1077C49.7602 26.8522 50.1632 26.6286 50.5997 26.4796C51.5399 26.1603 52.0212 25.4897 52.5249 24.8404C53.1965 23.9781 53.8234 23.0627 54.3606 22.1153C54.786 21.3276 55.7934 20.6357 54.8755 19.6245Z" fill="#00F0FF"/>
<path d="M45.0815 31.8764C45.0703 31.8658 45.0591 31.8551 45.0479 31.8338C45.0368 31.8019 45.0368 31.77 45.0368 31.738C45.2382 31.1632 45.1375 30.8226 44.8129 30.7055C44.6226 30.6416 44.354 30.6523 44.0182 30.7268C43.9846 30.7374 43.9622 30.7374 43.9398 30.7481C44.4435 32.5577 44.5331 34.495 44.1077 36.4323L44.2308 36.4536C44.3875 36.0917 44.5331 35.7298 44.6898 35.3679C44.8689 34.9314 45.1151 34.5056 45.1711 34.0586C45.1823 33.9734 45.2047 33.8883 45.2382 33.8031C45.4509 33.1538 46.0889 32.4832 45.0815 31.8764Z" fill="#00F0FF"/>
<path d="M31.6386 6.58467C31.8624 6.94658 32.2094 7.28721 32.2542 7.67042C32.3549 8.53263 32.7579 9.37356 32.4557 10.2571C32.3997 10.4061 32.5564 10.6083 32.534 10.7786C32.5004 11.2364 32.8698 11.8218 32.0975 12.0879C32.0079 12.1199 32.0079 12.386 31.9744 12.4924C32.2766 12.5563 32.6795 12.5776 32.6907 12.6627C32.7691 13.0566 32.8922 13.5569 32.7019 13.8443C32.3661 14.3446 32.6124 14.7278 32.7355 15.1536C32.7803 15.292 32.9146 15.3984 32.9482 15.5368C33.0041 15.771 33.0489 16.0052 33.0937 16.2393C33.2728 17.027 33.519 17.7722 34.4033 18.2192C34.6271 18.3363 34.8734 18.4215 35.1196 18.5279C35.1644 18.3896 35.2092 18.2618 35.254 18.1234C35.2987 17.9744 35.3435 17.836 35.3659 17.687C35.3771 17.6018 35.3323 17.506 35.2875 17.4102C35.2652 17.357 35.2428 17.3144 35.2204 17.2612C35.3099 17.2612 35.3995 17.2719 35.489 17.2825C35.5226 17.0696 35.5562 16.8567 35.601 16.6438C35.6457 16.4097 35.6905 16.1755 35.7129 15.9519C35.7465 15.622 35.7353 15.3026 35.6233 14.9833C35.8584 14.7065 36.2054 14.4617 36.1606 14.302C36.1047 14.0359 35.8136 13.8017 35.5898 13.5782C35.3659 13.344 35.1085 13.1418 34.8398 12.9076C35.1085 12.7479 35.2987 12.6308 35.3435 12.6095C35.3211 11.3322 35.2987 10.1719 35.2764 9.001C35.1085 8.96906 34.9294 8.93713 34.7391 8.90519C34.7279 8.85197 34.7279 8.79875 34.7167 8.74552C34.9406 8.68166 35.1644 8.60714 35.2987 8.56457C35.3211 8.28781 35.3323 8.05362 35.3323 8.01104C35.0861 7.55333 34.8734 7.28721 34.8174 6.98916C34.795 6.86143 35.0973 6.68047 35.2092 6.51015C35.3099 6.35048 35.4219 6.18017 35.4443 5.99921C35.6793 4.47703 35.1308 3.08259 34.4928 1.75201C33.9779 0.69819 32.8139 0.325628 31.84 0.762058C31.5938 0.868504 31.4259 1.16655 31.2804 1.40074C31.1908 1.53912 31.2356 1.74136 31.1908 1.90103C30.9894 2.61422 30.5976 3.33806 30.6312 4.05125C30.6536 4.77508 31.0789 5.48827 31.3475 6.20146C31.4259 6.35048 31.5602 6.45693 31.6386 6.58467Z" fill="#00F0FF"/>
<path d="M21.3408 14.0146C21.3743 14.1104 21.4191 14.1743 21.4079 14.2381C21.2288 15.4942 21.4415 16.6545 21.9788 17.7828C22.0683 17.9744 22.169 18.166 22.281 18.3576C22.2922 18.3789 22.3034 18.3895 22.3146 18.4108C22.4825 18.6769 22.6951 18.8685 22.919 19.0282C23.1541 19.1879 23.4227 19.3156 23.6689 19.4646C23.7585 19.5179 23.8592 19.5711 23.9488 19.6243C24.0383 19.6882 24.3293 19.5924 24.4413 19.4966C24.6651 19.2943 24.889 19.0708 25.1017 18.8579C25.292 18.6663 25.471 18.4747 25.6613 18.2831C25.583 18.1766 25.5046 18.0808 25.4375 17.985C25.3367 17.8573 25.2472 17.7296 25.1352 17.5912C25.4487 17.5273 25.6837 17.4741 25.9188 17.4315C25.9635 17.2719 25.9859 17.1228 25.9971 16.9632C26.0195 16.7183 26.0083 16.4735 25.9524 16.2393C25.8852 15.9306 25.7621 15.6219 25.5718 15.3239C25.4487 15.1323 25.3367 14.9194 25.3031 14.7065C25.2136 14.121 24.7659 13.9188 24.2622 13.7591C24.0383 13.6846 23.7585 13.6846 23.613 13.5462C23.501 13.4504 23.4898 13.163 23.5458 12.9927C23.5906 12.8437 23.7809 12.7372 23.9152 12.6095C23.7361 12.4818 23.5458 12.3434 23.3331 12.1944C23.3331 12.1092 23.3443 11.9708 23.3331 11.8431C23.2324 10.438 23.3555 8.94776 21.7549 8.25586C21.8221 7.80879 21.99 7.38301 21.9116 7.01044C21.7997 6.52079 21.4975 6.07372 21.2512 5.60535C20.9154 4.96668 20.7811 4.29607 20.9714 3.60417C20.7587 3.4445 20.5572 3.29547 20.3557 3.14645C19.6842 2.66744 19.3596 2.71002 18.688 3.21032C18.5313 3.32741 18.2178 3.31676 17.9828 3.28483C17.0202 3.16774 16.1359 3.62546 16.1135 4.37058C16.1023 4.91345 16.1471 5.50955 16.3598 5.99921C16.7627 6.904 17.3 7.74492 17.7925 8.60714C17.8485 8.70294 18.0276 8.71358 18.1395 8.78809C18.2402 8.85196 18.3634 8.91583 18.3969 9.01163C18.632 9.5758 18.8111 10.1506 19.0573 10.7041C19.4715 11.6409 19.9416 12.5563 20.3446 13.5037C20.546 13.9614 20.8259 14.1636 21.3408 14.0146Z" fill="#00F0FF"/>
<path d="M9.07303 17.091C9.21854 17.6446 10.0804 18.0278 10.6065 18.4961C11.099 18.9219 11.7034 19.2838 12.0392 19.8054C12.7892 20.9763 13.7406 21.945 14.804 22.8391C15.0166 23.0201 15.2293 23.1798 15.4532 23.3501C15.6434 23.4991 15.8337 23.6481 16.024 23.7971C16.2031 23.9355 16.3934 24.0739 16.5725 24.2229C16.6172 24.2549 16.6508 24.2868 16.6956 24.3294C16.8747 24.4784 17.065 24.6381 17.2441 24.8084C17.412 24.9574 17.5799 25.1171 17.759 25.2767C17.7701 25.2555 17.7813 25.2448 17.7925 25.2235C17.9604 25 18.1059 24.819 18.2291 24.6487C18.3298 24.5103 18.4305 24.3932 18.5201 24.2655C17.8709 23.8291 17.8709 23.6801 18.2962 22.8285C18.3074 22.7966 18.3186 22.7646 18.341 22.7327C18.4194 22.5624 18.4865 22.3708 18.5201 22.1898C18.5537 22.0301 18.5537 21.8811 18.4865 21.7853C18.3858 21.6469 18.2738 21.4979 18.1731 21.3595C18.0276 21.1679 17.8821 20.9763 17.7254 20.7847C17.1993 20.146 16.5725 19.6138 15.6434 19.4754C15.4084 19.0922 15.1174 18.7729 14.7928 18.4748C14.1771 17.9107 13.5839 17.3146 12.9011 16.8356C12.5541 16.5907 12.4198 16.4204 12.5541 16.0479C12.6101 15.9201 12.5989 15.7605 12.6325 15.5901C11.7146 15.4943 10.6177 15.835 10.3379 14.5895C10.7408 14.2489 10.9647 14.515 11.2221 14.7599C11.4348 14.9621 11.7034 15.1324 11.9497 15.3134C11.9721 14.7812 11.9945 14.366 12.028 13.9083C11.8378 13.6635 11.5803 13.3441 11.1997 12.8545C11.2669 11.4281 11.3005 11.6729 9.97968 11.0768C9.85656 11.0555 9.74462 11.0342 9.68866 10.981C9.15138 10.4807 8.55814 10.6191 7.88655 10.7575C7.9761 11.0768 8.04326 11.3536 8.14399 11.6303C8.19996 11.79 8.31189 11.939 8.40144 12.0987C8.22235 12.1413 8.03206 12.2158 7.85297 12.2264C6.66649 12.301 6.70007 12.3648 7.09183 13.3548C7.59553 14.6641 8.70366 15.6753 9.07303 17.091Z" fill="#00F0FF"/>
<path d="M18.7663 30.7265C18.6432 30.7372 18.52 30.7372 18.3745 30.7478C18.3521 31.131 18.1171 31.3546 17.7141 31.4291C17.6805 31.4291 17.647 31.4397 17.6134 31.4397C17.5462 31.4504 17.5014 31.461 17.4231 31.461C17.2888 31.461 17.1433 31.6739 16.9977 31.791C16.8187 31.9507 16.6396 32.1103 16.4269 32.2913C16.2814 32.1316 16.1583 31.972 16.0351 31.8229C15.8896 31.6526 15.7553 31.5036 15.5874 31.3652C15.5426 31.3226 15.4531 31.312 15.3523 31.312C15.2292 31.312 15.0949 31.3333 15.0054 31.3759C14.8151 31.4717 14.6919 31.6739 14.5352 31.8336C14.4905 31.8229 14.4457 31.8123 14.3897 31.8016C14.3673 31.791 14.3338 31.791 14.3114 31.7804C14.3562 31.5142 14.4121 31.2375 14.4681 30.8862C14.345 30.7904 14.1771 30.5882 13.9532 30.4817C13.9308 30.4711 13.9084 30.4604 13.886 30.4498C13.6174 30.322 13.36 30.205 13.0913 30.0772C12.8675 29.9708 12.6436 29.8643 12.4085 29.7685C12.0168 29.5876 11.6138 29.4173 11.2109 29.2469C10.3714 28.885 9.5095 28.587 8.65881 28.2357C8.36779 28.1186 8.06557 27.7993 7.81932 27.8418C7.17012 27.9483 6.67762 28.0015 6.22989 27.3735C5.8829 26.8838 5.25608 26.5858 4.85313 26.1281C4.53972 25.7129 4.13676 25.5533 3.59949 25.5533C3.46517 25.5533 3.33085 25.4575 3.19653 25.4149C3.30846 25.3191 3.4092 25.2233 3.45398 25.1913C3.06221 24.9359 2.67045 24.6804 2.27869 24.4356C2.22272 24.4036 2.12198 24.393 2.07721 24.4249C1.69664 24.691 1.24891 24.9039 0.991471 25.2552C0.700447 25.6491 0.666868 26.1281 1.12579 26.5219C2.04363 27.3203 2.92789 28.1505 3.86812 28.9276C4.11437 29.1405 4.46136 29.2469 4.78597 29.364C5.17773 29.5024 5.78216 29.4811 5.92767 29.7366C6.52091 30.6946 7.56188 30.8436 8.47972 31.1843C9.16251 31.4397 9.92365 31.493 10.6176 31.7165C11.0989 31.8655 11.5467 32.0997 12.0056 32.3019C12.1847 32.3765 12.3638 32.451 12.554 32.5148C12.61 32.5361 12.666 32.5468 12.7108 32.5681C13.1473 32.7171 13.5055 32.9087 13.6734 33.3877C13.7405 33.5687 14.0763 33.6538 14.289 33.7922C14.3114 33.7496 14.345 33.7177 14.3673 33.6857C14.3114 33.558 14.2442 33.4303 14.1435 33.228C14.4905 33.2706 14.8151 33.3132 15.1397 33.3558C15.33 33.3877 15.5202 33.409 15.7217 33.4303C15.8672 34.2286 15.4307 35.3037 16.55 35.836C16.5836 35.8573 16.6172 35.8679 16.662 35.8892C16.6731 35.8998 16.6731 35.9318 16.6843 35.9531C16.7739 36.0914 16.8522 36.2405 16.9418 36.3788C17.3224 37.0282 17.7029 37.6775 18.1059 38.3055C18.1171 38.3268 18.173 38.3162 18.229 38.3162C18.3745 38.2949 18.5984 38.2204 18.7439 38.1671C18.811 38.1458 18.8446 38.0713 18.867 37.9649C18.9118 37.9649 18.923 37.8584 18.9566 37.8584C18.9454 37.8265 18.9342 37.7946 18.923 37.7626C18.1954 35.5379 18.0947 33.1109 18.7663 30.7265Z" fill="#00F0FF"/>
<path d="M26.4671 32.7174C26.4111 32.8984 26.3776 33.0793 26.344 33.2603C26.3776 33.0793 26.4223 32.8984 26.4671 32.7174Z" fill="#00F0FF"/>
</g>
<defs>
<clipPath id="clip0">
<rect width="172.588" height="46.3041" fill="white" transform="translate(0.778809 0.591553)"/>
</clipPath>
</defs>
</svg>
