<svg width="176" height="58" viewBox="0 0 176 58" fill="none" xmlns="http://www.w3.org/2000/svg">
<path d="M73.0189 5.03275C72.5474 4.72549 71.9724 4.46489 71.321 4.24467C76.0083 1.91517 81.452 0.580811 87.264 0.580811C93.2646 0.580811 98.8727 2.00305 103.661 4.47426C103.071 4.71826 102.563 5.00358 102.165 5.33627C97.7553 3.23222 92.6713 2.03352 87.2641 2.03352C82.1227 2.03352 77.2736 3.11734 73.0189 5.03275Z" fill="#00F0FF"/>
<path d="M116.488 35.4133C116.95 35.5034 117.437 35.5528 117.922 35.5396C115.454 42.9291 109.462 49.0482 101.597 52.4533C101.615 52.0245 101.514 51.5436 101.278 51.0185C108.541 47.8169 114.104 42.2035 116.488 35.4133Z" fill="#00F0FF"/>
<path d="M101.13 50.7177C108.313 47.5572 113.801 42.019 116.163 35.3424C115.58 35.2015 115.053 35.0006 114.646 34.7884C113.581 37.3241 109.778 36.2146 108.409 35.4228L108.407 35.4174C106.16 39.2117 102.247 42.2959 97.3913 44.1136L101.083 50.6311C101.099 50.6601 101.115 50.6889 101.13 50.7177Z" fill="#00F0FF"/>
<path d="M97.0776 44.2288L100.8 50.8004C100.809 50.8168 100.818 50.8331 100.827 50.8493C99.7069 51.3285 98.547 51.7501 97.3523 52.1097C97.3474 52.0968 97.3424 52.0839 97.3374 52.0709L96.923 51.0315L94.7379 45.2825L94.7352 45.2762C94.6955 45.183 94.6827 45.0779 94.6926 44.966C95.5088 44.7536 96.3047 44.5071 97.0776 44.2288Z" fill="#00F0FF"/>
<path d="M91.7584 45.5668C92.5891 45.4411 93.404 45.2813 94.2004 45.0893L96.6185 51.1548L97.0189 52.2082C95.8557 52.5453 94.6603 52.8237 93.4376 53.0394L92.3683 48.4382L91.7486 45.6399C91.7506 45.6157 91.7539 45.5914 91.7584 45.5668Z" fill="#00F0FF"/>
<path d="M88.9387 45.8561C89.7741 45.8102 90.5974 45.7302 91.4061 45.6179C91.4112 45.6335 91.4156 45.6494 91.4193 45.6654C91.4166 45.7553 91.4261 45.8461 91.4506 45.9367L92.0519 48.5242L93.0658 53.1029C91.8776 53.2993 90.6642 53.4364 89.4301 53.5107L89.3487 52.4262L88.9188 46.0888L88.9181 46.0817C88.9101 46.0077 88.9177 45.932 88.9387 45.8561Z" fill="#00F0FF"/>
<path d="M86.0052 45.876C86.4221 45.8932 86.8418 45.9019 87.2643 45.9019C87.6883 45.9019 88.1098 45.8932 88.5283 45.8758C88.5315 45.8971 88.5336 45.9184 88.5343 45.9398L89.0227 52.4512L89.0958 53.5292C88.4899 53.56 87.8792 53.5756 87.2641 53.5756C86.6498 53.5756 86.0399 53.56 85.4349 53.5293L85.4881 52.7452L85.9989 45.9467L85.9991 45.9398C85.9999 45.9184 86.0019 45.8972 86.0052 45.876Z" fill="#00F0FF"/>
<path d="M83.1245 45.6182C83.9332 45.7304 84.7565 45.8103 85.5919 45.8562C85.6129 45.932 85.6204 46.0077 85.6124 46.0817L85.1622 52.7169L85.1026 53.5109C83.8677 53.4368 82.6536 53.2997 81.4647 53.1033L82.4838 48.5022L83.0797 45.9367C83.1041 45.8465 83.1136 45.7561 83.1111 45.6667C83.1148 45.6503 83.1193 45.6342 83.1245 45.6182Z" fill="#00F0FF"/>
<path d="M80.33 45.0898C81.1264 45.2817 81.9413 45.4415 82.772 45.5671C82.7766 45.592 82.7799 45.6167 82.7818 45.6412L82.1636 48.4329L81.0934 53.0399C79.8707 52.8244 78.6754 52.546 77.5122 52.209L77.9013 51.1853L80.33 45.0898Z" fill="#00F0FF"/>
<path d="M77.4534 44.2298C78.2264 44.5081 79.0225 44.7545 79.8389 44.9668C79.8485 45.0784 79.8356 45.1832 79.796 45.2761L77.5986 51.0572L77.1954 52.0694L77.1948 52.0709C77.1896 52.0842 77.1845 52.0975 77.1795 52.1108C75.9844 51.7512 74.8242 51.3296 73.7041 50.8504C73.7132 50.8336 73.7225 50.8167 73.7319 50.7997L77.4534 44.2298Z" fill="#00F0FF"/>
<path d="M77.1395 44.1146C72.4514 42.3603 68.6429 39.4257 66.3628 35.811C64.6699 36.4763 61.8439 36.9184 60.9485 34.7884C60.3166 35.1177 59.3959 35.4197 58.4264 35.5125C60.821 42.1137 66.2782 47.5853 73.4007 50.7188C73.4162 50.6897 73.4321 50.6604 73.4484 50.6311L73.4491 50.6298L77.1395 44.1146Z" fill="#00F0FF"/>
<path d="M73.253 51.0196C66.033 47.8376 60.4918 42.272 58.0839 35.5363C57.5685 35.558 57.0473 35.5157 56.5555 35.3827C58.9908 42.843 65.0133 49.0253 72.9345 52.4543C72.9166 52.0256 73.0168 51.5447 73.253 51.0196Z" fill="#00F0FF"/>
<path d="M76.2972 53.7063C75.2635 53.381 74.255 53.0112 73.2747 52.5994C73.2236 52.1996 73.2987 51.7154 73.5547 51.1508C74.688 51.6367 75.8616 52.0642 77.07 52.4287C77.0612 52.4574 77.0527 52.4859 77.0445 52.5143C76.8285 53.0608 76.5735 53.4473 76.2972 53.7063Z" fill="#00F0FF"/>
<path d="M76.6549 53.8167C76.7434 53.8435 76.8321 53.87 76.921 53.8962C76.9024 53.775 76.8927 53.6482 76.8923 53.5161C76.8163 53.626 76.7371 53.7261 76.6549 53.8167Z" fill="#00F0FF"/>
<path d="M80.4017 54.7332C79.3382 54.533 78.2948 54.2871 77.2743 53.9982C77.1862 53.6301 77.1979 53.1744 77.3532 52.6271L77.3555 52.6213L77.3924 52.5242C78.57 52.8668 79.7799 53.1498 81.017 53.369L81.0113 53.3933C80.8656 53.9964 80.6541 54.4317 80.4017 54.7332Z" fill="#00F0FF"/>
<path d="M80.768 54.8003C80.8729 54.8189 80.978 54.8371 81.0833 54.8549C81.0476 54.7081 81.0235 54.5514 81.0117 54.385C80.9374 54.5377 80.856 54.6761 80.768 54.8003Z" fill="#00F0FF"/>
<path d="M84.6821 55.2803C83.5846 55.2049 82.5029 55.0817 81.4399 54.9132C81.3183 54.5317 81.2891 54.0426 81.3964 53.434C82.6014 53.6339 83.8315 53.7734 85.0822 53.8487C85.0817 53.8655 85.0812 53.8822 85.0809 53.8988C85.0266 54.499 84.884 54.9501 84.6821 55.2803Z" fill="#00F0FF"/>
<path d="M85.0469 55.3036C85.132 55.3087 85.2173 55.3134 85.3027 55.3178C85.259 55.2095 85.2213 55.0941 85.19 54.9718C85.1475 55.0899 85.0997 55.2005 85.0469 55.3036Z" fill="#00F0FF"/>
<path d="M88.8457 55.3357C88.3217 55.3577 87.7944 55.3688 87.264 55.3688C86.7298 55.3688 86.1987 55.3575 85.671 55.3352C85.4966 54.9858 85.3954 54.5195 85.4075 53.9185L85.4108 53.8795L85.4118 53.867C86.0246 53.8983 86.6422 53.9141 87.2641 53.9141C87.8868 53.9141 88.5052 53.8982 89.1189 53.8669C89.121 53.893 89.1232 53.919 89.1256 53.9447C89.1343 54.5423 89.0286 54.9971 88.8457 55.3357Z" fill="#00F0FF"/>
<path d="M89.2193 55.3182C89.3078 55.3136 89.3961 55.3087 89.4843 55.3035C89.4308 55.1991 89.3824 55.087 89.3395 54.9672C89.3064 55.0917 89.2662 55.2086 89.2193 55.3182Z" fill="#00F0FF"/>
<path d="M93.091 54.9128C92.0281 55.0813 90.9465 55.2046 89.8492 55.2801C89.6501 54.9548 89.5086 54.512 89.4523 53.9251C89.4519 53.8998 89.4512 53.8742 89.4504 53.8484C90.7004 53.773 91.9299 53.6335 93.1342 53.4336C93.2415 54.0422 93.2124 54.5313 93.091 54.9128Z" fill="#00F0FF"/>
<path d="M93.4475 54.8545C93.553 54.8367 93.6582 54.8185 93.7633 54.7998C93.6751 54.6754 93.5935 54.5368 93.519 54.3837C93.5073 54.5505 93.4832 54.7075 93.4475 54.8545Z" fill="#00F0FF"/>
<path d="M97.2576 53.9973C96.2368 54.2864 95.1932 54.5324 94.1295 54.7327C93.8771 54.4312 93.6655 53.9961 93.5199 53.3933L93.5141 53.3684C94.7512 53.1492 95.9611 52.8661 97.1387 52.5234L97.1753 52.6198L97.1759 52.6214L97.1802 52.6323C97.3337 53.1768 97.3451 53.6306 97.2576 53.9973Z" fill="#00F0FF"/>
<path d="M97.6108 53.8953C97.6995 53.8692 97.788 53.8428 97.8763 53.816C97.7943 53.7256 97.7153 53.6257 97.6394 53.5161C97.639 53.6479 97.6293 53.7743 97.6108 53.8953Z" fill="#00F0FF"/>
<path d="M101.257 52.5984C100.276 53.0103 99.2677 53.3803 98.2339 53.7056C97.9587 53.4474 97.7046 53.0628 97.4889 52.5196C97.4802 52.4891 97.4711 52.4585 97.4616 52.4277C98.6698 52.0631 99.8432 51.6355 100.976 51.1496C101.233 51.7144 101.308 52.1984 101.257 52.5984Z" fill="#00F0FF"/>
<path d="M101.9 5.58105C101.695 5.79186 101.531 6.01983 101.413 6.26623C100.05 9.10443 101.098 10.0593 102.307 11.1618L102.326 11.1784C102.496 11.3341 102.724 11.5085 102.989 11.7117C104.434 12.8183 106.993 14.7787 107.544 19.2201C103.566 13.7467 95.9751 10.0477 87.2643 10.0477C79.487 10.0477 72.6025 12.9964 68.3857 17.5238C69.2861 14.2555 71.3611 12.6661 72.607 11.7117C72.8723 11.5085 73.1 11.3341 73.2707 11.1784L73.2877 11.163C74.4985 10.0601 75.5464 9.10552 74.1837 6.26623C74.0024 5.88843 73.713 5.55394 73.3352 5.25821C77.4993 3.41501 82.2357 2.37207 87.2641 2.37207C92.5791 2.37207 97.5681 3.53724 101.9 5.58105Z" fill="#00F0FF"/>
<path d="M85.4061 53.9158C85.4081 53.8941 85.4099 53.8721 85.4116 53.85L85.4867 52.7427L85.9975 45.944L85.9978 45.9371C86.0069 45.6794 86.203 45.4317 86.4914 45.2369C86.7773 45.0438 87.098 44.9414 87.265 44.9414C87.4325 44.9414 87.7534 45.0438 88.0394 45.2369C88.3279 45.4317 88.5238 45.6794 88.533 45.9371L89.0213 52.4486L89.1163 53.8484L89.1164 53.8501C89.1188 53.8811 89.1214 53.9117 89.1243 53.942C89.1357 54.7316 88.9475 55.2718 88.6454 55.6242C88.3111 56.0142 87.8122 56.2034 87.2049 56.2195C86.6638 56.233 86.195 56.0483 85.8735 55.6517C85.578 55.2873 85.3899 54.723 85.4061 53.9158Z" fill="#00F0FF"/>
<path d="M85.1609 52.7146L85.611 46.079C85.6388 45.8228 85.4803 45.5474 85.2227 45.3101C84.9675 45.0749 84.6649 44.9239 84.4997 44.898C84.3344 44.8726 84.0027 44.9247 83.6926 45.0716C83.3894 45.2153 83.165 45.4212 83.1097 45.664C83.1122 45.7534 83.1027 45.8438 83.0784 45.9341L82.4824 48.4994L81.4299 53.252L81.4297 53.2527C81.2356 54.169 81.3374 54.8314 81.6008 55.2764C81.8625 55.7185 82.3001 55.9734 82.8368 56.0431C83.4405 56.1219 83.9608 56.0119 84.3466 55.6776C84.7227 55.3518 84.9988 54.7887 85.0795 53.8961C85.0813 53.8172 85.0849 53.7366 85.0903 53.6541L85.0904 53.6525L85.1609 52.7146Z" fill="#00F0FF"/>
<path d="M89.4509 53.9225C89.4494 53.8353 89.4457 53.7459 89.4397 53.6541L89.3474 52.4234L88.9174 46.0861L88.9168 46.0791C88.889 45.8228 89.0477 45.5474 89.3053 45.3101C89.5605 45.0749 89.863 44.924 90.0282 44.898C90.1941 44.8726 90.5257 44.9247 90.8357 45.0716C91.1382 45.215 91.3622 45.4204 91.4179 45.6627C91.4153 45.7526 91.4248 45.8434 91.4492 45.9341L92.0506 48.5216L93.0981 53.252L93.0983 53.2527C93.2924 54.169 93.1906 54.8315 92.9273 55.2764C92.6657 55.7186 92.2283 55.9734 91.6921 56.0431C91.0884 56.1219 90.5681 56.0119 90.1822 55.6776C89.8097 55.3549 89.5352 54.7998 89.4509 53.9225Z" fill="#00F0FF"/>
<path d="M77.194 52.0667L77.5973 51.0546L79.7947 45.2734C79.8953 45.0375 79.8238 44.7249 79.6467 44.4176C79.4713 44.1132 79.2262 43.874 79.0755 43.797C78.9253 43.7201 78.594 43.6653 78.2559 43.708C77.9147 43.751 77.6344 43.8839 77.5175 44.111L77.5144 44.1172L73.7306 50.797C73.2802 51.6091 73.1848 52.2735 73.3071 52.7809C73.4287 53.2853 73.7724 53.6662 74.2644 53.9011C74.8176 54.1656 75.3456 54.2239 75.8099 54.0265C76.2713 53.8304 76.705 53.3672 77.0432 52.5116C77.0845 52.3681 77.1345 52.2202 77.1934 52.0682L77.194 52.0667Z" fill="#00F0FF"/>
<path d="M77.343 54.2203C77.1865 53.8188 77.1633 53.2891 77.3519 52.6244L77.3541 52.6187L77.8999 51.1827L80.3511 45.0308L80.3534 45.024C80.4384 44.782 80.698 44.6098 81.0302 44.5178C81.3594 44.4265 81.695 44.4327 81.8544 44.4868C82.0141 44.5415 82.2885 44.7426 82.5025 45.0184C82.6615 45.2233 82.7644 45.4394 82.7805 45.6385L82.1623 48.4301L81.01 53.3907C80.7902 54.3005 80.4206 54.8283 79.9868 55.0913C79.5536 55.354 79.023 55.3726 78.4396 55.1906C77.9216 55.029 77.5307 54.7019 77.343 54.2203Z" fill="#00F0FF"/>
<path d="M97.4876 52.5169C97.446 52.3717 97.3956 52.2221 97.336 52.0682L96.9216 51.0288L94.7365 45.2798L94.7339 45.2735C94.6333 45.0376 94.7051 44.7251 94.8823 44.4177C95.0578 44.1132 95.3028 43.874 95.4531 43.797C95.6034 43.7202 95.9346 43.6653 96.2728 43.708C96.614 43.751 96.8941 43.884 97.011 44.1111L100.798 50.7977C101.249 51.6097 101.344 52.2735 101.222 52.7809C101.1 53.2853 100.756 53.6662 100.264 53.9011C99.711 54.1656 99.1833 54.2239 98.7191 54.0265C98.2588 53.8309 97.826 53.3691 97.4876 52.5169Z" fill="#00F0FF"/>
<path d="M96.6171 51.1521L94.1741 45.024C94.0892 44.782 93.8298 44.6098 93.4978 44.5177C93.169 44.4266 92.8336 44.4327 92.6742 44.4868C92.5148 44.5415 92.2401 44.7427 92.0258 45.0185C91.8669 45.2229 91.7638 45.4385 91.7472 45.6372L92.367 48.4358L93.5185 53.3907C93.7383 54.3004 94.1083 54.8282 94.5423 55.0913C94.9759 55.3541 95.5065 55.3725 96.089 55.1905C96.6074 55.029 96.9983 54.7019 97.186 54.2203C97.3421 53.8198 97.3656 53.2919 97.1788 52.6296L97.1746 52.6187L97.174 52.6172L96.6171 51.1521Z" fill="#00F0FF"/>
<path fill-rule="evenodd" clip-rule="evenodd" d="M5.42765 4.52323C10.1428 4.52323 21.0951 4.83996 23.2242 4.83996C25.3542 4.83996 40.4136 6.58294 42.7702 7.37477C43.8352 7.69247 44.0637 8.80102 42.7702 8.8802C41.4776 8.95939 25.9622 9.1979 23.6802 9.1979C21.3982 9.1979 5.77457 9.42289 3.67812 6.58294C2.15614 4.52323 4.05768 4.60242 5.42765 4.52323Z" fill="#00F0FF"/>
<path fill-rule="evenodd" clip-rule="evenodd" d="M8.24151 10.7024C10.9796 10.7816 24.669 10.8607 26.2665 10.7816C27.8631 10.7024 40.2609 9.98973 41.7064 9.90958C43.151 9.83039 44.5209 10.2263 44.5209 10.7024C44.5209 11.1775 44.2169 11.5734 42.5429 11.9703C40.8699 12.3662 25.43 14.1883 13.7177 13.9508C11.5121 14.0309 8.54647 12.8422 7.78548 11.7327C7.02449 10.6232 7.86102 10.7024 8.24151 10.7024Z" fill="#00F0FF"/>
<path fill-rule="evenodd" clip-rule="evenodd" d="M13.5656 15.9323C15.4671 15.9323 37.9032 14.1893 42.6193 13.159C44.2168 13.0006 45.2809 12.9214 45.4338 13.6341C45.5868 14.3467 45.5103 14.6634 44.1404 15.0603C42.7713 15.4562 26.1154 18.7046 17.6727 18.863C14.8581 18.7838 11.5876 16.0115 13.5656 15.9323Z" fill="#00F0FF"/>
<path fill-rule="evenodd" clip-rule="evenodd" d="M19.2703 20.8435C21.9319 20.5268 39.6529 17.5951 44.4454 16.248C46.3469 15.7729 47.2599 16.0105 47.4875 16.5648C47.716 17.12 47.716 18.0702 46.3469 18.5453C44.9779 19.0214 29.3105 22.8241 26.4204 22.9824C23.5303 23.1408 20.1077 22.4281 19.1947 21.7145C18.2808 21.0029 19.2703 20.8435 19.2703 20.8435Z" fill="#00F0FF"/>
<path fill-rule="evenodd" clip-rule="evenodd" d="M26.4192 24.9639C28.3208 24.568 43.7607 20.9237 48.1718 19.1807C49.4643 18.7838 49.9204 19.1807 50.1489 19.6558C50.3773 20.1319 50.4538 20.8445 49.6164 21.2404C48.7798 21.6373 36.9146 26.7871 31.2873 27.1038C29.2328 27.1038 27.5728 26.3178 26.6477 25.8359C26.0387 25.5182 26.2663 25.5182 26.4192 24.9639Z" fill="#00F0FF"/>
<path fill-rule="evenodd" clip-rule="evenodd" d="M51.5939 21.6363C49.8444 22.5073 39.197 27.182 35.0899 28.1332C33.9485 28.4499 33.3404 29.3219 34.7094 29.797C36.0785 30.273 39.2726 30.0355 41.1741 29.4802C43.0757 28.9259 50.7947 26.312 53.7612 23.3011C53.1532 22.9834 51.7459 21.953 51.5939 21.6363Z" fill="#00F0FF"/>
<path fill-rule="evenodd" clip-rule="evenodd" d="M54.788 24.3305C53.6465 25.1223 46.1942 29.1625 42.7707 30.273C41.6302 30.6689 42.1627 31.7785 43.3032 31.9368C44.4438 32.0952 47.3339 32.0952 50.7565 29.9553C52.81 28.6874 55.8521 26.3902 56.7651 25.5192C56.3091 25.2807 55.3205 24.6472 54.788 24.3305Z" fill="#00F0FF"/>
<path fill-rule="evenodd" clip-rule="evenodd" d="M58.2872 26.4694C56.3409 27.8579 51.8514 30.9461 51.138 31.4608C50.1485 32.1734 49.6169 33.3621 51.594 33.2037C53.5711 33.0454 57.2221 31.5399 60.1122 27.183C59.7327 27.0632 58.7432 26.7069 58.2872 26.4694Z" fill="#00F0FF"/>
<path fill-rule="evenodd" clip-rule="evenodd" d="M61.7095 27.6581C60.4925 28.926 58.6674 30.9847 57.3748 32.0952C56.5383 32.9662 57.1463 34.5508 58.5918 33.8382C60.0373 33.1255 62.6607 30.6699 63.3452 28.2133C62.8118 28.054 62.2037 27.8956 61.7095 27.6581Z" fill="#00F0FF"/>
<path fill-rule="evenodd" clip-rule="evenodd" d="M64.7515 29.6376C63.7629 30.9055 62.7744 31.9358 62.1654 32.7277C61.5574 33.5195 62.3174 34.3123 62.9264 34.5498C63.5344 34.7874 64.6759 35.4218 66.045 32.5693L64.7515 29.6376Z" fill="#00F0FF"/>
<path fill-rule="evenodd" clip-rule="evenodd" d="M35.2417 4.20554C37.2187 4.20554 43.9119 4.68063 46.346 4.68063C48.78 4.68063 54.4081 4.52227 56.4617 4.3639C58.5152 4.20554 63.9149 4.12635 66.0449 4.3639C68.174 4.60145 72.8901 4.91818 73.7266 7.21641C74.5632 9.51463 72.7381 10.7816 71.5975 11.6535C70.4561 12.5255 66.9579 14.6644 66.8059 20.2101C65.8929 19.8142 64.6004 19.5766 65.5124 17.5951C66.0449 16.4856 68.631 12.8413 68.0229 11.1775C67.414 9.51367 65.4369 8.1666 60.9493 8.00823C56.4617 7.84987 50.149 8.00823 47.9435 7.61135C45.7379 7.21544 37.2187 4.9964 35.4701 4.75885C34.7092 4.6816 34.7092 4.28569 35.2417 4.20554Z" fill="#00F0FF"/>
<path fill-rule="evenodd" clip-rule="evenodd" d="M53.1911 8.64266C54.7877 8.64266 60.6444 8.4843 62.3174 8.80103C63.9905 9.11776 66.0767 9.61989 66.957 11.1775C67.7171 12.5245 66.4245 14.6634 65.8165 15.5354C65.2075 16.4064 63.4589 18.1504 62.7744 18.7838C62.1654 19.2589 61.0249 18.4671 62.0143 17.2784C60.7208 18.0702 59.1243 17.9119 59.8843 16.0897C58.7428 17.0408 56.8413 17.12 57.9828 14.6634C57.2227 15.2969 55.0927 15.2187 56.4617 13.3164C55.3202 13.7123 54.0277 12.9996 54.8642 11.8109C53.4196 12.0485 52.5822 10.9399 54.1041 10.068C52.6586 10.4648 52.2781 8.72185 53.1911 8.64266Z" fill="#00F0FF"/>
<path fill-rule="evenodd" clip-rule="evenodd" d="M46.623 8.11253C44.6264 8.11253 44.5863 10.3586 46.8627 10.234C48.657 10.1355 50.8159 9.69328 50.7758 8.94491C50.7357 8.19557 48.1002 8.15405 46.623 8.11253Z" fill="#00F0FF"/>
<path fill-rule="evenodd" clip-rule="evenodd" d="M46.9016 10.5372C45.7834 10.7458 45.7433 11.2856 45.9028 11.7018C46.0623 12.118 46.6619 12.8248 48.6185 12.5342C50.575 12.2426 51.6531 11.4112 51.6531 10.7033C51.6531 9.99552 48.1 10.4542 46.9016 10.5372Z" fill="#00F0FF"/>
<path fill-rule="evenodd" clip-rule="evenodd" d="M48.8195 13.0334C48.0613 13.158 47.3553 13.7413 47.5819 14.4471C47.8608 15.321 49.5786 15.5711 51.495 14.5717C53.4115 13.5732 53.2921 13.3241 53.0916 12.7833C52.8921 12.2426 50.8954 12.6588 48.8195 13.0334Z" fill="#00F0FF"/>
<path fill-rule="evenodd" clip-rule="evenodd" d="M52.4128 14.3226C51.4942 14.6547 50.4963 15.154 49.7372 15.6532C48.9781 16.1525 48.3793 17.9408 51.2946 17.1509C54.2089 16.361 54.3693 15.3201 53.9693 14.6142C53.571 13.9064 52.6525 14.281 52.4128 14.3226Z" fill="#00F0FF"/>
<path fill-rule="evenodd" clip-rule="evenodd" d="M51.5052 17.7834C50.5064 18.4072 50.9858 20.8194 53.182 19.7379C55.3773 18.6564 56.8946 17.4918 56.5757 16.7009C56.2568 15.911 53.7416 16.5348 51.5052 17.7834Z" fill="#00F0FF"/>
<path fill-rule="evenodd" clip-rule="evenodd" d="M57.2918 18.3657C56.2529 18.8649 52.8593 20.0295 53.9774 21.5262C54.537 22.2746 55.6151 21.6508 56.0543 21.3602C56.4936 21.0685 58.8894 19.3632 58.2906 18.4478C58.0277 18.047 57.5315 18.2402 57.2918 18.3657Z" fill="#00F0FF"/>
<path fill-rule="evenodd" clip-rule="evenodd" d="M57.0596 21.1603C54.8634 22.6155 57.3394 23.864 58.7364 22.6155C59.4946 21.9386 61.0445 20.717 60.333 19.8286C59.7352 19.0803 57.7385 20.7856 57.0596 21.1603Z" fill="#00F0FF"/>
<path fill-rule="evenodd" clip-rule="evenodd" d="M60.5407 21.7503C59.8618 22.5402 58.2717 23.7327 59.5027 24.6201C60.5407 25.3685 61.1795 24.5786 61.6589 24.0379C62.1382 23.4971 63.9745 21.5832 63.2956 20.7933C62.6166 20.0034 61.1394 21.3756 60.5407 21.7503Z" fill="#00F0FF"/>
<path fill-rule="evenodd" clip-rule="evenodd" d="M65.1863 22.0554C64.4673 21.4731 63.0302 23.0539 62.5117 24.0108C61.9922 24.9668 62.3923 25.5076 62.9108 25.7577C63.4303 26.0078 64.3489 25.467 64.5475 24.9263C64.7471 24.3845 65.9044 22.8038 65.1863 22.0554Z" fill="#00F0FF"/>
<path fill-rule="evenodd" clip-rule="evenodd" d="M170.167 4.52323C165.451 4.52323 154.498 4.83996 152.369 4.83996C150.239 4.83996 135.18 6.58294 132.822 7.37477C131.757 7.69247 131.53 8.80102 132.822 8.8802C134.116 8.95939 149.63 9.1979 151.913 9.1979C154.194 9.1979 169.819 9.42289 171.916 6.58294C173.437 4.52323 171.536 4.60242 170.167 4.52323Z" fill="#00F0FF"/>
<path fill-rule="evenodd" clip-rule="evenodd" d="M167.352 10.7024C164.613 10.7816 150.924 10.8607 149.326 10.7816C147.729 10.7024 135.332 9.98973 133.887 9.90958C132.442 9.83039 131.072 10.2263 131.072 10.7024C131.072 11.1775 131.377 11.5734 133.05 11.9703C134.723 12.3671 150.163 14.1883 161.875 13.9508C164.081 14.0309 167.047 12.8422 167.808 11.7327C168.568 10.6232 167.732 10.7024 167.352 10.7024Z" fill="#00F0FF"/>
<path fill-rule="evenodd" clip-rule="evenodd" d="M162.028 15.9323C160.127 15.9323 137.69 14.1893 132.975 13.159C131.378 13.0006 130.313 12.9214 130.16 13.6341C130.007 14.3467 130.085 14.6634 131.454 15.0603C132.823 15.4562 149.479 18.7046 157.921 18.863C160.735 18.7838 164.006 16.0115 162.028 15.9323Z" fill="#00F0FF"/>
<path fill-rule="evenodd" clip-rule="evenodd" d="M156.324 20.8435C153.662 20.5268 135.94 17.5951 131.149 16.248C129.247 15.7729 128.334 16.0105 128.106 16.5648C127.878 17.12 127.878 18.0702 129.247 18.5453C130.616 19.0214 146.284 22.8241 149.174 22.9824C152.065 23.1408 155.487 22.4281 156.399 21.7145C157.312 21.0029 156.324 20.8435 156.324 20.8435Z" fill="#00F0FF"/>
<path fill-rule="evenodd" clip-rule="evenodd" d="M149.174 24.9639C147.273 24.568 131.833 20.9237 127.422 19.1807C126.129 18.7838 125.673 19.1807 125.445 19.6558C125.217 20.1319 125.141 20.8445 125.977 21.2404C126.813 21.6373 138.679 26.7871 144.307 27.1038C146.359 27.1038 148.02 26.3178 148.946 25.8359C149.555 25.5182 149.327 25.5182 149.174 24.9639Z" fill="#00F0FF"/>
<path fill-rule="evenodd" clip-rule="evenodd" d="M124 21.6363C125.749 22.5073 136.396 27.182 140.504 28.1332C141.645 28.4499 142.253 29.3219 140.883 29.797C139.514 30.273 136.32 30.0355 134.418 29.4802C132.517 28.9259 124.798 26.312 121.831 23.3011C122.44 22.9834 123.848 21.953 124 21.6363Z" fill="#00F0FF"/>
<path fill-rule="evenodd" clip-rule="evenodd" d="M120.805 24.3305C121.947 25.1223 129.4 29.1625 132.822 30.273C133.964 30.6689 133.431 31.7785 132.291 31.9368C131.149 32.0952 128.26 32.0952 124.838 29.9553C122.783 28.6874 119.741 26.3902 118.829 25.5192C119.284 25.2807 120.273 24.6472 120.805 24.3305Z" fill="#00F0FF"/>
<path fill-rule="evenodd" clip-rule="evenodd" d="M117.307 26.4694C119.254 27.8579 123.743 30.9461 124.457 31.4608C125.446 32.1734 125.978 33.3621 124.001 33.2037C122.024 33.0454 118.372 31.5399 115.481 27.183C115.862 27.0632 116.85 26.7069 117.307 26.4694Z" fill="#00F0FF"/>
<path fill-rule="evenodd" clip-rule="evenodd" d="M113.885 27.6581C115.102 28.926 116.927 30.9847 118.22 32.0952C119.055 32.9662 118.448 34.5508 117.003 33.8382C115.557 33.1255 112.934 30.6699 112.248 28.2133C112.782 28.054 113.39 27.8956 113.885 27.6581Z" fill="#00F0FF"/>
<path fill-rule="evenodd" clip-rule="evenodd" d="M110.842 29.6376C111.831 30.9055 112.82 31.9358 113.428 32.7277C114.036 33.5195 113.276 34.3123 112.668 34.5498C112.059 34.7874 110.918 35.4218 109.549 32.5693L110.842 29.6376Z" fill="#00F0FF"/>
<path fill-rule="evenodd" clip-rule="evenodd" d="M140.352 4.20554C138.375 4.20554 131.682 4.68063 129.248 4.68063C126.814 4.68063 121.185 4.52227 119.132 4.3639C117.078 4.20554 111.679 4.12635 109.549 4.3639C107.419 4.60145 102.704 4.91818 101.868 7.21641C101.031 9.51463 102.857 10.7816 103.997 11.6535C105.138 12.5255 108.637 14.6644 108.789 20.2101C109.702 19.8142 110.994 19.5766 110.082 17.5951C109.55 16.4856 106.963 12.8413 107.572 11.1775C108.181 9.51367 110.158 8.1666 114.646 8.00823C119.134 7.84987 125.446 8.00823 127.652 7.61135C129.857 7.21544 138.376 4.9964 140.124 4.75885C140.884 4.6816 140.884 4.28569 140.352 4.20554Z" fill="#00F0FF"/>
<path fill-rule="evenodd" clip-rule="evenodd" d="M122.402 8.64266C120.804 8.64266 114.949 8.4843 113.276 8.80103C111.602 9.11776 109.516 9.61989 108.636 11.1775C107.875 12.5245 109.168 14.6634 109.777 15.5354C110.385 16.4064 112.134 18.1504 112.82 18.7838C113.428 19.2589 114.568 18.4671 113.58 17.2784C114.872 18.0702 116.47 17.9119 115.709 16.0897C116.85 17.0408 118.752 17.12 117.61 14.6634C118.37 15.2969 120.5 15.2187 119.131 13.3164C120.273 13.7123 121.565 12.9996 120.729 11.8109C122.174 12.0485 123.01 10.9399 121.489 10.068C122.935 10.4648 123.315 8.72185 122.402 8.64266Z" fill="#00F0FF"/>
<path fill-rule="evenodd" clip-rule="evenodd" d="M128.97 8.11253C130.968 8.11253 131.008 10.3586 128.731 10.234C126.936 10.1355 124.778 9.69328 124.818 8.94491C124.858 8.19557 127.493 8.15405 128.97 8.11253Z" fill="#00F0FF"/>
<path fill-rule="evenodd" clip-rule="evenodd" d="M128.692 10.5372C129.809 10.7458 129.849 11.2856 129.69 11.7018C129.53 12.118 128.931 12.8248 126.975 12.5342C125.018 12.2426 123.94 11.4112 123.94 10.7033C123.94 9.99552 127.493 10.4542 128.692 10.5372Z" fill="#00F0FF"/>
<path fill-rule="evenodd" clip-rule="evenodd" d="M126.775 13.0334C127.533 13.158 128.238 13.7413 128.013 14.4471C127.733 15.321 126.016 15.5711 124.1 14.5717C122.183 13.5732 122.303 13.3241 122.503 12.7833C122.702 12.2426 124.698 12.6588 126.775 13.0334Z" fill="#00F0FF"/>
<path fill-rule="evenodd" clip-rule="evenodd" d="M123.181 14.3226C124.099 14.6547 125.098 15.154 125.856 15.6532C126.615 16.1525 127.214 17.9408 124.299 17.1509C121.385 16.361 121.224 15.3201 121.624 14.6142C122.024 13.9064 122.942 14.281 123.181 14.3226Z" fill="#00F0FF"/>
<path fill-rule="evenodd" clip-rule="evenodd" d="M124.088 17.7834C125.086 18.4072 124.607 20.8194 122.411 19.7379C120.215 18.6564 118.698 17.4918 119.016 16.7009C119.335 15.911 121.853 16.5348 124.088 17.7834Z" fill="#00F0FF"/>
<path fill-rule="evenodd" clip-rule="evenodd" d="M118.303 18.3657C119.34 18.8649 122.734 20.0295 121.617 21.5262C121.058 22.2746 119.979 21.6508 119.54 21.3602C119.101 21.0685 116.705 19.3632 117.305 18.4478C117.567 18.047 118.063 18.2402 118.303 18.3657Z" fill="#00F0FF"/>
<path fill-rule="evenodd" clip-rule="evenodd" d="M118.535 21.1603C120.73 22.6155 118.254 23.864 116.857 22.6155C116.099 21.9386 114.549 20.717 115.259 19.8286C115.859 19.0803 117.855 20.7856 118.535 21.1603Z" fill="#00F0FF"/>
<path fill-rule="evenodd" clip-rule="evenodd" d="M115.053 21.7503C115.732 22.5402 117.321 23.7327 116.091 24.6201C115.053 25.3685 114.413 24.5786 113.934 24.0379C113.455 23.4971 111.618 21.5832 112.297 20.7933C112.976 20.0034 114.453 21.3756 115.053 21.7503Z" fill="#00F0FF"/>
<path fill-rule="evenodd" clip-rule="evenodd" d="M110.407 22.0554C111.126 21.4731 112.564 23.0539 113.083 24.0108C113.602 24.9668 113.202 25.5076 112.683 25.7577C112.163 26.0078 111.246 25.467 111.046 24.9263C110.847 24.3845 109.689 22.8038 110.407 22.0554Z" fill="#00F0FF"/>
<path fill-rule="evenodd" clip-rule="evenodd" d="M87.0357 14.8228C94.7939 14.8228 97.4555 18.7838 97.4555 21.3988C97.4938 24.0919 94.8322 26.2318 94.3761 26.4684C93.9014 26.7156 93.8063 27.3404 94.4144 27.4987C96.6955 28.2906 98.749 30.5888 98.749 32.886C98.749 38.2733 93.5014 40.1757 87.8732 40.334C82.2451 40.4924 78.594 38.8286 76.464 37.0856C77.0729 36.2938 77.4525 35.5802 77.529 34.7092V20.2101C77.529 19.4182 76.9209 18.7046 76.3884 18.2295C78.6695 16.0105 82.4726 14.8228 87.0357 14.8228ZM90.8912 21.8748C90.8912 24.1016 89.3011 25.9083 87.3408 25.9083C85.3805 25.9083 83.7914 24.1016 83.7914 21.8748C83.7914 19.6471 85.3805 17.8414 87.3408 17.8414C89.3011 17.8414 90.8912 19.6471 90.8912 21.8748ZM91.7769 32.8078C91.7769 35.1592 89.9938 37.0653 87.7966 37.0653C85.5994 37.0653 83.8173 35.1592 83.8173 32.8078C83.8173 30.4565 85.5985 28.5503 87.7966 28.5503C89.9947 28.5503 91.7769 30.4565 91.7769 32.8078Z" fill="#00F0FF"/>
</svg>
