<svg width="250" height="48" viewBox="0 0 250 48" fill="none" xmlns="http://www.w3.org/2000/svg">
<path d="M5.40406 7.89385C6.71822 5.37176 9.49939 3.64302 12.3792 3.74097C14.6179 3.82667 16.8789 3.56467 19.0979 3.90993C19.8893 4.44128 20.6389 5.20525 20.6956 6.20674C20.8977 7.74204 19.5663 9.29447 17.9958 9.27978C15.9419 9.29692 13.8856 9.27733 11.8294 9.28713C10.9837 9.65442 10.1799 10.3694 10.1897 11.3562C10.1725 17.5635 10.1897 23.7708 10.1824 29.9805C10.1651 32.9997 11.8466 35.8964 14.3911 37.5174C14.8719 37.7966 15.3675 38.0463 15.8606 38.3034C16.4104 38.492 16.9701 38.6487 17.5199 38.8348C18.9278 39.0993 20.3824 39.1164 21.7928 38.8422C25.8042 37.9876 29.1131 34.3587 29.187 30.223C29.1993 21.3981 29.1895 12.5707 29.1919 3.74587C33.9382 3.74097 38.682 3.74832 43.4282 3.74097C44.2739 3.72873 45.1097 3.8585 45.9455 3.96624C49.316 4.77184 52.2697 7.02214 53.8798 10.078C54.4074 11.1089 54.7822 12.2059 55.0632 13.3274C55.3098 14.9606 55.3049 16.6306 55.0756 18.2663C54.9005 18.8172 54.76 19.3804 54.6096 19.9387C56.0643 21.2218 57.2403 22.7987 58.0565 24.5544C58.6408 25.8864 59.0501 27.2846 59.272 28.7219C59.3681 29.9561 59.3854 31.1975 59.2547 32.4316C59.1093 32.9018 59.0747 33.3939 58.986 33.8763C58.552 35.441 57.9233 36.9567 57.048 38.3304C56.7719 38.7148 56.4957 39.0993 56.2122 39.4788C54.7107 41.3006 52.7431 42.7453 50.5537 43.6513C49.062 44.1851 47.5038 44.6209 45.9061 44.6087C42.6244 44.5964 39.3427 44.6234 36.0635 44.594C34.9787 44.5401 34.1872 43.6709 33.7212 42.7722C33.6349 42.0988 33.6275 41.4132 33.7853 40.7496C34.2858 39.8241 35.1882 39.0968 36.2756 39.0503C39.4118 39.0136 42.548 39.0478 45.6842 39.0356C48.1473 38.9915 50.5118 37.6986 51.9837 35.7544C53.9439 33.2176 54.257 29.6157 52.8861 26.7385C52.1144 25.2106 50.9038 23.8932 49.3974 23.0534C48.8574 22.7056 48.2755 22.2624 48.1473 21.5964C47.9106 20.7835 48.241 19.9411 48.6873 19.2629C49.4984 17.9749 49.7943 16.42 49.6908 14.9165L49.5675 14.9018C49.3332 12.2647 47.2079 9.99968 44.6363 9.39487C44.0816 9.29202 43.5145 9.27488 42.9499 9.27978C40.2205 9.29692 37.4911 9.26999 34.7617 9.29447C34.7617 16.5082 34.7642 23.7218 34.7592 30.9355C34.4806 36.5747 30.4445 41.6924 25.1558 43.639C20.8509 45.2796 15.831 44.8535 11.8614 42.5249C8.08661 40.3334 5.40406 36.4523 4.70631 32.1647C4.61755 31.604 4.57317 31.0359 4.57317 30.4678C4.57563 24.5127 4.57317 18.5601 4.57317 12.605C4.5781 11.628 4.51646 10.6412 4.72603 9.68136C4.92574 9.07654 5.14764 8.47908 5.40406 7.89385Z" fill="#00F0FF"/>
<path d="M183.956 9.78662C185.174 9.75724 186.025 8.80472 186.898 8.08972C187.267 8.45702 187.716 8.74596 188.044 9.15978C188.101 9.52707 187.736 9.75479 187.553 10.0217C186.592 11.1138 185.258 12.0712 183.727 11.9708C182.132 11.9586 180.872 10.8053 179.942 9.63726C179.93 9.49034 179.92 9.34342 179.913 9.1965C180.213 8.91001 180.507 8.61618 180.793 8.315C180.911 8.29786 181.145 8.25868 181.264 8.23909C182.008 8.96144 182.859 9.72296 183.956 9.78662Z" fill="#00F0FF"/>
<path d="M197.467 9.31403C200.473 9.32872 203.478 9.29444 206.484 9.33117C206.513 10.2323 206.511 11.1334 206.494 12.0369C204.287 12.1104 202.078 12.0516 199.871 12.0687C199.869 12.9184 199.866 13.7681 199.881 14.6178C201.553 14.6692 203.244 14.4904 204.906 14.7647C205.875 15.1148 206.923 15.5385 207.465 16.4738C208.469 18.0997 208.437 20.2815 207.389 21.8829C206.42 23.0141 205 23.8271 203.473 23.783C201.299 23.7512 199.119 23.8638 196.952 23.7169C196.76 23.3006 196.619 22.8574 196.641 22.3946C196.649 18.5087 196.624 14.6202 196.654 10.7342C196.577 10.1098 196.937 9.60787 197.467 9.31403ZM199.869 21.0259C201.072 20.9769 202.292 21.1213 203.488 20.945C204.95 20.6316 205.229 18.6213 204.253 17.6492C202.899 16.9391 201.328 17.299 199.871 17.2109C199.869 18.4817 199.871 19.7526 199.869 21.0259Z" fill="#00F0FF"/>
<path d="M79.8987 9.30923C81.0033 9.26516 82.1078 9.2872 83.2124 9.28965C84.0261 11.2437 84.6794 13.2589 85.4191 15.2398C85.641 15.9671 85.8974 16.6796 86.144 17.3971C87.0267 14.6987 87.8082 11.9685 88.7871 9.30434C89.9163 9.27495 91.0431 9.27006 92.1699 9.30679C91.7803 10.5948 91.2675 11.8411 90.8261 13.112C90.0914 15.1566 89.3049 17.1816 88.6194 19.2409C88.2742 20.1371 87.9414 21.0382 87.6233 21.9442C87.2855 22.5539 86.933 23.2028 86.3141 23.5774C85.2317 24.312 83.8461 24.2067 82.5985 24.1578C82.1473 24.0255 81.6961 23.8982 81.2671 23.7048C81.3139 23.4354 81.3608 23.1661 81.4125 22.8967C81.5136 22.4119 81.6197 21.9271 81.7454 21.4471C82.7218 21.523 83.7721 21.7263 84.6696 21.2145C84.9038 20.7003 85.1183 20.1787 85.2958 19.64C84.8791 19.6229 84.4649 19.5984 84.0532 19.569C82.9239 17.3187 82.13 14.9142 81.1241 12.6075C80.7271 11.5032 80.1526 10.4601 79.8987 9.30923Z" fill="#00F0FF"/>
<path d="M92.8261 13.7412C94.3079 12.9528 96.019 12.7446 97.6759 12.6981C99.2539 12.6712 100.98 13.1364 101.976 14.4367C102.886 15.5704 103.046 17.0591 103.103 18.4549C103.039 19.9461 102.723 21.5426 101.638 22.6518C101.113 23.2615 100.358 23.575 99.6385 23.8835C98.3884 24.099 97.1137 23.9961 95.8612 23.8761C95.839 25.2743 95.9179 26.6749 95.807 28.0682C94.8257 28.0829 93.8444 28.0805 92.8631 28.0731C92.7546 23.2983 92.8261 18.5185 92.8261 13.7412ZM95.8637 15.5459C95.8588 17.4289 95.8637 19.3143 95.8612 21.1973C96.9116 21.3345 98.2035 21.665 99.0566 20.8374C99.9886 19.9216 99.8924 18.4745 99.7766 17.282C99.7026 16.4813 99.1552 15.8544 98.4969 15.4381C97.6192 15.3426 96.7266 15.3402 95.8637 15.5459Z" fill="#00F0FF"/>
<path d="M211.107 13.3223C213.175 12.7125 215.456 12.311 217.559 12.9721C218.987 13.3688 219.803 14.8306 219.8 16.241C219.798 18.3983 219.825 20.5604 219.786 22.7201C219.428 23.6947 218.116 23.5894 217.295 23.9224C215.87 24.0497 214.435 24.0816 213.01 23.942C211.955 23.6482 210.796 23.1903 210.333 22.1153C209.694 20.5506 210.066 18.4277 211.629 17.5413C213.165 16.5863 215.032 16.9218 216.743 16.8532C216.728 16.3561 216.642 15.8688 216.378 15.4403C214.901 14.8527 213.276 15.2493 211.792 15.597C211.716 15.5383 211.56 15.4232 211.481 15.3669C211.336 14.6886 211.134 14.0177 211.107 13.3223ZM213.464 19.3802C213.276 19.9581 213.013 20.6706 213.518 21.1726C214.391 21.9219 215.661 21.5521 216.696 21.4223C216.711 20.5751 216.711 19.7254 216.686 18.8782C215.592 18.8733 214.428 18.7484 213.464 19.3802Z" fill="#00F0FF"/>
<path d="M106.16 13.3273C108.211 12.7078 110.462 12.3307 112.558 12.9526C113.906 13.3175 114.801 14.6422 114.836 15.9963C114.866 18.0507 114.834 20.1075 114.851 22.1619C114.834 22.4803 114.878 22.8231 114.715 23.112C114.037 23.5405 113.236 23.6874 112.469 23.876C110.992 24.0915 109.493 24.067 108.009 23.9372C106.848 23.6629 105.775 23.0385 105.238 21.9416C104.981 20.5409 105.016 18.8636 106.206 17.8719C107.78 16.5399 109.954 16.9194 111.858 16.8435C111.744 16.2656 111.702 15.4992 111.019 15.3009C109.537 14.8307 108.021 15.5065 106.52 15.4723C106.401 14.7548 106.197 14.0521 106.16 13.3273ZM108.472 19.417C108.389 19.7525 108.31 20.0879 108.228 20.4234C108.315 20.6805 108.401 20.9376 108.487 21.1947C108.956 21.4567 109.471 21.6012 109.996 21.6942C110.546 21.5939 111.103 21.5302 111.655 21.4322C111.678 20.9327 111.72 20.4356 111.784 19.941C111.737 19.586 111.687 19.2309 111.641 18.8759C110.558 18.8587 109.409 18.7755 108.472 19.417Z" fill="#00F0FF"/>
<path d="M144.726 13.32C146.691 12.2352 149.125 12.6074 151.072 13.5453C150.934 13.9517 150.801 14.3558 150.675 14.7647C150.532 15.132 150.382 15.4993 150.197 15.8519C149.623 15.7809 149.068 15.607 148.513 15.4552C147.985 15.4307 147.463 15.4258 146.938 15.4307C145.305 16.1751 145.239 18.1683 145.453 19.6962C145.71 20.2129 145.934 20.8446 146.526 21.0699C147.825 21.6674 149.226 21.0552 150.51 20.732C150.826 21.5107 151.169 22.2869 151.329 23.1194C150.643 23.4353 149.936 23.6924 149.213 23.8981C147.458 24.116 145.527 24.236 144.001 23.1806C143.109 22.3897 142.504 21.3319 142.315 20.1566C142.11 19.0449 142.135 17.894 142.297 16.7775C142.64 15.3866 143.399 13.9983 144.726 13.32Z" fill="#00F0FF"/>
<path d="M119.254 13.2073C119.681 13.0261 120.137 12.9208 120.608 12.9527C122.581 12.9771 124.555 12.9282 126.528 12.9747C126.895 12.9502 127.12 13.2808 127.388 13.4718C127.455 16.9023 127.418 20.3353 127.408 23.7658C126.4 23.7952 125.394 23.7903 124.388 23.7732C124.356 21.0821 124.366 18.3886 124.383 15.6951C124.326 15.629 124.213 15.4919 124.156 15.4258C123.367 15.4429 122.576 15.4356 121.787 15.4356C121.745 17.0345 121.582 18.6237 121.385 20.208C121.138 22.2746 119.528 24.1992 117.346 24.2996C116.969 23.6238 116.715 22.8868 116.486 22.1497C117.149 21.7604 117.933 21.4078 118.253 20.6561C118.759 19.3216 118.761 17.8744 118.862 16.4714C119.087 15.3915 118.875 14.2553 119.254 13.2073Z" fill="#00F0FF"/>
<path d="M130.273 22.6493C130.29 19.4244 130.231 16.1996 130.305 12.9747C131.301 12.9478 132.3 12.9527 133.298 12.9723C133.318 14.0938 133.301 15.2177 133.313 16.3416C134.684 16.3539 136.062 16.2828 137.428 16.4322C138.579 16.7065 139.583 17.4239 140.123 18.4842C140.332 19.6056 140.5 20.8887 139.852 21.9049C139.161 23.0901 137.78 23.8344 136.407 23.7855C134.62 23.7659 132.827 23.8246 131.04 23.7585C130.468 23.7683 130.226 23.1292 130.273 22.6493ZM133.315 18.6433C133.303 19.5787 133.303 20.5165 133.315 21.4519C134.531 21.3638 135.917 21.7506 136.964 20.9426C137.132 20.3966 137.366 19.7452 136.95 19.2432C136.057 18.1952 134.506 18.8049 133.315 18.6433Z" fill="#00F0FF"/>
<path d="M153.455 12.9723C154.46 12.9479 155.466 12.9552 156.472 12.965C156.497 14.2677 156.48 15.5703 156.485 16.873C157.37 16.9048 158.435 16.9244 158.938 16.0478C159.286 15.0218 159.618 13.991 159.966 12.965C160.93 12.9576 161.897 12.9454 162.863 12.9772C162.745 13.6898 162.518 14.3754 162.34 15.0733C162.037 16.1629 161.778 17.4386 160.632 17.9676C161.347 18.1316 161.941 18.6507 162.168 19.3486C162.597 20.5753 162.91 21.8388 163.332 23.0681C163.359 23.3031 163.388 23.5357 163.42 23.7708C162.424 23.7953 161.426 23.7831 160.432 23.7831C160.297 23.4011 160.176 23.0142 160.05 22.6322C159.752 21.7311 159.574 20.7761 159.13 19.9314C158.571 19.0498 157.38 19.2237 156.485 19.1943C156.48 20.7223 156.495 22.2527 156.475 23.7806C155.469 23.7855 154.46 23.7904 153.455 23.7757C153.445 20.1762 153.447 16.5743 153.455 12.9723Z" fill="#00F0FF"/>
<path d="M165.582 22.8574C165.577 19.564 165.558 16.2682 165.595 12.9723C166.591 12.9503 167.589 12.9552 168.588 12.9674C168.61 15.1957 168.583 17.4215 168.603 19.6497C169.833 17.6712 171.083 15.705 172.311 13.7265C172.488 13.4155 172.77 13.1878 173.043 12.96C174.005 13.0678 175.27 12.5903 175.908 13.5477C175.955 16.9489 175.925 20.3525 175.923 23.7536C174.883 23.8026 173.84 23.7977 172.799 23.7585C172.752 21.6037 172.844 19.4465 172.747 17.2941C171.759 19.0033 170.661 20.6488 169.599 22.3138C169.283 22.8207 168.938 23.308 168.539 23.7536C167.777 23.783 167.01 23.8222 166.253 23.7585C165.804 23.7561 165.545 23.2566 165.582 22.8574Z" fill="#00F0FF"/>
<path d="M178.739 12.9893C179.755 12.9404 180.776 12.955 181.796 12.9673C181.843 15.2078 181.732 17.4507 181.86 19.6888C182.792 17.8939 183.959 16.2338 185.009 14.5075C185.325 13.9688 185.689 13.4595 186.106 12.9918C187.065 12.9991 188.106 12.7567 188.983 13.2636C189.186 16.7602 189.038 20.274 189.06 23.778C188.056 23.7903 187.053 23.7878 186.049 23.778C186.02 21.5963 186.064 19.4121 186.025 17.2279C185.813 17.5462 185.606 17.867 185.396 18.1829C184.402 19.8602 183.298 21.4689 182.267 23.1218C181.619 24.231 180.112 23.6972 179.059 23.6972C178.983 23.5576 178.825 23.2785 178.746 23.1389C178.724 19.7549 178.741 16.3709 178.739 12.9893Z" fill="#00F0FF"/>
<path d="M222.656 12.9868C223.659 12.9403 224.665 12.9452 225.671 12.9819C225.673 14.2748 225.673 15.5701 225.673 16.863C226.946 16.8556 228.223 16.863 229.498 16.8605C229.5 15.5726 229.483 14.2821 229.51 12.9941C230.538 12.9378 231.571 12.9427 232.602 12.9892C232.624 16.4883 232.597 19.9899 232.616 23.489C232.545 23.5943 232.404 23.8049 232.335 23.9102C231.85 23.8318 231.364 23.7926 230.881 23.7828C230.417 23.7853 229.961 23.7755 229.505 23.7363C229.488 22.2426 229.5 20.749 229.498 19.2553C228.223 19.2553 226.948 19.2553 225.673 19.2553C225.671 20.7588 225.676 22.2622 225.671 23.7681C224.665 23.7926 223.659 23.7951 222.656 23.7657C222.628 20.1735 222.626 16.5789 222.656 12.9868Z" fill="#00F0FF"/>
<path d="M235.435 12.9745C236.443 12.95 237.452 12.9476 238.46 12.9745C238.47 14.2723 238.46 15.5701 238.468 16.8678C239.153 16.885 239.846 16.8605 240.499 16.6254C241.301 15.5701 241.515 14.2258 241.915 12.9941C242.908 12.9353 243.904 12.9427 244.903 12.9892C244.762 13.6087 244.585 14.2209 244.429 14.8355C244.131 15.8492 243.907 16.9413 243.118 17.7102C242.997 17.7616 242.755 17.8644 242.632 17.9134C243.285 18.173 243.944 18.5647 244.166 19.2748C244.681 20.7416 245.056 22.2524 245.502 23.7411C244.457 23.8073 243.411 23.8048 242.368 23.7485C242.331 23.5844 242.255 23.2539 242.218 23.0898C241.895 22.0883 241.564 21.0893 241.278 20.0804C240.704 19.0814 239.454 19.1891 238.465 19.1965C238.463 20.722 238.47 22.2499 238.458 23.7754C237.449 23.7901 236.443 23.7901 235.437 23.7754C235.41 20.1759 235.413 16.574 235.435 12.9745Z" fill="#00F0FF"/>
<path d="M80.0491 32.8209C81.2622 32.2504 82.6158 32.2504 83.9275 32.3263C84.5932 32.603 85.3279 32.9385 85.6164 33.6535C86.3314 35.1716 86.1687 37.2383 84.8545 38.3989C84.4674 38.5605 84.0729 38.7074 83.6785 38.8568C83.242 38.8519 82.8056 38.8519 82.3692 38.8519C82.1917 38.7882 82.0142 38.727 81.8391 38.6658C81.8169 39.5057 81.8243 40.3431 81.8194 41.183C81.2277 41.1855 80.6384 41.1855 80.0467 41.183C80.0442 38.3965 80.0392 35.6075 80.0491 32.8209ZM81.8293 33.9008C81.8194 35.01 81.8194 36.1217 81.8293 37.2309C82.347 37.2432 82.8845 37.346 83.3924 37.1991C83.9447 36.964 83.999 36.3249 84.1617 35.8278C84.1593 35.6026 84.1543 35.3748 84.1543 35.1496C84.0212 34.7774 83.8831 34.4125 83.7327 34.0501C83.1188 33.8298 82.4703 33.8053 81.8293 33.9008Z" fill="#00F0FF"/>
<path d="M87.6974 33.6068C88.2004 32.9481 88.8883 32.3115 89.7685 32.2943C90.8977 32.1523 92.3253 32.3727 92.8529 33.5211C93.1685 34.2777 93.3806 35.3111 92.8061 35.9942C91.5758 36.1632 90.3233 36.0138 89.0855 36.075C89.2705 36.4791 89.3346 37.0618 89.8326 37.2186C90.6167 37.6177 91.4673 37.1794 92.2439 36.9884C92.3771 37.412 92.7494 37.8258 92.6286 38.2935C92.493 38.3768 92.2217 38.5408 92.0861 38.6241C91.238 38.8126 90.375 38.9497 89.5047 38.8567C88.8784 38.6339 88.2029 38.4061 87.8207 37.8209C87.3128 37.0129 87.261 36.0089 87.2585 35.0809C87.404 34.5887 87.5396 34.0941 87.6974 33.6068ZM89.4899 34.0476C89.3839 34.339 89.2754 34.6303 89.1669 34.9217C89.9337 34.9291 90.7029 34.9291 91.4697 34.9193C91.2848 34.5177 91.2922 33.8713 90.7325 33.8003C90.2937 33.6019 89.8794 33.886 89.4899 34.0476Z" fill="#00F0FF"/>
<path d="M98.428 32.4168C98.9778 32.3017 99.5449 32.3776 100.102 32.3727C99.8974 33.4403 99.6953 34.5887 98.926 35.4164C99.0468 35.4507 99.2884 35.5143 99.4093 35.5486C99.9517 36.5305 100.134 37.6446 100.497 38.6951C99.8851 38.7147 99.2761 38.7147 98.6671 38.7147C98.354 37.8919 98.2825 36.9492 97.7351 36.2342C97.3135 36.0628 96.8475 36.0751 96.4013 36.0359C96.4013 36.9272 96.4037 37.8185 96.3988 38.7122C95.8046 38.7147 95.2129 38.7147 94.6211 38.7122C94.6162 36.5991 94.5989 34.4834 94.631 32.3678C95.2129 32.3629 95.7947 32.3605 96.3791 32.3654C96.4062 33.1391 96.4037 33.9154 96.4013 34.6916C96.6059 34.6891 97.0127 34.6867 97.2174 34.6842C97.3456 34.6108 97.6045 34.4639 97.7351 34.3904C97.9916 33.7415 98.1617 33.0608 98.428 32.4168Z" fill="#00F0FF"/>
<path d="M101.922 33.7441C102.942 31.6579 106.451 31.7607 107.42 33.8518C107.903 35.4802 107.854 37.7133 106.135 38.6046C105.871 38.6757 105.61 38.7565 105.351 38.8446C104.838 38.8789 104.325 38.8789 103.813 38.8642C103.132 38.6414 102.41 38.3647 102.037 37.7084C101.372 36.5111 101.34 34.9782 101.922 33.7441ZM103.477 34.5717C103.411 35.2476 103.406 35.9307 103.485 36.609C103.62 36.7902 103.756 36.9739 103.892 37.1575C104.069 37.2261 104.422 37.3607 104.599 37.4268C104.846 37.3142 105.092 37.204 105.339 37.0914C105.42 36.9739 105.583 36.7388 105.664 36.6188C105.829 35.7495 105.842 34.8313 105.43 34.0233C104.708 33.5776 103.855 33.8249 103.477 34.5717Z" fill="#00F0FF"/>
<path d="M117.588 32.8575C118.488 32.096 119.748 32.2282 120.833 32.3923C121.104 32.5025 121.378 32.6127 121.654 32.7204C121.506 33.1881 121.346 33.6533 121.175 34.1137C120.409 33.9496 119.605 33.7733 118.84 34.0476C118.318 34.8605 118.128 35.9477 118.651 36.8096C119.309 37.6495 120.505 37.1427 121.353 36.9296C121.516 37.3973 121.678 37.865 121.819 38.3425C120.81 38.7832 119.706 38.9742 118.609 38.8567C117.936 38.5922 117.186 38.2886 116.89 37.5736C116.21 36.0702 116.269 34.006 117.588 32.8575Z" fill="#00F0FF"/>
<path d="M129.314 32.8404C130.49 32.2698 131.821 32.216 133.103 32.3408C134.075 32.4976 134.814 33.2517 135.137 34.1528C135.446 35.4212 135.401 36.888 134.565 37.9556C134.186 38.4649 133.56 38.6436 132.992 38.8591C132.455 38.8518 131.92 38.8469 131.385 38.8469C131.328 38.7685 131.217 38.6093 131.16 38.531C131.077 39.4125 131.114 40.2989 131.091 41.1829C130.49 41.1878 129.888 41.1878 129.292 41.1559C129.297 38.3841 129.255 35.6122 129.314 32.8404ZM131.119 33.8933C131.094 35.0074 131.104 36.124 131.111 37.2381C131.74 37.2161 132.556 37.4854 133.02 36.9149C133.626 36.0726 133.481 34.8972 132.987 34.0353C132.381 33.837 131.745 33.8125 131.119 33.8933Z" fill="#00F0FF"/>
<path d="M136.163 32.3703C136.827 32.358 137.51 32.3017 138.151 32.527C138.466 34.0917 139.06 35.5853 139.354 37.1574C139.647 36.3371 139.881 35.4996 140.158 34.6745C140.19 34.53 140.249 34.241 140.281 34.0966C140.483 33.5114 140.661 32.9163 140.922 32.3531C141.531 32.3629 142.137 32.3605 142.749 32.3776C142.628 32.8184 142.49 33.2542 142.362 33.6926C141.92 34.9707 141.454 36.244 141.03 37.5296C140.577 38.6241 140.468 39.9145 139.645 40.8181C138.824 41.5478 137.62 41.3568 136.644 41.1217C136.706 40.6418 136.77 40.1521 136.984 39.7089C137.468 39.7333 137.951 39.7309 138.439 39.7186C138.619 39.3807 138.792 39.0379 138.952 38.6902C138.673 38.5506 138.387 38.4331 138.094 38.3352C137.726 37.0986 137.253 35.8963 136.836 34.6745C136.595 33.9105 136.262 33.1685 136.163 32.3703Z" fill="#00F0FF"/>
<path d="M143.819 32.3628C144.411 32.3604 145.003 32.3628 145.597 32.3726C145.609 33.166 145.599 33.9593 145.616 34.7551C146.023 34.6768 146.437 34.5886 146.844 34.4882C147.125 33.7855 147.355 33.0631 147.636 32.3604C148.102 32.3628 148.57 32.3604 149.041 32.3555C149.105 32.4167 149.238 32.544 149.305 32.6077C148.925 33.5626 148.876 34.7062 148.04 35.4187C148.166 35.4432 148.417 35.4946 148.543 35.5191C149.113 36.4961 149.349 37.6127 149.638 38.6925C149.041 38.7146 148.447 38.717 147.853 38.717C147.557 37.8918 147.347 37.0397 147.005 36.2317C146.543 36.1362 146.077 36.0725 145.609 36.0309C145.602 36.9222 145.609 37.811 145.602 38.6999C144.995 38.7146 144.394 38.717 143.789 38.7121C143.802 36.5965 143.748 34.4784 143.819 32.3628Z" fill="#00F0FF"/>
<path d="M155 32.3678C155.579 32.3629 156.161 32.3605 156.743 32.3678C156.78 33.9986 156.756 35.627 156.758 37.2577C157.076 37.3239 157.404 37.3875 157.727 37.4512C157.715 38.4992 157.693 39.5546 157.535 40.5952C157.081 40.5952 156.63 40.5977 156.181 40.6026C156.026 39.9831 156.041 39.344 156.001 38.7122C154.357 38.6853 152.707 38.7857 151.067 38.6486C150.9 36.5599 150.991 34.4541 151.016 32.358C151.6 32.3556 152.197 32.3384 152.769 32.5C152.739 34.0917 152.761 35.6833 152.754 37.2749C153.491 37.2773 154.231 37.2773 154.97 37.2749C154.99 35.6392 154.941 34.0035 155 32.3678Z" fill="#00F0FF"/>
<path d="M163.43 32.3408C163.963 32.429 164.88 32.1302 164.998 32.8844C165.095 34.8188 165.008 36.763 165.038 38.6999C164.421 38.7146 163.81 38.7146 163.196 38.7024C163.191 37.4634 163.216 36.2219 163.169 34.9829C162.885 35.4457 162.609 35.9109 162.318 36.3688C161.835 37.145 161.337 37.9115 160.832 38.673C160.232 38.7024 159.614 38.7954 159.039 38.5848C158.953 36.5623 159.041 34.5348 158.992 32.5098C159.559 32.3286 160.156 32.3555 160.745 32.3604C160.827 33.6827 160.649 35.0221 160.915 36.3296C161.041 36.0187 161.167 35.7052 161.315 35.4016C162.057 34.4099 162.496 33.1831 163.43 32.3408Z" fill="#00F0FF"/>
<path d="M166.808 32.3656C167.387 32.3607 167.969 32.3631 168.551 32.368C168.585 33.6633 168.548 34.9587 168.58 36.254C168.916 35.6908 169.271 35.1374 169.614 34.5767C170.035 33.9106 170.454 33.2397 170.876 32.5712C170.994 32.5198 171.231 32.417 171.349 32.3656C171.64 32.3607 171.934 32.3533 172.227 32.3386C172.432 32.4978 172.809 32.5639 172.765 32.9018C172.819 34.8362 172.777 36.7731 172.782 38.71C172.508 38.7075 172.237 38.7051 171.968 38.7002L171.894 39.0356L171.818 38.6977C171.549 38.7051 171.285 38.7124 171.021 38.7173C171.004 37.4563 171.039 36.1928 170.989 34.9293C170.23 36.183 169.419 37.4073 168.635 38.6463C168.053 38.7271 167.466 38.7198 166.882 38.6806C166.67 36.587 166.803 34.4689 166.808 32.3656Z" fill="#00F0FF"/>
<path d="M181.323 34.2044C181.73 33.5433 182.08 32.8136 182.708 32.3239C183.184 32.3581 183.667 32.3949 184.136 32.5124L184.173 32.6814C184.429 34.6648 184.21 36.6849 184.286 38.6805C184.037 38.6903 183.791 38.6977 183.547 38.705L183.598 38.8886C183.226 38.705 182.814 38.705 182.415 38.6634C182.422 37.4366 182.425 36.2074 182.4 34.9806C181.678 36.2515 180.854 37.4586 180.053 38.6781C179.454 38.7246 178.85 38.727 178.258 38.634C178.214 36.5551 178.196 34.4689 178.263 32.39C178.722 32.3508 179.183 32.3581 179.649 32.3508C179.762 32.412 179.986 32.5369 180.097 32.5981C180.087 33.7955 180.083 34.9929 180.11 36.1903C180.484 35.512 180.899 34.8557 181.323 34.2044Z" fill="#00F0FF"/>
<path d="M189.728 32.8454C191.008 32.2455 192.507 32.1378 193.878 32.4365C195.68 33.0144 195.991 35.2573 195.557 36.8416C195.29 37.8774 194.41 38.6438 193.37 38.8642C192.753 38.8666 192.137 38.8495 191.538 38.7026C191.523 39.5278 191.528 40.353 191.518 41.1781C190.919 41.1855 190.322 41.1855 189.726 41.1781C189.711 38.4014 189.708 35.6222 189.728 32.8454ZM191.533 33.9032C191.521 35.0149 191.525 36.1266 191.53 37.2358C192.167 37.2309 192.938 37.4587 193.439 36.9322C193.957 36.2368 193.735 35.3137 193.715 34.5154C193.246 33.749 192.314 33.7759 191.533 33.9032Z" fill="#00F0FF"/>
<path d="M204.092 32.8649C205.419 32.2258 207.113 31.9687 208.466 32.6567C209.495 33.264 209.305 34.7748 208.363 35.3747C208.93 35.6808 209.305 36.2048 209.445 36.8267C209.319 37.9972 208.279 38.6779 207.187 38.8567C206.59 38.8493 205.998 38.8518 205.407 38.842C204.886 38.6926 204.366 38.5604 203.856 38.3865C203.974 37.9703 204.083 37.5564 204.189 37.1377C205.286 37.2136 206.454 37.7254 207.49 37.0936C207.495 36.8904 207.505 36.4815 207.51 36.2783C206.943 36.124 206.358 36.053 205.784 35.9452C205.633 35.6416 205.732 35.2841 205.707 34.9584C206.346 34.814 207.379 34.9217 207.362 34.001C206.479 33.5064 205.51 33.8884 204.605 34.0647C204.418 33.6705 204.295 33.2517 204.092 32.8649Z" fill="#00F0FF"/>
<path d="M211.307 32.3628C212.465 32.3628 213.624 32.3579 214.783 32.3726C215.343 32.5514 216.043 32.7277 216.253 33.3545C216.617 34.0793 216.248 34.9241 215.621 35.3698C216.62 35.4677 216.894 36.7753 216.509 37.5466C216.309 38.0706 215.777 38.3326 215.345 38.6362C213.846 38.6975 212.295 38.8689 210.823 38.575C210.651 36.6088 210.732 34.618 210.786 32.6469C210.917 32.5759 211.176 32.4339 211.307 32.3628ZM212.53 33.7904C212.53 34.0353 212.53 34.5274 212.53 34.7723C213.153 34.7845 213.785 34.7845 214.413 34.738C214.435 34.4687 214.453 34.1993 214.472 33.93C213.841 33.7316 213.176 33.788 212.53 33.7904ZM212.502 35.9893C212.522 36.4619 212.552 36.9369 212.658 37.4021C213.471 37.3752 214.559 37.6029 214.906 36.6308C214.827 36.4912 214.67 36.2121 214.591 36.0725C213.9 35.9354 213.198 35.9697 212.502 35.9893Z" fill="#00F0FF"/>
<path d="M218.163 32.3751C218.735 32.3629 219.307 32.3604 219.884 32.3629C219.924 33.6705 219.889 34.978 219.911 36.288C220.365 35.5877 220.811 34.8825 221.26 34.1798C221.672 33.5382 221.982 32.7938 222.618 32.3311C223.094 32.3702 223.605 32.2992 224.044 32.5441C224.325 32.833 224.184 33.2811 224.231 33.6411C224.226 35.2229 224.216 36.8023 224.236 38.3841C224.172 38.4967 224.044 38.7195 223.979 38.8322C223.449 38.6877 222.9 38.7073 222.36 38.6877C222.362 37.4438 222.369 36.1975 222.34 34.9535C221.613 36.2244 220.779 37.434 219.995 38.6706C219.401 38.6951 218.777 38.815 218.22 38.5702C218.03 36.5182 218.153 34.4369 218.163 32.3751Z" fill="#00F0FF"/>
<path d="M236.199 32.537C236.625 32.4145 237.064 32.3509 237.511 32.3386C237.651 32.4023 237.93 32.5296 238.068 32.5933C238.139 34.6281 238.09 36.6654 238.095 38.7026C237.52 38.7345 236.909 38.6194 236.376 38.8789C236.27 37.5616 236.354 36.2368 236.307 34.9146C235.57 36.1781 234.729 37.3755 233.995 38.639C233.391 38.7345 232.782 38.7247 232.18 38.6634C231.98 36.6066 232.123 34.5302 232.096 32.466C232.688 32.4537 233.28 32.4537 233.874 32.4562C233.879 33.7319 233.847 35.0101 233.901 36.2858C234.251 35.7128 234.589 35.1325 234.939 34.5571C235.23 34.1041 235.518 33.6462 235.809 33.1908C235.938 32.9728 236.068 32.7549 236.199 32.537Z" fill="#00F0FF"/>
<path d="M109.188 32.4853C109.752 32.3384 110.339 32.3555 110.921 32.3604C110.968 33.1366 110.958 33.9128 110.955 34.6891C111.693 34.6891 112.43 34.6891 113.169 34.6891C113.162 33.9055 113.123 33.1146 113.303 32.3457C113.877 32.353 114.461 32.3482 115.021 32.5024C114.989 34.5666 115.021 36.6308 115.004 38.695C114.395 38.7171 113.783 38.7171 113.174 38.695C113.162 37.8429 113.167 36.9883 113.167 36.1362C112.43 36.1337 111.69 36.1313 110.955 36.1509C110.955 37.0006 110.958 37.8527 110.95 38.7048C110.366 38.7146 109.782 38.7146 109.2 38.7073C109.178 36.6333 109.202 34.5593 109.188 32.4853Z" fill="#00F0FF"/>
<path d="M122.47 32.4461C124.363 32.2674 126.279 32.3996 128.182 32.3702C128.214 32.8673 128.222 33.3644 128.21 33.8615C127.546 33.9006 126.881 33.8957 126.22 33.8957C126.215 35.4996 126.227 37.1034 126.212 38.7073C125.618 38.7146 125.029 38.7146 124.437 38.7073C124.425 37.1034 124.435 35.4996 124.432 33.8957C123.781 33.8957 123.13 33.8933 122.482 33.8786C122.47 33.4011 122.465 32.9236 122.47 32.4461Z" fill="#00F0FF"/>
<path d="M197.568 32.6275C198.739 32.2259 200.009 32.1868 201.229 32.3557C202.147 32.5687 202.701 33.4968 202.659 34.4003C202.63 35.7226 202.775 37.0644 202.568 38.3696C202.068 38.5899 201.528 38.683 201.01 38.8348C199.607 38.9523 197.723 39.0282 196.996 37.5566C196.952 37.0767 196.952 36.5918 197.001 36.1119C197.317 35.6687 197.6 35.1447 198.143 34.939C199.03 34.5619 200.026 34.7333 200.968 34.6721C200.734 33.1613 199.006 33.8004 197.987 33.9253C197.575 33.6339 197.699 33.0536 197.568 32.6275ZM198.875 36.2197C198.875 36.538 198.882 36.8588 198.895 37.1795C199.501 37.5003 200.211 37.5272 200.847 37.2603C200.835 36.8171 200.828 36.3739 200.825 35.9307C200.159 35.9209 199.464 35.8524 198.875 36.2197Z" fill="#00F0FF"/>
<path d="M225.289 32.3727C227.185 32.3556 229.083 32.3605 230.982 32.3678C231.014 32.8649 231.019 33.3644 231.009 33.8639C230.353 33.9007 229.695 33.8958 229.041 33.8958C229.037 35.4972 229.049 37.0986 229.034 38.7C228.437 38.7171 227.841 38.7147 227.247 38.7073C227.232 37.1059 227.239 35.5045 227.242 33.9007C226.586 33.8958 225.93 33.8933 225.279 33.8762C225.272 33.3742 225.274 32.8722 225.289 32.3727Z" fill="#00F0FF"/>
<path d="M239.843 33.8223C240.127 33.2468 240.526 32.6591 241.204 32.5196C241.917 32.4363 242.634 32.3947 243.354 32.3531C244.057 32.3506 244.774 32.3261 245.45 32.5759C245.475 34.6205 245.457 36.6651 245.46 38.7097C244.878 38.7146 244.299 38.7146 243.724 38.7122C243.717 37.98 243.714 37.2503 243.727 36.5206C243.657 36.4619 243.514 36.3492 243.443 36.2929C243.283 36.2905 242.965 36.2831 242.807 36.2807L242.785 36.3762C241.517 36.3052 241.609 37.8649 241.219 38.6926C240.62 38.7171 240.021 38.7171 239.427 38.6975C239.584 38.1441 239.767 37.5956 239.902 37.0324C240.097 36.5745 240.309 36.0995 240.797 35.8767C240.368 35.6881 240.095 35.311 239.846 34.9388C239.846 34.5642 239.846 34.192 239.843 33.8223ZM241.695 34.0279C241.683 34.3095 241.69 34.5911 241.72 34.8703C242.282 35.3282 243.046 35.1617 243.717 35.2033C243.717 34.7282 243.717 34.2557 243.722 33.7831C243.036 33.7831 242.326 33.7145 241.695 34.0279Z" fill="#00F0FF"/>
</svg>
